G04 #@! TF.GenerationSoftware,KiCad,Pcbnew,5.1.6-c6e7f7d~87~ubuntu20.04.1*
G04 #@! TF.CreationDate,2020-09-15T10:48:52+07:00*
G04 #@! TF.ProjectId,pas-hw,7061732d-6877-42e6-9b69-6361645f7063,rev?*
G04 #@! TF.SameCoordinates,Original*
G04 #@! TF.FileFunction,Paste,Top*
G04 #@! TF.FilePolarity,Positive*
%FSLAX46Y46*%
G04 Gerber Fmt 4.6, Leading zero omitted, Abs format (unit mm)*
G04 Created by KiCad (PCBNEW 5.1.6-c6e7f7d~87~ubuntu20.04.1) date 2020-09-15 10:48:52*
%MOMM*%
%LPD*%
G01*
G04 APERTURE LIST*
%ADD10R,0.800000X0.900000*%
%ADD11R,1.500000X1.500000*%
%ADD12R,2.300000X2.500000*%
%ADD13R,0.450000X0.600000*%
%ADD14R,0.600000X0.450000*%
%ADD15R,0.900000X0.800000*%
%ADD16R,2.000000X1.500000*%
%ADD17R,2.000000X3.800000*%
%ADD18R,1.150000X1.000000*%
%ADD19R,0.723000X0.930000*%
%ADD20R,1.910000X0.610000*%
%ADD21R,2.700000X3.600000*%
%ADD22R,1.000000X1.800000*%
%ADD23R,0.450000X1.750000*%
%ADD24O,0.900000X2.500000*%
%ADD25O,2.500000X0.900000*%
%ADD26R,6.000000X6.000000*%
%ADD27R,1.750000X2.000000*%
%ADD28R,2.286000X0.812800*%
%ADD29R,0.812800X1.397000*%
%ADD30R,0.812800X2.286000*%
%ADD31R,2.600000X3.540000*%
%ADD32R,2.600000X3.660000*%
G04 APERTURE END LIST*
D10*
X108712000Y-65548000D03*
X109662000Y-67548000D03*
X107762000Y-67548000D03*
G36*
G01*
X143245000Y-67233000D02*
X143445000Y-67233000D01*
G75*
G02*
X143545000Y-67333000I0J-100000D01*
G01*
X143545000Y-68608000D01*
G75*
G02*
X143445000Y-68708000I-100000J0D01*
G01*
X143245000Y-68708000D01*
G75*
G02*
X143145000Y-68608000I0J100000D01*
G01*
X143145000Y-67333000D01*
G75*
G02*
X143245000Y-67233000I100000J0D01*
G01*
G37*
G36*
G01*
X142595000Y-67233000D02*
X142795000Y-67233000D01*
G75*
G02*
X142895000Y-67333000I0J-100000D01*
G01*
X142895000Y-68608000D01*
G75*
G02*
X142795000Y-68708000I-100000J0D01*
G01*
X142595000Y-68708000D01*
G75*
G02*
X142495000Y-68608000I0J100000D01*
G01*
X142495000Y-67333000D01*
G75*
G02*
X142595000Y-67233000I100000J0D01*
G01*
G37*
G36*
G01*
X141945000Y-67233000D02*
X142145000Y-67233000D01*
G75*
G02*
X142245000Y-67333000I0J-100000D01*
G01*
X142245000Y-68608000D01*
G75*
G02*
X142145000Y-68708000I-100000J0D01*
G01*
X141945000Y-68708000D01*
G75*
G02*
X141845000Y-68608000I0J100000D01*
G01*
X141845000Y-67333000D01*
G75*
G02*
X141945000Y-67233000I100000J0D01*
G01*
G37*
G36*
G01*
X141295000Y-67233000D02*
X141495000Y-67233000D01*
G75*
G02*
X141595000Y-67333000I0J-100000D01*
G01*
X141595000Y-68608000D01*
G75*
G02*
X141495000Y-68708000I-100000J0D01*
G01*
X141295000Y-68708000D01*
G75*
G02*
X141195000Y-68608000I0J100000D01*
G01*
X141195000Y-67333000D01*
G75*
G02*
X141295000Y-67233000I100000J0D01*
G01*
G37*
G36*
G01*
X140645000Y-67233000D02*
X140845000Y-67233000D01*
G75*
G02*
X140945000Y-67333000I0J-100000D01*
G01*
X140945000Y-68608000D01*
G75*
G02*
X140845000Y-68708000I-100000J0D01*
G01*
X140645000Y-68708000D01*
G75*
G02*
X140545000Y-68608000I0J100000D01*
G01*
X140545000Y-67333000D01*
G75*
G02*
X140645000Y-67233000I100000J0D01*
G01*
G37*
G36*
G01*
X139995000Y-67233000D02*
X140195000Y-67233000D01*
G75*
G02*
X140295000Y-67333000I0J-100000D01*
G01*
X140295000Y-68608000D01*
G75*
G02*
X140195000Y-68708000I-100000J0D01*
G01*
X139995000Y-68708000D01*
G75*
G02*
X139895000Y-68608000I0J100000D01*
G01*
X139895000Y-67333000D01*
G75*
G02*
X139995000Y-67233000I100000J0D01*
G01*
G37*
G36*
G01*
X139345000Y-67233000D02*
X139545000Y-67233000D01*
G75*
G02*
X139645000Y-67333000I0J-100000D01*
G01*
X139645000Y-68608000D01*
G75*
G02*
X139545000Y-68708000I-100000J0D01*
G01*
X139345000Y-68708000D01*
G75*
G02*
X139245000Y-68608000I0J100000D01*
G01*
X139245000Y-67333000D01*
G75*
G02*
X139345000Y-67233000I100000J0D01*
G01*
G37*
G36*
G01*
X138695000Y-67233000D02*
X138895000Y-67233000D01*
G75*
G02*
X138995000Y-67333000I0J-100000D01*
G01*
X138995000Y-68608000D01*
G75*
G02*
X138895000Y-68708000I-100000J0D01*
G01*
X138695000Y-68708000D01*
G75*
G02*
X138595000Y-68608000I0J100000D01*
G01*
X138595000Y-67333000D01*
G75*
G02*
X138695000Y-67233000I100000J0D01*
G01*
G37*
G36*
G01*
X138045000Y-67233000D02*
X138245000Y-67233000D01*
G75*
G02*
X138345000Y-67333000I0J-100000D01*
G01*
X138345000Y-68608000D01*
G75*
G02*
X138245000Y-68708000I-100000J0D01*
G01*
X138045000Y-68708000D01*
G75*
G02*
X137945000Y-68608000I0J100000D01*
G01*
X137945000Y-67333000D01*
G75*
G02*
X138045000Y-67233000I100000J0D01*
G01*
G37*
G36*
G01*
X137395000Y-67233000D02*
X137595000Y-67233000D01*
G75*
G02*
X137695000Y-67333000I0J-100000D01*
G01*
X137695000Y-68608000D01*
G75*
G02*
X137595000Y-68708000I-100000J0D01*
G01*
X137395000Y-68708000D01*
G75*
G02*
X137295000Y-68608000I0J100000D01*
G01*
X137295000Y-67333000D01*
G75*
G02*
X137395000Y-67233000I100000J0D01*
G01*
G37*
G36*
G01*
X137395000Y-61508000D02*
X137595000Y-61508000D01*
G75*
G02*
X137695000Y-61608000I0J-100000D01*
G01*
X137695000Y-62883000D01*
G75*
G02*
X137595000Y-62983000I-100000J0D01*
G01*
X137395000Y-62983000D01*
G75*
G02*
X137295000Y-62883000I0J100000D01*
G01*
X137295000Y-61608000D01*
G75*
G02*
X137395000Y-61508000I100000J0D01*
G01*
G37*
G36*
G01*
X138045000Y-61508000D02*
X138245000Y-61508000D01*
G75*
G02*
X138345000Y-61608000I0J-100000D01*
G01*
X138345000Y-62883000D01*
G75*
G02*
X138245000Y-62983000I-100000J0D01*
G01*
X138045000Y-62983000D01*
G75*
G02*
X137945000Y-62883000I0J100000D01*
G01*
X137945000Y-61608000D01*
G75*
G02*
X138045000Y-61508000I100000J0D01*
G01*
G37*
G36*
G01*
X138695000Y-61508000D02*
X138895000Y-61508000D01*
G75*
G02*
X138995000Y-61608000I0J-100000D01*
G01*
X138995000Y-62883000D01*
G75*
G02*
X138895000Y-62983000I-100000J0D01*
G01*
X138695000Y-62983000D01*
G75*
G02*
X138595000Y-62883000I0J100000D01*
G01*
X138595000Y-61608000D01*
G75*
G02*
X138695000Y-61508000I100000J0D01*
G01*
G37*
G36*
G01*
X139345000Y-61508000D02*
X139545000Y-61508000D01*
G75*
G02*
X139645000Y-61608000I0J-100000D01*
G01*
X139645000Y-62883000D01*
G75*
G02*
X139545000Y-62983000I-100000J0D01*
G01*
X139345000Y-62983000D01*
G75*
G02*
X139245000Y-62883000I0J100000D01*
G01*
X139245000Y-61608000D01*
G75*
G02*
X139345000Y-61508000I100000J0D01*
G01*
G37*
G36*
G01*
X139995000Y-61508000D02*
X140195000Y-61508000D01*
G75*
G02*
X140295000Y-61608000I0J-100000D01*
G01*
X140295000Y-62883000D01*
G75*
G02*
X140195000Y-62983000I-100000J0D01*
G01*
X139995000Y-62983000D01*
G75*
G02*
X139895000Y-62883000I0J100000D01*
G01*
X139895000Y-61608000D01*
G75*
G02*
X139995000Y-61508000I100000J0D01*
G01*
G37*
G36*
G01*
X140645000Y-61508000D02*
X140845000Y-61508000D01*
G75*
G02*
X140945000Y-61608000I0J-100000D01*
G01*
X140945000Y-62883000D01*
G75*
G02*
X140845000Y-62983000I-100000J0D01*
G01*
X140645000Y-62983000D01*
G75*
G02*
X140545000Y-62883000I0J100000D01*
G01*
X140545000Y-61608000D01*
G75*
G02*
X140645000Y-61508000I100000J0D01*
G01*
G37*
G36*
G01*
X141295000Y-61508000D02*
X141495000Y-61508000D01*
G75*
G02*
X141595000Y-61608000I0J-100000D01*
G01*
X141595000Y-62883000D01*
G75*
G02*
X141495000Y-62983000I-100000J0D01*
G01*
X141295000Y-62983000D01*
G75*
G02*
X141195000Y-62883000I0J100000D01*
G01*
X141195000Y-61608000D01*
G75*
G02*
X141295000Y-61508000I100000J0D01*
G01*
G37*
G36*
G01*
X141945000Y-61508000D02*
X142145000Y-61508000D01*
G75*
G02*
X142245000Y-61608000I0J-100000D01*
G01*
X142245000Y-62883000D01*
G75*
G02*
X142145000Y-62983000I-100000J0D01*
G01*
X141945000Y-62983000D01*
G75*
G02*
X141845000Y-62883000I0J100000D01*
G01*
X141845000Y-61608000D01*
G75*
G02*
X141945000Y-61508000I100000J0D01*
G01*
G37*
G36*
G01*
X142595000Y-61508000D02*
X142795000Y-61508000D01*
G75*
G02*
X142895000Y-61608000I0J-100000D01*
G01*
X142895000Y-62883000D01*
G75*
G02*
X142795000Y-62983000I-100000J0D01*
G01*
X142595000Y-62983000D01*
G75*
G02*
X142495000Y-62883000I0J100000D01*
G01*
X142495000Y-61608000D01*
G75*
G02*
X142595000Y-61508000I100000J0D01*
G01*
G37*
G36*
G01*
X143245000Y-61508000D02*
X143445000Y-61508000D01*
G75*
G02*
X143545000Y-61608000I0J-100000D01*
G01*
X143545000Y-62883000D01*
G75*
G02*
X143445000Y-62983000I-100000J0D01*
G01*
X143245000Y-62983000D01*
G75*
G02*
X143145000Y-62883000I0J100000D01*
G01*
X143145000Y-61608000D01*
G75*
G02*
X143245000Y-61508000I100000J0D01*
G01*
G37*
G36*
G01*
X67316250Y-53144000D02*
X66803750Y-53144000D01*
G75*
G02*
X66585000Y-52925250I0J218750D01*
G01*
X66585000Y-52487750D01*
G75*
G02*
X66803750Y-52269000I218750J0D01*
G01*
X67316250Y-52269000D01*
G75*
G02*
X67535000Y-52487750I0J-218750D01*
G01*
X67535000Y-52925250D01*
G75*
G02*
X67316250Y-53144000I-218750J0D01*
G01*
G37*
G36*
G01*
X67316250Y-54719000D02*
X66803750Y-54719000D01*
G75*
G02*
X66585000Y-54500250I0J218750D01*
G01*
X66585000Y-54062750D01*
G75*
G02*
X66803750Y-53844000I218750J0D01*
G01*
X67316250Y-53844000D01*
G75*
G02*
X67535000Y-54062750I0J-218750D01*
G01*
X67535000Y-54500250D01*
G75*
G02*
X67316250Y-54719000I-218750J0D01*
G01*
G37*
D11*
X56130000Y-95790000D03*
X63930000Y-95790000D03*
G36*
G01*
X75975000Y-62472500D02*
X75975000Y-61987500D01*
G75*
G02*
X76217500Y-61745000I242500J0D01*
G01*
X76702500Y-61745000D01*
G75*
G02*
X76945000Y-61987500I0J-242500D01*
G01*
X76945000Y-62472500D01*
G75*
G02*
X76702500Y-62715000I-242500J0D01*
G01*
X76217500Y-62715000D01*
G75*
G02*
X75975000Y-62472500I0J242500D01*
G01*
G37*
G36*
G01*
X75975000Y-61272500D02*
X75975000Y-60787500D01*
G75*
G02*
X76217500Y-60545000I242500J0D01*
G01*
X76702500Y-60545000D01*
G75*
G02*
X76945000Y-60787500I0J-242500D01*
G01*
X76945000Y-61272500D01*
G75*
G02*
X76702500Y-61515000I-242500J0D01*
G01*
X76217500Y-61515000D01*
G75*
G02*
X75975000Y-61272500I0J242500D01*
G01*
G37*
G36*
G01*
X75975000Y-60072500D02*
X75975000Y-59587500D01*
G75*
G02*
X76217500Y-59345000I242500J0D01*
G01*
X76702500Y-59345000D01*
G75*
G02*
X76945000Y-59587500I0J-242500D01*
G01*
X76945000Y-60072500D01*
G75*
G02*
X76702500Y-60315000I-242500J0D01*
G01*
X76217500Y-60315000D01*
G75*
G02*
X75975000Y-60072500I0J242500D01*
G01*
G37*
G36*
G01*
X74775000Y-62472500D02*
X74775000Y-61987500D01*
G75*
G02*
X75017500Y-61745000I242500J0D01*
G01*
X75502500Y-61745000D01*
G75*
G02*
X75745000Y-61987500I0J-242500D01*
G01*
X75745000Y-62472500D01*
G75*
G02*
X75502500Y-62715000I-242500J0D01*
G01*
X75017500Y-62715000D01*
G75*
G02*
X74775000Y-62472500I0J242500D01*
G01*
G37*
G36*
G01*
X74775000Y-61272500D02*
X74775000Y-60787500D01*
G75*
G02*
X75017500Y-60545000I242500J0D01*
G01*
X75502500Y-60545000D01*
G75*
G02*
X75745000Y-60787500I0J-242500D01*
G01*
X75745000Y-61272500D01*
G75*
G02*
X75502500Y-61515000I-242500J0D01*
G01*
X75017500Y-61515000D01*
G75*
G02*
X74775000Y-61272500I0J242500D01*
G01*
G37*
G36*
G01*
X74775000Y-60072500D02*
X74775000Y-59587500D01*
G75*
G02*
X75017500Y-59345000I242500J0D01*
G01*
X75502500Y-59345000D01*
G75*
G02*
X75745000Y-59587500I0J-242500D01*
G01*
X75745000Y-60072500D01*
G75*
G02*
X75502500Y-60315000I-242500J0D01*
G01*
X75017500Y-60315000D01*
G75*
G02*
X74775000Y-60072500I0J242500D01*
G01*
G37*
G36*
G01*
X73575000Y-62472500D02*
X73575000Y-61987500D01*
G75*
G02*
X73817500Y-61745000I242500J0D01*
G01*
X74302500Y-61745000D01*
G75*
G02*
X74545000Y-61987500I0J-242500D01*
G01*
X74545000Y-62472500D01*
G75*
G02*
X74302500Y-62715000I-242500J0D01*
G01*
X73817500Y-62715000D01*
G75*
G02*
X73575000Y-62472500I0J242500D01*
G01*
G37*
G36*
G01*
X73575000Y-61272500D02*
X73575000Y-60787500D01*
G75*
G02*
X73817500Y-60545000I242500J0D01*
G01*
X74302500Y-60545000D01*
G75*
G02*
X74545000Y-60787500I0J-242500D01*
G01*
X74545000Y-61272500D01*
G75*
G02*
X74302500Y-61515000I-242500J0D01*
G01*
X73817500Y-61515000D01*
G75*
G02*
X73575000Y-61272500I0J242500D01*
G01*
G37*
G36*
G01*
X73575000Y-60072500D02*
X73575000Y-59587500D01*
G75*
G02*
X73817500Y-59345000I242500J0D01*
G01*
X74302500Y-59345000D01*
G75*
G02*
X74545000Y-59587500I0J-242500D01*
G01*
X74545000Y-60072500D01*
G75*
G02*
X74302500Y-60315000I-242500J0D01*
G01*
X73817500Y-60315000D01*
G75*
G02*
X73575000Y-60072500I0J242500D01*
G01*
G37*
G36*
G01*
X73385000Y-58917500D02*
X73385000Y-58242500D01*
G75*
G02*
X73447500Y-58180000I62500J0D01*
G01*
X73572500Y-58180000D01*
G75*
G02*
X73635000Y-58242500I0J-62500D01*
G01*
X73635000Y-58917500D01*
G75*
G02*
X73572500Y-58980000I-62500J0D01*
G01*
X73447500Y-58980000D01*
G75*
G02*
X73385000Y-58917500I0J62500D01*
G01*
G37*
G36*
G01*
X73885000Y-58917500D02*
X73885000Y-58242500D01*
G75*
G02*
X73947500Y-58180000I62500J0D01*
G01*
X74072500Y-58180000D01*
G75*
G02*
X74135000Y-58242500I0J-62500D01*
G01*
X74135000Y-58917500D01*
G75*
G02*
X74072500Y-58980000I-62500J0D01*
G01*
X73947500Y-58980000D01*
G75*
G02*
X73885000Y-58917500I0J62500D01*
G01*
G37*
G36*
G01*
X74385000Y-58917500D02*
X74385000Y-58242500D01*
G75*
G02*
X74447500Y-58180000I62500J0D01*
G01*
X74572500Y-58180000D01*
G75*
G02*
X74635000Y-58242500I0J-62500D01*
G01*
X74635000Y-58917500D01*
G75*
G02*
X74572500Y-58980000I-62500J0D01*
G01*
X74447500Y-58980000D01*
G75*
G02*
X74385000Y-58917500I0J62500D01*
G01*
G37*
G36*
G01*
X74885000Y-58917500D02*
X74885000Y-58242500D01*
G75*
G02*
X74947500Y-58180000I62500J0D01*
G01*
X75072500Y-58180000D01*
G75*
G02*
X75135000Y-58242500I0J-62500D01*
G01*
X75135000Y-58917500D01*
G75*
G02*
X75072500Y-58980000I-62500J0D01*
G01*
X74947500Y-58980000D01*
G75*
G02*
X74885000Y-58917500I0J62500D01*
G01*
G37*
G36*
G01*
X75385000Y-58917500D02*
X75385000Y-58242500D01*
G75*
G02*
X75447500Y-58180000I62500J0D01*
G01*
X75572500Y-58180000D01*
G75*
G02*
X75635000Y-58242500I0J-62500D01*
G01*
X75635000Y-58917500D01*
G75*
G02*
X75572500Y-58980000I-62500J0D01*
G01*
X75447500Y-58980000D01*
G75*
G02*
X75385000Y-58917500I0J62500D01*
G01*
G37*
G36*
G01*
X75885000Y-58917500D02*
X75885000Y-58242500D01*
G75*
G02*
X75947500Y-58180000I62500J0D01*
G01*
X76072500Y-58180000D01*
G75*
G02*
X76135000Y-58242500I0J-62500D01*
G01*
X76135000Y-58917500D01*
G75*
G02*
X76072500Y-58980000I-62500J0D01*
G01*
X75947500Y-58980000D01*
G75*
G02*
X75885000Y-58917500I0J62500D01*
G01*
G37*
G36*
G01*
X76385000Y-58917500D02*
X76385000Y-58242500D01*
G75*
G02*
X76447500Y-58180000I62500J0D01*
G01*
X76572500Y-58180000D01*
G75*
G02*
X76635000Y-58242500I0J-62500D01*
G01*
X76635000Y-58917500D01*
G75*
G02*
X76572500Y-58980000I-62500J0D01*
G01*
X76447500Y-58980000D01*
G75*
G02*
X76385000Y-58917500I0J62500D01*
G01*
G37*
G36*
G01*
X76885000Y-58917500D02*
X76885000Y-58242500D01*
G75*
G02*
X76947500Y-58180000I62500J0D01*
G01*
X77072500Y-58180000D01*
G75*
G02*
X77135000Y-58242500I0J-62500D01*
G01*
X77135000Y-58917500D01*
G75*
G02*
X77072500Y-58980000I-62500J0D01*
G01*
X76947500Y-58980000D01*
G75*
G02*
X76885000Y-58917500I0J62500D01*
G01*
G37*
G36*
G01*
X77310000Y-59342500D02*
X77310000Y-59217500D01*
G75*
G02*
X77372500Y-59155000I62500J0D01*
G01*
X78047500Y-59155000D01*
G75*
G02*
X78110000Y-59217500I0J-62500D01*
G01*
X78110000Y-59342500D01*
G75*
G02*
X78047500Y-59405000I-62500J0D01*
G01*
X77372500Y-59405000D01*
G75*
G02*
X77310000Y-59342500I0J62500D01*
G01*
G37*
G36*
G01*
X77310000Y-59842500D02*
X77310000Y-59717500D01*
G75*
G02*
X77372500Y-59655000I62500J0D01*
G01*
X78047500Y-59655000D01*
G75*
G02*
X78110000Y-59717500I0J-62500D01*
G01*
X78110000Y-59842500D01*
G75*
G02*
X78047500Y-59905000I-62500J0D01*
G01*
X77372500Y-59905000D01*
G75*
G02*
X77310000Y-59842500I0J62500D01*
G01*
G37*
G36*
G01*
X77310000Y-60342500D02*
X77310000Y-60217500D01*
G75*
G02*
X77372500Y-60155000I62500J0D01*
G01*
X78047500Y-60155000D01*
G75*
G02*
X78110000Y-60217500I0J-62500D01*
G01*
X78110000Y-60342500D01*
G75*
G02*
X78047500Y-60405000I-62500J0D01*
G01*
X77372500Y-60405000D01*
G75*
G02*
X77310000Y-60342500I0J62500D01*
G01*
G37*
G36*
G01*
X77310000Y-60842500D02*
X77310000Y-60717500D01*
G75*
G02*
X77372500Y-60655000I62500J0D01*
G01*
X78047500Y-60655000D01*
G75*
G02*
X78110000Y-60717500I0J-62500D01*
G01*
X78110000Y-60842500D01*
G75*
G02*
X78047500Y-60905000I-62500J0D01*
G01*
X77372500Y-60905000D01*
G75*
G02*
X77310000Y-60842500I0J62500D01*
G01*
G37*
G36*
G01*
X77310000Y-61342500D02*
X77310000Y-61217500D01*
G75*
G02*
X77372500Y-61155000I62500J0D01*
G01*
X78047500Y-61155000D01*
G75*
G02*
X78110000Y-61217500I0J-62500D01*
G01*
X78110000Y-61342500D01*
G75*
G02*
X78047500Y-61405000I-62500J0D01*
G01*
X77372500Y-61405000D01*
G75*
G02*
X77310000Y-61342500I0J62500D01*
G01*
G37*
G36*
G01*
X77310000Y-61842500D02*
X77310000Y-61717500D01*
G75*
G02*
X77372500Y-61655000I62500J0D01*
G01*
X78047500Y-61655000D01*
G75*
G02*
X78110000Y-61717500I0J-62500D01*
G01*
X78110000Y-61842500D01*
G75*
G02*
X78047500Y-61905000I-62500J0D01*
G01*
X77372500Y-61905000D01*
G75*
G02*
X77310000Y-61842500I0J62500D01*
G01*
G37*
G36*
G01*
X77310000Y-62342500D02*
X77310000Y-62217500D01*
G75*
G02*
X77372500Y-62155000I62500J0D01*
G01*
X78047500Y-62155000D01*
G75*
G02*
X78110000Y-62217500I0J-62500D01*
G01*
X78110000Y-62342500D01*
G75*
G02*
X78047500Y-62405000I-62500J0D01*
G01*
X77372500Y-62405000D01*
G75*
G02*
X77310000Y-62342500I0J62500D01*
G01*
G37*
G36*
G01*
X77310000Y-62842500D02*
X77310000Y-62717500D01*
G75*
G02*
X77372500Y-62655000I62500J0D01*
G01*
X78047500Y-62655000D01*
G75*
G02*
X78110000Y-62717500I0J-62500D01*
G01*
X78110000Y-62842500D01*
G75*
G02*
X78047500Y-62905000I-62500J0D01*
G01*
X77372500Y-62905000D01*
G75*
G02*
X77310000Y-62842500I0J62500D01*
G01*
G37*
G36*
G01*
X76885000Y-63817500D02*
X76885000Y-63142500D01*
G75*
G02*
X76947500Y-63080000I62500J0D01*
G01*
X77072500Y-63080000D01*
G75*
G02*
X77135000Y-63142500I0J-62500D01*
G01*
X77135000Y-63817500D01*
G75*
G02*
X77072500Y-63880000I-62500J0D01*
G01*
X76947500Y-63880000D01*
G75*
G02*
X76885000Y-63817500I0J62500D01*
G01*
G37*
G36*
G01*
X76385000Y-63817500D02*
X76385000Y-63142500D01*
G75*
G02*
X76447500Y-63080000I62500J0D01*
G01*
X76572500Y-63080000D01*
G75*
G02*
X76635000Y-63142500I0J-62500D01*
G01*
X76635000Y-63817500D01*
G75*
G02*
X76572500Y-63880000I-62500J0D01*
G01*
X76447500Y-63880000D01*
G75*
G02*
X76385000Y-63817500I0J62500D01*
G01*
G37*
G36*
G01*
X75885000Y-63817500D02*
X75885000Y-63142500D01*
G75*
G02*
X75947500Y-63080000I62500J0D01*
G01*
X76072500Y-63080000D01*
G75*
G02*
X76135000Y-63142500I0J-62500D01*
G01*
X76135000Y-63817500D01*
G75*
G02*
X76072500Y-63880000I-62500J0D01*
G01*
X75947500Y-63880000D01*
G75*
G02*
X75885000Y-63817500I0J62500D01*
G01*
G37*
G36*
G01*
X75385000Y-63817500D02*
X75385000Y-63142500D01*
G75*
G02*
X75447500Y-63080000I62500J0D01*
G01*
X75572500Y-63080000D01*
G75*
G02*
X75635000Y-63142500I0J-62500D01*
G01*
X75635000Y-63817500D01*
G75*
G02*
X75572500Y-63880000I-62500J0D01*
G01*
X75447500Y-63880000D01*
G75*
G02*
X75385000Y-63817500I0J62500D01*
G01*
G37*
G36*
G01*
X74885000Y-63817500D02*
X74885000Y-63142500D01*
G75*
G02*
X74947500Y-63080000I62500J0D01*
G01*
X75072500Y-63080000D01*
G75*
G02*
X75135000Y-63142500I0J-62500D01*
G01*
X75135000Y-63817500D01*
G75*
G02*
X75072500Y-63880000I-62500J0D01*
G01*
X74947500Y-63880000D01*
G75*
G02*
X74885000Y-63817500I0J62500D01*
G01*
G37*
G36*
G01*
X74385000Y-63817500D02*
X74385000Y-63142500D01*
G75*
G02*
X74447500Y-63080000I62500J0D01*
G01*
X74572500Y-63080000D01*
G75*
G02*
X74635000Y-63142500I0J-62500D01*
G01*
X74635000Y-63817500D01*
G75*
G02*
X74572500Y-63880000I-62500J0D01*
G01*
X74447500Y-63880000D01*
G75*
G02*
X74385000Y-63817500I0J62500D01*
G01*
G37*
G36*
G01*
X73885000Y-63817500D02*
X73885000Y-63142500D01*
G75*
G02*
X73947500Y-63080000I62500J0D01*
G01*
X74072500Y-63080000D01*
G75*
G02*
X74135000Y-63142500I0J-62500D01*
G01*
X74135000Y-63817500D01*
G75*
G02*
X74072500Y-63880000I-62500J0D01*
G01*
X73947500Y-63880000D01*
G75*
G02*
X73885000Y-63817500I0J62500D01*
G01*
G37*
G36*
G01*
X73385000Y-63817500D02*
X73385000Y-63142500D01*
G75*
G02*
X73447500Y-63080000I62500J0D01*
G01*
X73572500Y-63080000D01*
G75*
G02*
X73635000Y-63142500I0J-62500D01*
G01*
X73635000Y-63817500D01*
G75*
G02*
X73572500Y-63880000I-62500J0D01*
G01*
X73447500Y-63880000D01*
G75*
G02*
X73385000Y-63817500I0J62500D01*
G01*
G37*
G36*
G01*
X72410000Y-62842500D02*
X72410000Y-62717500D01*
G75*
G02*
X72472500Y-62655000I62500J0D01*
G01*
X73147500Y-62655000D01*
G75*
G02*
X73210000Y-62717500I0J-62500D01*
G01*
X73210000Y-62842500D01*
G75*
G02*
X73147500Y-62905000I-62500J0D01*
G01*
X72472500Y-62905000D01*
G75*
G02*
X72410000Y-62842500I0J62500D01*
G01*
G37*
G36*
G01*
X72410000Y-62342500D02*
X72410000Y-62217500D01*
G75*
G02*
X72472500Y-62155000I62500J0D01*
G01*
X73147500Y-62155000D01*
G75*
G02*
X73210000Y-62217500I0J-62500D01*
G01*
X73210000Y-62342500D01*
G75*
G02*
X73147500Y-62405000I-62500J0D01*
G01*
X72472500Y-62405000D01*
G75*
G02*
X72410000Y-62342500I0J62500D01*
G01*
G37*
G36*
G01*
X72410000Y-61842500D02*
X72410000Y-61717500D01*
G75*
G02*
X72472500Y-61655000I62500J0D01*
G01*
X73147500Y-61655000D01*
G75*
G02*
X73210000Y-61717500I0J-62500D01*
G01*
X73210000Y-61842500D01*
G75*
G02*
X73147500Y-61905000I-62500J0D01*
G01*
X72472500Y-61905000D01*
G75*
G02*
X72410000Y-61842500I0J62500D01*
G01*
G37*
G36*
G01*
X72410000Y-61342500D02*
X72410000Y-61217500D01*
G75*
G02*
X72472500Y-61155000I62500J0D01*
G01*
X73147500Y-61155000D01*
G75*
G02*
X73210000Y-61217500I0J-62500D01*
G01*
X73210000Y-61342500D01*
G75*
G02*
X73147500Y-61405000I-62500J0D01*
G01*
X72472500Y-61405000D01*
G75*
G02*
X72410000Y-61342500I0J62500D01*
G01*
G37*
G36*
G01*
X72410000Y-60842500D02*
X72410000Y-60717500D01*
G75*
G02*
X72472500Y-60655000I62500J0D01*
G01*
X73147500Y-60655000D01*
G75*
G02*
X73210000Y-60717500I0J-62500D01*
G01*
X73210000Y-60842500D01*
G75*
G02*
X73147500Y-60905000I-62500J0D01*
G01*
X72472500Y-60905000D01*
G75*
G02*
X72410000Y-60842500I0J62500D01*
G01*
G37*
G36*
G01*
X72410000Y-60342500D02*
X72410000Y-60217500D01*
G75*
G02*
X72472500Y-60155000I62500J0D01*
G01*
X73147500Y-60155000D01*
G75*
G02*
X73210000Y-60217500I0J-62500D01*
G01*
X73210000Y-60342500D01*
G75*
G02*
X73147500Y-60405000I-62500J0D01*
G01*
X72472500Y-60405000D01*
G75*
G02*
X72410000Y-60342500I0J62500D01*
G01*
G37*
G36*
G01*
X72410000Y-59842500D02*
X72410000Y-59717500D01*
G75*
G02*
X72472500Y-59655000I62500J0D01*
G01*
X73147500Y-59655000D01*
G75*
G02*
X73210000Y-59717500I0J-62500D01*
G01*
X73210000Y-59842500D01*
G75*
G02*
X73147500Y-59905000I-62500J0D01*
G01*
X72472500Y-59905000D01*
G75*
G02*
X72410000Y-59842500I0J62500D01*
G01*
G37*
G36*
G01*
X72410000Y-59342500D02*
X72410000Y-59217500D01*
G75*
G02*
X72472500Y-59155000I62500J0D01*
G01*
X73147500Y-59155000D01*
G75*
G02*
X73210000Y-59217500I0J-62500D01*
G01*
X73210000Y-59342500D01*
G75*
G02*
X73147500Y-59405000I-62500J0D01*
G01*
X72472500Y-59405000D01*
G75*
G02*
X72410000Y-59342500I0J62500D01*
G01*
G37*
G36*
G01*
X149573750Y-54860000D02*
X150086250Y-54860000D01*
G75*
G02*
X150305000Y-55078750I0J-218750D01*
G01*
X150305000Y-55516250D01*
G75*
G02*
X150086250Y-55735000I-218750J0D01*
G01*
X149573750Y-55735000D01*
G75*
G02*
X149355000Y-55516250I0J218750D01*
G01*
X149355000Y-55078750D01*
G75*
G02*
X149573750Y-54860000I218750J0D01*
G01*
G37*
G36*
G01*
X149573750Y-53285000D02*
X150086250Y-53285000D01*
G75*
G02*
X150305000Y-53503750I0J-218750D01*
G01*
X150305000Y-53941250D01*
G75*
G02*
X150086250Y-54160000I-218750J0D01*
G01*
X149573750Y-54160000D01*
G75*
G02*
X149355000Y-53941250I0J218750D01*
G01*
X149355000Y-53503750D01*
G75*
G02*
X149573750Y-53285000I218750J0D01*
G01*
G37*
G36*
G01*
X58880000Y-65036250D02*
X58880000Y-64123750D01*
G75*
G02*
X59123750Y-63880000I243750J0D01*
G01*
X59611250Y-63880000D01*
G75*
G02*
X59855000Y-64123750I0J-243750D01*
G01*
X59855000Y-65036250D01*
G75*
G02*
X59611250Y-65280000I-243750J0D01*
G01*
X59123750Y-65280000D01*
G75*
G02*
X58880000Y-65036250I0J243750D01*
G01*
G37*
G36*
G01*
X57005000Y-65036250D02*
X57005000Y-64123750D01*
G75*
G02*
X57248750Y-63880000I243750J0D01*
G01*
X57736250Y-63880000D01*
G75*
G02*
X57980000Y-64123750I0J-243750D01*
G01*
X57980000Y-65036250D01*
G75*
G02*
X57736250Y-65280000I-243750J0D01*
G01*
X57248750Y-65280000D01*
G75*
G02*
X57005000Y-65036250I0J243750D01*
G01*
G37*
G36*
G01*
X176645000Y-70865000D02*
X174495000Y-70865000D01*
G75*
G02*
X174245000Y-70615000I0J250000D01*
G01*
X174245000Y-69865000D01*
G75*
G02*
X174495000Y-69615000I250000J0D01*
G01*
X176645000Y-69615000D01*
G75*
G02*
X176895000Y-69865000I0J-250000D01*
G01*
X176895000Y-70615000D01*
G75*
G02*
X176645000Y-70865000I-250000J0D01*
G01*
G37*
G36*
G01*
X176645000Y-73665000D02*
X174495000Y-73665000D01*
G75*
G02*
X174245000Y-73415000I0J250000D01*
G01*
X174245000Y-72665000D01*
G75*
G02*
X174495000Y-72415000I250000J0D01*
G01*
X176645000Y-72415000D01*
G75*
G02*
X176895000Y-72665000I0J-250000D01*
G01*
X176895000Y-73415000D01*
G75*
G02*
X176645000Y-73665000I-250000J0D01*
G01*
G37*
D12*
X174060000Y-49850000D03*
X174060000Y-54150000D03*
G36*
G01*
X84995000Y-71570000D02*
X85745000Y-71570000D01*
G75*
G02*
X85975000Y-71800000I0J-230000D01*
G01*
X85975000Y-72260000D01*
G75*
G02*
X85745000Y-72490000I-230000J0D01*
G01*
X84995000Y-72490000D01*
G75*
G02*
X84765000Y-72260000I0J230000D01*
G01*
X84765000Y-71800000D01*
G75*
G02*
X84995000Y-71570000I230000J0D01*
G01*
G37*
G36*
G01*
X86495000Y-71570000D02*
X87245000Y-71570000D01*
G75*
G02*
X87475000Y-71800000I0J-230000D01*
G01*
X87475000Y-72260000D01*
G75*
G02*
X87245000Y-72490000I-230000J0D01*
G01*
X86495000Y-72490000D01*
G75*
G02*
X86265000Y-72260000I0J230000D01*
G01*
X86265000Y-71800000D01*
G75*
G02*
X86495000Y-71570000I230000J0D01*
G01*
G37*
G36*
G01*
X84995000Y-70430000D02*
X85745000Y-70430000D01*
G75*
G02*
X85975000Y-70660000I0J-230000D01*
G01*
X85975000Y-71120000D01*
G75*
G02*
X85745000Y-71350000I-230000J0D01*
G01*
X84995000Y-71350000D01*
G75*
G02*
X84765000Y-71120000I0J230000D01*
G01*
X84765000Y-70660000D01*
G75*
G02*
X84995000Y-70430000I230000J0D01*
G01*
G37*
G36*
G01*
X86495000Y-70430000D02*
X87245000Y-70430000D01*
G75*
G02*
X87475000Y-70660000I0J-230000D01*
G01*
X87475000Y-71120000D01*
G75*
G02*
X87245000Y-71350000I-230000J0D01*
G01*
X86495000Y-71350000D01*
G75*
G02*
X86265000Y-71120000I0J230000D01*
G01*
X86265000Y-70660000D01*
G75*
G02*
X86495000Y-70430000I230000J0D01*
G01*
G37*
G36*
G01*
X87875000Y-72960000D02*
X88175000Y-72960000D01*
G75*
G02*
X88325000Y-73110000I0J-150000D01*
G01*
X88325000Y-74760000D01*
G75*
G02*
X88175000Y-74910000I-150000J0D01*
G01*
X87875000Y-74910000D01*
G75*
G02*
X87725000Y-74760000I0J150000D01*
G01*
X87725000Y-73110000D01*
G75*
G02*
X87875000Y-72960000I150000J0D01*
G01*
G37*
G36*
G01*
X86605000Y-72960000D02*
X86905000Y-72960000D01*
G75*
G02*
X87055000Y-73110000I0J-150000D01*
G01*
X87055000Y-74760000D01*
G75*
G02*
X86905000Y-74910000I-150000J0D01*
G01*
X86605000Y-74910000D01*
G75*
G02*
X86455000Y-74760000I0J150000D01*
G01*
X86455000Y-73110000D01*
G75*
G02*
X86605000Y-72960000I150000J0D01*
G01*
G37*
G36*
G01*
X85335000Y-72960000D02*
X85635000Y-72960000D01*
G75*
G02*
X85785000Y-73110000I0J-150000D01*
G01*
X85785000Y-74760000D01*
G75*
G02*
X85635000Y-74910000I-150000J0D01*
G01*
X85335000Y-74910000D01*
G75*
G02*
X85185000Y-74760000I0J150000D01*
G01*
X85185000Y-73110000D01*
G75*
G02*
X85335000Y-72960000I150000J0D01*
G01*
G37*
G36*
G01*
X84065000Y-72960000D02*
X84365000Y-72960000D01*
G75*
G02*
X84515000Y-73110000I0J-150000D01*
G01*
X84515000Y-74760000D01*
G75*
G02*
X84365000Y-74910000I-150000J0D01*
G01*
X84065000Y-74910000D01*
G75*
G02*
X83915000Y-74760000I0J150000D01*
G01*
X83915000Y-73110000D01*
G75*
G02*
X84065000Y-72960000I150000J0D01*
G01*
G37*
G36*
G01*
X84065000Y-68010000D02*
X84365000Y-68010000D01*
G75*
G02*
X84515000Y-68160000I0J-150000D01*
G01*
X84515000Y-69810000D01*
G75*
G02*
X84365000Y-69960000I-150000J0D01*
G01*
X84065000Y-69960000D01*
G75*
G02*
X83915000Y-69810000I0J150000D01*
G01*
X83915000Y-68160000D01*
G75*
G02*
X84065000Y-68010000I150000J0D01*
G01*
G37*
G36*
G01*
X85335000Y-68010000D02*
X85635000Y-68010000D01*
G75*
G02*
X85785000Y-68160000I0J-150000D01*
G01*
X85785000Y-69810000D01*
G75*
G02*
X85635000Y-69960000I-150000J0D01*
G01*
X85335000Y-69960000D01*
G75*
G02*
X85185000Y-69810000I0J150000D01*
G01*
X85185000Y-68160000D01*
G75*
G02*
X85335000Y-68010000I150000J0D01*
G01*
G37*
G36*
G01*
X86605000Y-68010000D02*
X86905000Y-68010000D01*
G75*
G02*
X87055000Y-68160000I0J-150000D01*
G01*
X87055000Y-69810000D01*
G75*
G02*
X86905000Y-69960000I-150000J0D01*
G01*
X86605000Y-69960000D01*
G75*
G02*
X86455000Y-69810000I0J150000D01*
G01*
X86455000Y-68160000D01*
G75*
G02*
X86605000Y-68010000I150000J0D01*
G01*
G37*
G36*
G01*
X87875000Y-68010000D02*
X88175000Y-68010000D01*
G75*
G02*
X88325000Y-68160000I0J-150000D01*
G01*
X88325000Y-69810000D01*
G75*
G02*
X88175000Y-69960000I-150000J0D01*
G01*
X87875000Y-69960000D01*
G75*
G02*
X87725000Y-69810000I0J150000D01*
G01*
X87725000Y-68160000D01*
G75*
G02*
X87875000Y-68010000I150000J0D01*
G01*
G37*
G36*
G01*
X168405000Y-54785000D02*
X170555000Y-54785000D01*
G75*
G02*
X170805000Y-55035000I0J-250000D01*
G01*
X170805000Y-55785000D01*
G75*
G02*
X170555000Y-56035000I-250000J0D01*
G01*
X168405000Y-56035000D01*
G75*
G02*
X168155000Y-55785000I0J250000D01*
G01*
X168155000Y-55035000D01*
G75*
G02*
X168405000Y-54785000I250000J0D01*
G01*
G37*
G36*
G01*
X168405000Y-51985000D02*
X170555000Y-51985000D01*
G75*
G02*
X170805000Y-52235000I0J-250000D01*
G01*
X170805000Y-52985000D01*
G75*
G02*
X170555000Y-53235000I-250000J0D01*
G01*
X168405000Y-53235000D01*
G75*
G02*
X168155000Y-52985000I0J250000D01*
G01*
X168155000Y-52235000D01*
G75*
G02*
X168405000Y-51985000I250000J0D01*
G01*
G37*
G36*
G01*
X164935000Y-54785000D02*
X167085000Y-54785000D01*
G75*
G02*
X167335000Y-55035000I0J-250000D01*
G01*
X167335000Y-55785000D01*
G75*
G02*
X167085000Y-56035000I-250000J0D01*
G01*
X164935000Y-56035000D01*
G75*
G02*
X164685000Y-55785000I0J250000D01*
G01*
X164685000Y-55035000D01*
G75*
G02*
X164935000Y-54785000I250000J0D01*
G01*
G37*
G36*
G01*
X164935000Y-51985000D02*
X167085000Y-51985000D01*
G75*
G02*
X167335000Y-52235000I0J-250000D01*
G01*
X167335000Y-52985000D01*
G75*
G02*
X167085000Y-53235000I-250000J0D01*
G01*
X164935000Y-53235000D01*
G75*
G02*
X164685000Y-52985000I0J250000D01*
G01*
X164685000Y-52235000D01*
G75*
G02*
X164935000Y-51985000I250000J0D01*
G01*
G37*
G36*
G01*
X162663750Y-54260000D02*
X163176250Y-54260000D01*
G75*
G02*
X163395000Y-54478750I0J-218750D01*
G01*
X163395000Y-54916250D01*
G75*
G02*
X163176250Y-55135000I-218750J0D01*
G01*
X162663750Y-55135000D01*
G75*
G02*
X162445000Y-54916250I0J218750D01*
G01*
X162445000Y-54478750D01*
G75*
G02*
X162663750Y-54260000I218750J0D01*
G01*
G37*
G36*
G01*
X162663750Y-52685000D02*
X163176250Y-52685000D01*
G75*
G02*
X163395000Y-52903750I0J-218750D01*
G01*
X163395000Y-53341250D01*
G75*
G02*
X163176250Y-53560000I-218750J0D01*
G01*
X162663750Y-53560000D01*
G75*
G02*
X162445000Y-53341250I0J218750D01*
G01*
X162445000Y-52903750D01*
G75*
G02*
X162663750Y-52685000I218750J0D01*
G01*
G37*
G36*
G01*
X157384000Y-51305750D02*
X157384000Y-51818250D01*
G75*
G02*
X157165250Y-52037000I-218750J0D01*
G01*
X156727750Y-52037000D01*
G75*
G02*
X156509000Y-51818250I0J218750D01*
G01*
X156509000Y-51305750D01*
G75*
G02*
X156727750Y-51087000I218750J0D01*
G01*
X157165250Y-51087000D01*
G75*
G02*
X157384000Y-51305750I0J-218750D01*
G01*
G37*
G36*
G01*
X158959000Y-51305750D02*
X158959000Y-51818250D01*
G75*
G02*
X158740250Y-52037000I-218750J0D01*
G01*
X158302750Y-52037000D01*
G75*
G02*
X158084000Y-51818250I0J218750D01*
G01*
X158084000Y-51305750D01*
G75*
G02*
X158302750Y-51087000I218750J0D01*
G01*
X158740250Y-51087000D01*
G75*
G02*
X158959000Y-51305750I0J-218750D01*
G01*
G37*
G36*
G01*
X172550000Y-70296250D02*
X172550000Y-69783750D01*
G75*
G02*
X172768750Y-69565000I218750J0D01*
G01*
X173206250Y-69565000D01*
G75*
G02*
X173425000Y-69783750I0J-218750D01*
G01*
X173425000Y-70296250D01*
G75*
G02*
X173206250Y-70515000I-218750J0D01*
G01*
X172768750Y-70515000D01*
G75*
G02*
X172550000Y-70296250I0J218750D01*
G01*
G37*
G36*
G01*
X170975000Y-70296250D02*
X170975000Y-69783750D01*
G75*
G02*
X171193750Y-69565000I218750J0D01*
G01*
X171631250Y-69565000D01*
G75*
G02*
X171850000Y-69783750I0J-218750D01*
G01*
X171850000Y-70296250D01*
G75*
G02*
X171631250Y-70515000I-218750J0D01*
G01*
X171193750Y-70515000D01*
G75*
G02*
X170975000Y-70296250I0J218750D01*
G01*
G37*
G36*
G01*
X159763750Y-70708000D02*
X160276250Y-70708000D01*
G75*
G02*
X160495000Y-70926750I0J-218750D01*
G01*
X160495000Y-71364250D01*
G75*
G02*
X160276250Y-71583000I-218750J0D01*
G01*
X159763750Y-71583000D01*
G75*
G02*
X159545000Y-71364250I0J218750D01*
G01*
X159545000Y-70926750D01*
G75*
G02*
X159763750Y-70708000I218750J0D01*
G01*
G37*
G36*
G01*
X159763750Y-69133000D02*
X160276250Y-69133000D01*
G75*
G02*
X160495000Y-69351750I0J-218750D01*
G01*
X160495000Y-69789250D01*
G75*
G02*
X160276250Y-70008000I-218750J0D01*
G01*
X159763750Y-70008000D01*
G75*
G02*
X159545000Y-69789250I0J218750D01*
G01*
X159545000Y-69351750D01*
G75*
G02*
X159763750Y-69133000I218750J0D01*
G01*
G37*
G36*
G01*
X169975000Y-63005000D02*
X169975000Y-60855000D01*
G75*
G02*
X170225000Y-60605000I250000J0D01*
G01*
X170975000Y-60605000D01*
G75*
G02*
X171225000Y-60855000I0J-250000D01*
G01*
X171225000Y-63005000D01*
G75*
G02*
X170975000Y-63255000I-250000J0D01*
G01*
X170225000Y-63255000D01*
G75*
G02*
X169975000Y-63005000I0J250000D01*
G01*
G37*
G36*
G01*
X167175000Y-63005000D02*
X167175000Y-60855000D01*
G75*
G02*
X167425000Y-60605000I250000J0D01*
G01*
X168175000Y-60605000D01*
G75*
G02*
X168425000Y-60855000I0J-250000D01*
G01*
X168425000Y-63005000D01*
G75*
G02*
X168175000Y-63255000I-250000J0D01*
G01*
X167425000Y-63255000D01*
G75*
G02*
X167175000Y-63005000I0J250000D01*
G01*
G37*
G36*
G01*
X43616250Y-95100000D02*
X43103750Y-95100000D01*
G75*
G02*
X42885000Y-94881250I0J218750D01*
G01*
X42885000Y-94443750D01*
G75*
G02*
X43103750Y-94225000I218750J0D01*
G01*
X43616250Y-94225000D01*
G75*
G02*
X43835000Y-94443750I0J-218750D01*
G01*
X43835000Y-94881250D01*
G75*
G02*
X43616250Y-95100000I-218750J0D01*
G01*
G37*
G36*
G01*
X43616250Y-96675000D02*
X43103750Y-96675000D01*
G75*
G02*
X42885000Y-96456250I0J218750D01*
G01*
X42885000Y-96018750D01*
G75*
G02*
X43103750Y-95800000I218750J0D01*
G01*
X43616250Y-95800000D01*
G75*
G02*
X43835000Y-96018750I0J-218750D01*
G01*
X43835000Y-96456250D01*
G75*
G02*
X43616250Y-96675000I-218750J0D01*
G01*
G37*
G36*
G01*
X123595000Y-84515000D02*
X125745000Y-84515000D01*
G75*
G02*
X125995000Y-84765000I0J-250000D01*
G01*
X125995000Y-85515000D01*
G75*
G02*
X125745000Y-85765000I-250000J0D01*
G01*
X123595000Y-85765000D01*
G75*
G02*
X123345000Y-85515000I0J250000D01*
G01*
X123345000Y-84765000D01*
G75*
G02*
X123595000Y-84515000I250000J0D01*
G01*
G37*
G36*
G01*
X123595000Y-81715000D02*
X125745000Y-81715000D01*
G75*
G02*
X125995000Y-81965000I0J-250000D01*
G01*
X125995000Y-82715000D01*
G75*
G02*
X125745000Y-82965000I-250000J0D01*
G01*
X123595000Y-82965000D01*
G75*
G02*
X123345000Y-82715000I0J250000D01*
G01*
X123345000Y-81965000D01*
G75*
G02*
X123595000Y-81715000I250000J0D01*
G01*
G37*
G36*
G01*
X127463750Y-84680000D02*
X127976250Y-84680000D01*
G75*
G02*
X128195000Y-84898750I0J-218750D01*
G01*
X128195000Y-85336250D01*
G75*
G02*
X127976250Y-85555000I-218750J0D01*
G01*
X127463750Y-85555000D01*
G75*
G02*
X127245000Y-85336250I0J218750D01*
G01*
X127245000Y-84898750D01*
G75*
G02*
X127463750Y-84680000I218750J0D01*
G01*
G37*
G36*
G01*
X127463750Y-83105000D02*
X127976250Y-83105000D01*
G75*
G02*
X128195000Y-83323750I0J-218750D01*
G01*
X128195000Y-83761250D01*
G75*
G02*
X127976250Y-83980000I-218750J0D01*
G01*
X127463750Y-83980000D01*
G75*
G02*
X127245000Y-83761250I0J218750D01*
G01*
X127245000Y-83323750D01*
G75*
G02*
X127463750Y-83105000I218750J0D01*
G01*
G37*
G36*
G01*
X95700000Y-61666250D02*
X95700000Y-61153750D01*
G75*
G02*
X95918750Y-60935000I218750J0D01*
G01*
X96356250Y-60935000D01*
G75*
G02*
X96575000Y-61153750I0J-218750D01*
G01*
X96575000Y-61666250D01*
G75*
G02*
X96356250Y-61885000I-218750J0D01*
G01*
X95918750Y-61885000D01*
G75*
G02*
X95700000Y-61666250I0J218750D01*
G01*
G37*
G36*
G01*
X94125000Y-61666250D02*
X94125000Y-61153750D01*
G75*
G02*
X94343750Y-60935000I218750J0D01*
G01*
X94781250Y-60935000D01*
G75*
G02*
X95000000Y-61153750I0J-218750D01*
G01*
X95000000Y-61666250D01*
G75*
G02*
X94781250Y-61885000I-218750J0D01*
G01*
X94343750Y-61885000D01*
G75*
G02*
X94125000Y-61666250I0J218750D01*
G01*
G37*
G36*
G01*
X77467750Y-53102500D02*
X77980250Y-53102500D01*
G75*
G02*
X78199000Y-53321250I0J-218750D01*
G01*
X78199000Y-53758750D01*
G75*
G02*
X77980250Y-53977500I-218750J0D01*
G01*
X77467750Y-53977500D01*
G75*
G02*
X77249000Y-53758750I0J218750D01*
G01*
X77249000Y-53321250D01*
G75*
G02*
X77467750Y-53102500I218750J0D01*
G01*
G37*
G36*
G01*
X77467750Y-51527500D02*
X77980250Y-51527500D01*
G75*
G02*
X78199000Y-51746250I0J-218750D01*
G01*
X78199000Y-52183750D01*
G75*
G02*
X77980250Y-52402500I-218750J0D01*
G01*
X77467750Y-52402500D01*
G75*
G02*
X77249000Y-52183750I0J218750D01*
G01*
X77249000Y-51746250D01*
G75*
G02*
X77467750Y-51527500I218750J0D01*
G01*
G37*
G36*
G01*
X72306250Y-53560000D02*
X71793750Y-53560000D01*
G75*
G02*
X71575000Y-53341250I0J218750D01*
G01*
X71575000Y-52903750D01*
G75*
G02*
X71793750Y-52685000I218750J0D01*
G01*
X72306250Y-52685000D01*
G75*
G02*
X72525000Y-52903750I0J-218750D01*
G01*
X72525000Y-53341250D01*
G75*
G02*
X72306250Y-53560000I-218750J0D01*
G01*
G37*
G36*
G01*
X72306250Y-55135000D02*
X71793750Y-55135000D01*
G75*
G02*
X71575000Y-54916250I0J218750D01*
G01*
X71575000Y-54478750D01*
G75*
G02*
X71793750Y-54260000I218750J0D01*
G01*
X72306250Y-54260000D01*
G75*
G02*
X72525000Y-54478750I0J-218750D01*
G01*
X72525000Y-54916250D01*
G75*
G02*
X72306250Y-55135000I-218750J0D01*
G01*
G37*
G36*
G01*
X83568250Y-55784000D02*
X83055750Y-55784000D01*
G75*
G02*
X82837000Y-55565250I0J218750D01*
G01*
X82837000Y-55127750D01*
G75*
G02*
X83055750Y-54909000I218750J0D01*
G01*
X83568250Y-54909000D01*
G75*
G02*
X83787000Y-55127750I0J-218750D01*
G01*
X83787000Y-55565250D01*
G75*
G02*
X83568250Y-55784000I-218750J0D01*
G01*
G37*
G36*
G01*
X83568250Y-57359000D02*
X83055750Y-57359000D01*
G75*
G02*
X82837000Y-57140250I0J218750D01*
G01*
X82837000Y-56702750D01*
G75*
G02*
X83055750Y-56484000I218750J0D01*
G01*
X83568250Y-56484000D01*
G75*
G02*
X83787000Y-56702750I0J-218750D01*
G01*
X83787000Y-57140250D01*
G75*
G02*
X83568250Y-57359000I-218750J0D01*
G01*
G37*
G36*
G01*
X140913750Y-58710000D02*
X141426250Y-58710000D01*
G75*
G02*
X141645000Y-58928750I0J-218750D01*
G01*
X141645000Y-59366250D01*
G75*
G02*
X141426250Y-59585000I-218750J0D01*
G01*
X140913750Y-59585000D01*
G75*
G02*
X140695000Y-59366250I0J218750D01*
G01*
X140695000Y-58928750D01*
G75*
G02*
X140913750Y-58710000I218750J0D01*
G01*
G37*
G36*
G01*
X140913750Y-57135000D02*
X141426250Y-57135000D01*
G75*
G02*
X141645000Y-57353750I0J-218750D01*
G01*
X141645000Y-57791250D01*
G75*
G02*
X141426250Y-58010000I-218750J0D01*
G01*
X140913750Y-58010000D01*
G75*
G02*
X140695000Y-57791250I0J218750D01*
G01*
X140695000Y-57353750D01*
G75*
G02*
X140913750Y-57135000I218750J0D01*
G01*
G37*
G36*
G01*
X146533750Y-58340000D02*
X147046250Y-58340000D01*
G75*
G02*
X147265000Y-58558750I0J-218750D01*
G01*
X147265000Y-58996250D01*
G75*
G02*
X147046250Y-59215000I-218750J0D01*
G01*
X146533750Y-59215000D01*
G75*
G02*
X146315000Y-58996250I0J218750D01*
G01*
X146315000Y-58558750D01*
G75*
G02*
X146533750Y-58340000I218750J0D01*
G01*
G37*
G36*
G01*
X146533750Y-56765000D02*
X147046250Y-56765000D01*
G75*
G02*
X147265000Y-56983750I0J-218750D01*
G01*
X147265000Y-57421250D01*
G75*
G02*
X147046250Y-57640000I-218750J0D01*
G01*
X146533750Y-57640000D01*
G75*
G02*
X146315000Y-57421250I0J218750D01*
G01*
X146315000Y-56983750D01*
G75*
G02*
X146533750Y-56765000I218750J0D01*
G01*
G37*
G36*
G01*
X145980000Y-62304250D02*
X145980000Y-61791750D01*
G75*
G02*
X146198750Y-61573000I218750J0D01*
G01*
X146636250Y-61573000D01*
G75*
G02*
X146855000Y-61791750I0J-218750D01*
G01*
X146855000Y-62304250D01*
G75*
G02*
X146636250Y-62523000I-218750J0D01*
G01*
X146198750Y-62523000D01*
G75*
G02*
X145980000Y-62304250I0J218750D01*
G01*
G37*
G36*
G01*
X144405000Y-62304250D02*
X144405000Y-61791750D01*
G75*
G02*
X144623750Y-61573000I218750J0D01*
G01*
X145061250Y-61573000D01*
G75*
G02*
X145280000Y-61791750I0J-218750D01*
G01*
X145280000Y-62304250D01*
G75*
G02*
X145061250Y-62523000I-218750J0D01*
G01*
X144623750Y-62523000D01*
G75*
G02*
X144405000Y-62304250I0J218750D01*
G01*
G37*
G36*
G01*
X133375000Y-61643000D02*
X133375000Y-63793000D01*
G75*
G02*
X133125000Y-64043000I-250000J0D01*
G01*
X132375000Y-64043000D01*
G75*
G02*
X132125000Y-63793000I0J250000D01*
G01*
X132125000Y-61643000D01*
G75*
G02*
X132375000Y-61393000I250000J0D01*
G01*
X133125000Y-61393000D01*
G75*
G02*
X133375000Y-61643000I0J-250000D01*
G01*
G37*
G36*
G01*
X136175000Y-61643000D02*
X136175000Y-63793000D01*
G75*
G02*
X135925000Y-64043000I-250000J0D01*
G01*
X135175000Y-64043000D01*
G75*
G02*
X134925000Y-63793000I0J250000D01*
G01*
X134925000Y-61643000D01*
G75*
G02*
X135175000Y-61393000I250000J0D01*
G01*
X135925000Y-61393000D01*
G75*
G02*
X136175000Y-61643000I0J-250000D01*
G01*
G37*
G36*
G01*
X146010000Y-63884250D02*
X146010000Y-63371750D01*
G75*
G02*
X146228750Y-63153000I218750J0D01*
G01*
X146666250Y-63153000D01*
G75*
G02*
X146885000Y-63371750I0J-218750D01*
G01*
X146885000Y-63884250D01*
G75*
G02*
X146666250Y-64103000I-218750J0D01*
G01*
X146228750Y-64103000D01*
G75*
G02*
X146010000Y-63884250I0J218750D01*
G01*
G37*
G36*
G01*
X144435000Y-63884250D02*
X144435000Y-63371750D01*
G75*
G02*
X144653750Y-63153000I218750J0D01*
G01*
X145091250Y-63153000D01*
G75*
G02*
X145310000Y-63371750I0J-218750D01*
G01*
X145310000Y-63884250D01*
G75*
G02*
X145091250Y-64103000I-218750J0D01*
G01*
X144653750Y-64103000D01*
G75*
G02*
X144435000Y-63884250I0J218750D01*
G01*
G37*
G36*
G01*
X145370000Y-66171750D02*
X145370000Y-66684250D01*
G75*
G02*
X145151250Y-66903000I-218750J0D01*
G01*
X144713750Y-66903000D01*
G75*
G02*
X144495000Y-66684250I0J218750D01*
G01*
X144495000Y-66171750D01*
G75*
G02*
X144713750Y-65953000I218750J0D01*
G01*
X145151250Y-65953000D01*
G75*
G02*
X145370000Y-66171750I0J-218750D01*
G01*
G37*
G36*
G01*
X146945000Y-66171750D02*
X146945000Y-66684250D01*
G75*
G02*
X146726250Y-66903000I-218750J0D01*
G01*
X146288750Y-66903000D01*
G75*
G02*
X146070000Y-66684250I0J218750D01*
G01*
X146070000Y-66171750D01*
G75*
G02*
X146288750Y-65953000I218750J0D01*
G01*
X146726250Y-65953000D01*
G75*
G02*
X146945000Y-66171750I0J-218750D01*
G01*
G37*
G36*
G01*
X130956250Y-62548000D02*
X130443750Y-62548000D01*
G75*
G02*
X130225000Y-62329250I0J218750D01*
G01*
X130225000Y-61891750D01*
G75*
G02*
X130443750Y-61673000I218750J0D01*
G01*
X130956250Y-61673000D01*
G75*
G02*
X131175000Y-61891750I0J-218750D01*
G01*
X131175000Y-62329250D01*
G75*
G02*
X130956250Y-62548000I-218750J0D01*
G01*
G37*
G36*
G01*
X130956250Y-64123000D02*
X130443750Y-64123000D01*
G75*
G02*
X130225000Y-63904250I0J218750D01*
G01*
X130225000Y-63466750D01*
G75*
G02*
X130443750Y-63248000I218750J0D01*
G01*
X130956250Y-63248000D01*
G75*
G02*
X131175000Y-63466750I0J-218750D01*
G01*
X131175000Y-63904250D01*
G75*
G02*
X130956250Y-64123000I-218750J0D01*
G01*
G37*
G36*
G01*
X143922000Y-58163750D02*
X143922000Y-58676250D01*
G75*
G02*
X143703250Y-58895000I-218750J0D01*
G01*
X143265750Y-58895000D01*
G75*
G02*
X143047000Y-58676250I0J218750D01*
G01*
X143047000Y-58163750D01*
G75*
G02*
X143265750Y-57945000I218750J0D01*
G01*
X143703250Y-57945000D01*
G75*
G02*
X143922000Y-58163750I0J-218750D01*
G01*
G37*
G36*
G01*
X145497000Y-58163750D02*
X145497000Y-58676250D01*
G75*
G02*
X145278250Y-58895000I-218750J0D01*
G01*
X144840750Y-58895000D01*
G75*
G02*
X144622000Y-58676250I0J218750D01*
G01*
X144622000Y-58163750D01*
G75*
G02*
X144840750Y-57945000I218750J0D01*
G01*
X145278250Y-57945000D01*
G75*
G02*
X145497000Y-58163750I0J-218750D01*
G01*
G37*
G36*
G01*
X142596250Y-70548000D02*
X142083750Y-70548000D01*
G75*
G02*
X141865000Y-70329250I0J218750D01*
G01*
X141865000Y-69891750D01*
G75*
G02*
X142083750Y-69673000I218750J0D01*
G01*
X142596250Y-69673000D01*
G75*
G02*
X142815000Y-69891750I0J-218750D01*
G01*
X142815000Y-70329250D01*
G75*
G02*
X142596250Y-70548000I-218750J0D01*
G01*
G37*
G36*
G01*
X142596250Y-72123000D02*
X142083750Y-72123000D01*
G75*
G02*
X141865000Y-71904250I0J218750D01*
G01*
X141865000Y-71466750D01*
G75*
G02*
X142083750Y-71248000I218750J0D01*
G01*
X142596250Y-71248000D01*
G75*
G02*
X142815000Y-71466750I0J-218750D01*
G01*
X142815000Y-71904250D01*
G75*
G02*
X142596250Y-72123000I-218750J0D01*
G01*
G37*
G36*
G01*
X145963750Y-71338000D02*
X146476250Y-71338000D01*
G75*
G02*
X146695000Y-71556750I0J-218750D01*
G01*
X146695000Y-71994250D01*
G75*
G02*
X146476250Y-72213000I-218750J0D01*
G01*
X145963750Y-72213000D01*
G75*
G02*
X145745000Y-71994250I0J218750D01*
G01*
X145745000Y-71556750D01*
G75*
G02*
X145963750Y-71338000I218750J0D01*
G01*
G37*
G36*
G01*
X145963750Y-69763000D02*
X146476250Y-69763000D01*
G75*
G02*
X146695000Y-69981750I0J-218750D01*
G01*
X146695000Y-70419250D01*
G75*
G02*
X146476250Y-70638000I-218750J0D01*
G01*
X145963750Y-70638000D01*
G75*
G02*
X145745000Y-70419250I0J218750D01*
G01*
X145745000Y-69981750D01*
G75*
G02*
X145963750Y-69763000I218750J0D01*
G01*
G37*
G36*
G01*
X144403750Y-71308000D02*
X144916250Y-71308000D01*
G75*
G02*
X145135000Y-71526750I0J-218750D01*
G01*
X145135000Y-71964250D01*
G75*
G02*
X144916250Y-72183000I-218750J0D01*
G01*
X144403750Y-72183000D01*
G75*
G02*
X144185000Y-71964250I0J218750D01*
G01*
X144185000Y-71526750D01*
G75*
G02*
X144403750Y-71308000I218750J0D01*
G01*
G37*
G36*
G01*
X144403750Y-69733000D02*
X144916250Y-69733000D01*
G75*
G02*
X145135000Y-69951750I0J-218750D01*
G01*
X145135000Y-70389250D01*
G75*
G02*
X144916250Y-70608000I-218750J0D01*
G01*
X144403750Y-70608000D01*
G75*
G02*
X144185000Y-70389250I0J218750D01*
G01*
X144185000Y-69951750D01*
G75*
G02*
X144403750Y-69733000I218750J0D01*
G01*
G37*
G36*
G01*
X175003750Y-96362000D02*
X175516250Y-96362000D01*
G75*
G02*
X175735000Y-96580750I0J-218750D01*
G01*
X175735000Y-97018250D01*
G75*
G02*
X175516250Y-97237000I-218750J0D01*
G01*
X175003750Y-97237000D01*
G75*
G02*
X174785000Y-97018250I0J218750D01*
G01*
X174785000Y-96580750D01*
G75*
G02*
X175003750Y-96362000I218750J0D01*
G01*
G37*
G36*
G01*
X175003750Y-94787000D02*
X175516250Y-94787000D01*
G75*
G02*
X175735000Y-95005750I0J-218750D01*
G01*
X175735000Y-95443250D01*
G75*
G02*
X175516250Y-95662000I-218750J0D01*
G01*
X175003750Y-95662000D01*
G75*
G02*
X174785000Y-95443250I0J218750D01*
G01*
X174785000Y-95005750D01*
G75*
G02*
X175003750Y-94787000I218750J0D01*
G01*
G37*
G36*
G01*
X169674250Y-72548000D02*
X169161750Y-72548000D01*
G75*
G02*
X168943000Y-72329250I0J218750D01*
G01*
X168943000Y-71891750D01*
G75*
G02*
X169161750Y-71673000I218750J0D01*
G01*
X169674250Y-71673000D01*
G75*
G02*
X169893000Y-71891750I0J-218750D01*
G01*
X169893000Y-72329250D01*
G75*
G02*
X169674250Y-72548000I-218750J0D01*
G01*
G37*
G36*
G01*
X169674250Y-74123000D02*
X169161750Y-74123000D01*
G75*
G02*
X168943000Y-73904250I0J218750D01*
G01*
X168943000Y-73466750D01*
G75*
G02*
X169161750Y-73248000I218750J0D01*
G01*
X169674250Y-73248000D01*
G75*
G02*
X169893000Y-73466750I0J-218750D01*
G01*
X169893000Y-73904250D01*
G75*
G02*
X169674250Y-74123000I-218750J0D01*
G01*
G37*
G36*
G01*
X103063750Y-58060000D02*
X103576250Y-58060000D01*
G75*
G02*
X103795000Y-58278750I0J-218750D01*
G01*
X103795000Y-58716250D01*
G75*
G02*
X103576250Y-58935000I-218750J0D01*
G01*
X103063750Y-58935000D01*
G75*
G02*
X102845000Y-58716250I0J218750D01*
G01*
X102845000Y-58278750D01*
G75*
G02*
X103063750Y-58060000I218750J0D01*
G01*
G37*
G36*
G01*
X103063750Y-56485000D02*
X103576250Y-56485000D01*
G75*
G02*
X103795000Y-56703750I0J-218750D01*
G01*
X103795000Y-57141250D01*
G75*
G02*
X103576250Y-57360000I-218750J0D01*
G01*
X103063750Y-57360000D01*
G75*
G02*
X102845000Y-57141250I0J218750D01*
G01*
X102845000Y-56703750D01*
G75*
G02*
X103063750Y-56485000I218750J0D01*
G01*
G37*
G36*
G01*
X104966250Y-66570000D02*
X104453750Y-66570000D01*
G75*
G02*
X104235000Y-66351250I0J218750D01*
G01*
X104235000Y-65913750D01*
G75*
G02*
X104453750Y-65695000I218750J0D01*
G01*
X104966250Y-65695000D01*
G75*
G02*
X105185000Y-65913750I0J-218750D01*
G01*
X105185000Y-66351250D01*
G75*
G02*
X104966250Y-66570000I-218750J0D01*
G01*
G37*
G36*
G01*
X104966250Y-68145000D02*
X104453750Y-68145000D01*
G75*
G02*
X104235000Y-67926250I0J218750D01*
G01*
X104235000Y-67488750D01*
G75*
G02*
X104453750Y-67270000I218750J0D01*
G01*
X104966250Y-67270000D01*
G75*
G02*
X105185000Y-67488750I0J-218750D01*
G01*
X105185000Y-67926250D01*
G75*
G02*
X104966250Y-68145000I-218750J0D01*
G01*
G37*
G36*
G01*
X124600000Y-63473750D02*
X124600000Y-63986250D01*
G75*
G02*
X124381250Y-64205000I-218750J0D01*
G01*
X123943750Y-64205000D01*
G75*
G02*
X123725000Y-63986250I0J218750D01*
G01*
X123725000Y-63473750D01*
G75*
G02*
X123943750Y-63255000I218750J0D01*
G01*
X124381250Y-63255000D01*
G75*
G02*
X124600000Y-63473750I0J-218750D01*
G01*
G37*
G36*
G01*
X126175000Y-63473750D02*
X126175000Y-63986250D01*
G75*
G02*
X125956250Y-64205000I-218750J0D01*
G01*
X125518750Y-64205000D01*
G75*
G02*
X125300000Y-63986250I0J218750D01*
G01*
X125300000Y-63473750D01*
G75*
G02*
X125518750Y-63255000I218750J0D01*
G01*
X125956250Y-63255000D01*
G75*
G02*
X126175000Y-63473750I0J-218750D01*
G01*
G37*
D13*
X73850000Y-105050000D03*
X73850000Y-107150000D03*
X142080000Y-104470000D03*
X142080000Y-106570000D03*
X88900000Y-104648000D03*
X88900000Y-106748000D03*
X57920000Y-104750000D03*
X57920000Y-106850000D03*
X106540000Y-105490000D03*
X106540000Y-107590000D03*
D14*
X175270000Y-110970000D03*
X173170000Y-110970000D03*
D13*
X158950000Y-104140000D03*
X158950000Y-106240000D03*
X126380000Y-104350000D03*
X126380000Y-106450000D03*
G36*
G01*
X100883750Y-67330000D02*
X101396250Y-67330000D01*
G75*
G02*
X101615000Y-67548750I0J-218750D01*
G01*
X101615000Y-67986250D01*
G75*
G02*
X101396250Y-68205000I-218750J0D01*
G01*
X100883750Y-68205000D01*
G75*
G02*
X100665000Y-67986250I0J218750D01*
G01*
X100665000Y-67548750D01*
G75*
G02*
X100883750Y-67330000I218750J0D01*
G01*
G37*
G36*
G01*
X100883750Y-65755000D02*
X101396250Y-65755000D01*
G75*
G02*
X101615000Y-65973750I0J-218750D01*
G01*
X101615000Y-66411250D01*
G75*
G02*
X101396250Y-66630000I-218750J0D01*
G01*
X100883750Y-66630000D01*
G75*
G02*
X100665000Y-66411250I0J218750D01*
G01*
X100665000Y-65973750D01*
G75*
G02*
X100883750Y-65755000I218750J0D01*
G01*
G37*
D10*
X73860000Y-103680000D03*
X72910000Y-101680000D03*
X74810000Y-101680000D03*
X141960000Y-102690000D03*
X141010000Y-100690000D03*
X142910000Y-100690000D03*
X88900000Y-103108000D03*
X87950000Y-101108000D03*
X89850000Y-101108000D03*
X57930000Y-103380000D03*
X56980000Y-101380000D03*
X58880000Y-101380000D03*
X106520000Y-104070000D03*
X105570000Y-102070000D03*
X107470000Y-102070000D03*
X173736000Y-109060000D03*
X172786000Y-107060000D03*
X174686000Y-107060000D03*
X158980000Y-102630000D03*
X158030000Y-100630000D03*
X159930000Y-100630000D03*
X126320000Y-102810000D03*
X125370000Y-100810000D03*
X127270000Y-100810000D03*
D15*
X151622000Y-92202000D03*
X149622000Y-93152000D03*
X149622000Y-91252000D03*
G36*
G01*
X161426250Y-53560000D02*
X160913750Y-53560000D01*
G75*
G02*
X160695000Y-53341250I0J218750D01*
G01*
X160695000Y-52903750D01*
G75*
G02*
X160913750Y-52685000I218750J0D01*
G01*
X161426250Y-52685000D01*
G75*
G02*
X161645000Y-52903750I0J-218750D01*
G01*
X161645000Y-53341250D01*
G75*
G02*
X161426250Y-53560000I-218750J0D01*
G01*
G37*
G36*
G01*
X161426250Y-55135000D02*
X160913750Y-55135000D01*
G75*
G02*
X160695000Y-54916250I0J218750D01*
G01*
X160695000Y-54478750D01*
G75*
G02*
X160913750Y-54260000I218750J0D01*
G01*
X161426250Y-54260000D01*
G75*
G02*
X161645000Y-54478750I0J-218750D01*
G01*
X161645000Y-54916250D01*
G75*
G02*
X161426250Y-55135000I-218750J0D01*
G01*
G37*
G36*
G01*
X162490000Y-59146250D02*
X162490000Y-58633750D01*
G75*
G02*
X162708750Y-58415000I218750J0D01*
G01*
X163146250Y-58415000D01*
G75*
G02*
X163365000Y-58633750I0J-218750D01*
G01*
X163365000Y-59146250D01*
G75*
G02*
X163146250Y-59365000I-218750J0D01*
G01*
X162708750Y-59365000D01*
G75*
G02*
X162490000Y-59146250I0J218750D01*
G01*
G37*
G36*
G01*
X160915000Y-59146250D02*
X160915000Y-58633750D01*
G75*
G02*
X161133750Y-58415000I218750J0D01*
G01*
X161571250Y-58415000D01*
G75*
G02*
X161790000Y-58633750I0J-218750D01*
G01*
X161790000Y-59146250D01*
G75*
G02*
X161571250Y-59365000I-218750J0D01*
G01*
X161133750Y-59365000D01*
G75*
G02*
X160915000Y-59146250I0J218750D01*
G01*
G37*
G36*
G01*
X44793750Y-95830000D02*
X45306250Y-95830000D01*
G75*
G02*
X45525000Y-96048750I0J-218750D01*
G01*
X45525000Y-96486250D01*
G75*
G02*
X45306250Y-96705000I-218750J0D01*
G01*
X44793750Y-96705000D01*
G75*
G02*
X44575000Y-96486250I0J218750D01*
G01*
X44575000Y-96048750D01*
G75*
G02*
X44793750Y-95830000I218750J0D01*
G01*
G37*
G36*
G01*
X44793750Y-94255000D02*
X45306250Y-94255000D01*
G75*
G02*
X45525000Y-94473750I0J-218750D01*
G01*
X45525000Y-94911250D01*
G75*
G02*
X45306250Y-95130000I-218750J0D01*
G01*
X44793750Y-95130000D01*
G75*
G02*
X44575000Y-94911250I0J218750D01*
G01*
X44575000Y-94473750D01*
G75*
G02*
X44793750Y-94255000I218750J0D01*
G01*
G37*
G36*
G01*
X98646250Y-54030000D02*
X98133750Y-54030000D01*
G75*
G02*
X97915000Y-53811250I0J218750D01*
G01*
X97915000Y-53373750D01*
G75*
G02*
X98133750Y-53155000I218750J0D01*
G01*
X98646250Y-53155000D01*
G75*
G02*
X98865000Y-53373750I0J-218750D01*
G01*
X98865000Y-53811250D01*
G75*
G02*
X98646250Y-54030000I-218750J0D01*
G01*
G37*
G36*
G01*
X98646250Y-55605000D02*
X98133750Y-55605000D01*
G75*
G02*
X97915000Y-55386250I0J218750D01*
G01*
X97915000Y-54948750D01*
G75*
G02*
X98133750Y-54730000I218750J0D01*
G01*
X98646250Y-54730000D01*
G75*
G02*
X98865000Y-54948750I0J-218750D01*
G01*
X98865000Y-55386250D01*
G75*
G02*
X98646250Y-55605000I-218750J0D01*
G01*
G37*
G36*
G01*
X98676250Y-57850000D02*
X98163750Y-57850000D01*
G75*
G02*
X97945000Y-57631250I0J218750D01*
G01*
X97945000Y-57193750D01*
G75*
G02*
X98163750Y-56975000I218750J0D01*
G01*
X98676250Y-56975000D01*
G75*
G02*
X98895000Y-57193750I0J-218750D01*
G01*
X98895000Y-57631250D01*
G75*
G02*
X98676250Y-57850000I-218750J0D01*
G01*
G37*
G36*
G01*
X98676250Y-59425000D02*
X98163750Y-59425000D01*
G75*
G02*
X97945000Y-59206250I0J218750D01*
G01*
X97945000Y-58768750D01*
G75*
G02*
X98163750Y-58550000I218750J0D01*
G01*
X98676250Y-58550000D01*
G75*
G02*
X98895000Y-58768750I0J-218750D01*
G01*
X98895000Y-59206250D01*
G75*
G02*
X98676250Y-59425000I-218750J0D01*
G01*
G37*
G36*
G01*
X87830000Y-58836250D02*
X87830000Y-58323750D01*
G75*
G02*
X88048750Y-58105000I218750J0D01*
G01*
X88486250Y-58105000D01*
G75*
G02*
X88705000Y-58323750I0J-218750D01*
G01*
X88705000Y-58836250D01*
G75*
G02*
X88486250Y-59055000I-218750J0D01*
G01*
X88048750Y-59055000D01*
G75*
G02*
X87830000Y-58836250I0J218750D01*
G01*
G37*
G36*
G01*
X86255000Y-58836250D02*
X86255000Y-58323750D01*
G75*
G02*
X86473750Y-58105000I218750J0D01*
G01*
X86911250Y-58105000D01*
G75*
G02*
X87130000Y-58323750I0J-218750D01*
G01*
X87130000Y-58836250D01*
G75*
G02*
X86911250Y-59055000I-218750J0D01*
G01*
X86473750Y-59055000D01*
G75*
G02*
X86255000Y-58836250I0J218750D01*
G01*
G37*
G36*
G01*
X83568250Y-59086000D02*
X83055750Y-59086000D01*
G75*
G02*
X82837000Y-58867250I0J218750D01*
G01*
X82837000Y-58429750D01*
G75*
G02*
X83055750Y-58211000I218750J0D01*
G01*
X83568250Y-58211000D01*
G75*
G02*
X83787000Y-58429750I0J-218750D01*
G01*
X83787000Y-58867250D01*
G75*
G02*
X83568250Y-59086000I-218750J0D01*
G01*
G37*
G36*
G01*
X83568250Y-60661000D02*
X83055750Y-60661000D01*
G75*
G02*
X82837000Y-60442250I0J218750D01*
G01*
X82837000Y-60004750D01*
G75*
G02*
X83055750Y-59786000I218750J0D01*
G01*
X83568250Y-59786000D01*
G75*
G02*
X83787000Y-60004750I0J-218750D01*
G01*
X83787000Y-60442250D01*
G75*
G02*
X83568250Y-60661000I-218750J0D01*
G01*
G37*
G36*
G01*
X62676250Y-46150000D02*
X62163750Y-46150000D01*
G75*
G02*
X61945000Y-45931250I0J218750D01*
G01*
X61945000Y-45493750D01*
G75*
G02*
X62163750Y-45275000I218750J0D01*
G01*
X62676250Y-45275000D01*
G75*
G02*
X62895000Y-45493750I0J-218750D01*
G01*
X62895000Y-45931250D01*
G75*
G02*
X62676250Y-46150000I-218750J0D01*
G01*
G37*
G36*
G01*
X62676250Y-47725000D02*
X62163750Y-47725000D01*
G75*
G02*
X61945000Y-47506250I0J218750D01*
G01*
X61945000Y-47068750D01*
G75*
G02*
X62163750Y-46850000I218750J0D01*
G01*
X62676250Y-46850000D01*
G75*
G02*
X62895000Y-47068750I0J-218750D01*
G01*
X62895000Y-47506250D01*
G75*
G02*
X62676250Y-47725000I-218750J0D01*
G01*
G37*
G36*
G01*
X42026250Y-46130000D02*
X41513750Y-46130000D01*
G75*
G02*
X41295000Y-45911250I0J218750D01*
G01*
X41295000Y-45473750D01*
G75*
G02*
X41513750Y-45255000I218750J0D01*
G01*
X42026250Y-45255000D01*
G75*
G02*
X42245000Y-45473750I0J-218750D01*
G01*
X42245000Y-45911250D01*
G75*
G02*
X42026250Y-46130000I-218750J0D01*
G01*
G37*
G36*
G01*
X42026250Y-47705000D02*
X41513750Y-47705000D01*
G75*
G02*
X41295000Y-47486250I0J218750D01*
G01*
X41295000Y-47048750D01*
G75*
G02*
X41513750Y-46830000I218750J0D01*
G01*
X42026250Y-46830000D01*
G75*
G02*
X42245000Y-47048750I0J-218750D01*
G01*
X42245000Y-47486250D01*
G75*
G02*
X42026250Y-47705000I-218750J0D01*
G01*
G37*
G36*
G01*
X80146250Y-53580000D02*
X79633750Y-53580000D01*
G75*
G02*
X79415000Y-53361250I0J218750D01*
G01*
X79415000Y-52923750D01*
G75*
G02*
X79633750Y-52705000I218750J0D01*
G01*
X80146250Y-52705000D01*
G75*
G02*
X80365000Y-52923750I0J-218750D01*
G01*
X80365000Y-53361250D01*
G75*
G02*
X80146250Y-53580000I-218750J0D01*
G01*
G37*
G36*
G01*
X80146250Y-55155000D02*
X79633750Y-55155000D01*
G75*
G02*
X79415000Y-54936250I0J218750D01*
G01*
X79415000Y-54498750D01*
G75*
G02*
X79633750Y-54280000I218750J0D01*
G01*
X80146250Y-54280000D01*
G75*
G02*
X80365000Y-54498750I0J-218750D01*
G01*
X80365000Y-54936250D01*
G75*
G02*
X80146250Y-55155000I-218750J0D01*
G01*
G37*
G36*
G01*
X141612500Y-98393750D02*
X141612500Y-98906250D01*
G75*
G02*
X141393750Y-99125000I-218750J0D01*
G01*
X140956250Y-99125000D01*
G75*
G02*
X140737500Y-98906250I0J218750D01*
G01*
X140737500Y-98393750D01*
G75*
G02*
X140956250Y-98175000I218750J0D01*
G01*
X141393750Y-98175000D01*
G75*
G02*
X141612500Y-98393750I0J-218750D01*
G01*
G37*
G36*
G01*
X143187500Y-98393750D02*
X143187500Y-98906250D01*
G75*
G02*
X142968750Y-99125000I-218750J0D01*
G01*
X142531250Y-99125000D01*
G75*
G02*
X142312500Y-98906250I0J218750D01*
G01*
X142312500Y-98393750D01*
G75*
G02*
X142531250Y-98175000I218750J0D01*
G01*
X142968750Y-98175000D01*
G75*
G02*
X143187500Y-98393750I0J-218750D01*
G01*
G37*
G36*
G01*
X88550000Y-98803750D02*
X88550000Y-99316250D01*
G75*
G02*
X88331250Y-99535000I-218750J0D01*
G01*
X87893750Y-99535000D01*
G75*
G02*
X87675000Y-99316250I0J218750D01*
G01*
X87675000Y-98803750D01*
G75*
G02*
X87893750Y-98585000I218750J0D01*
G01*
X88331250Y-98585000D01*
G75*
G02*
X88550000Y-98803750I0J-218750D01*
G01*
G37*
G36*
G01*
X90125000Y-98803750D02*
X90125000Y-99316250D01*
G75*
G02*
X89906250Y-99535000I-218750J0D01*
G01*
X89468750Y-99535000D01*
G75*
G02*
X89250000Y-99316250I0J218750D01*
G01*
X89250000Y-98803750D01*
G75*
G02*
X89468750Y-98585000I218750J0D01*
G01*
X89906250Y-98585000D01*
G75*
G02*
X90125000Y-98803750I0J-218750D01*
G01*
G37*
G36*
G01*
X57700000Y-99063750D02*
X57700000Y-99576250D01*
G75*
G02*
X57481250Y-99795000I-218750J0D01*
G01*
X57043750Y-99795000D01*
G75*
G02*
X56825000Y-99576250I0J218750D01*
G01*
X56825000Y-99063750D01*
G75*
G02*
X57043750Y-98845000I218750J0D01*
G01*
X57481250Y-98845000D01*
G75*
G02*
X57700000Y-99063750I0J-218750D01*
G01*
G37*
G36*
G01*
X59275000Y-99063750D02*
X59275000Y-99576250D01*
G75*
G02*
X59056250Y-99795000I-218750J0D01*
G01*
X58618750Y-99795000D01*
G75*
G02*
X58400000Y-99576250I0J218750D01*
G01*
X58400000Y-99063750D01*
G75*
G02*
X58618750Y-98845000I218750J0D01*
G01*
X59056250Y-98845000D01*
G75*
G02*
X59275000Y-99063750I0J-218750D01*
G01*
G37*
G36*
G01*
X106190000Y-98763750D02*
X106190000Y-99276250D01*
G75*
G02*
X105971250Y-99495000I-218750J0D01*
G01*
X105533750Y-99495000D01*
G75*
G02*
X105315000Y-99276250I0J218750D01*
G01*
X105315000Y-98763750D01*
G75*
G02*
X105533750Y-98545000I218750J0D01*
G01*
X105971250Y-98545000D01*
G75*
G02*
X106190000Y-98763750I0J-218750D01*
G01*
G37*
G36*
G01*
X107765000Y-98763750D02*
X107765000Y-99276250D01*
G75*
G02*
X107546250Y-99495000I-218750J0D01*
G01*
X107108750Y-99495000D01*
G75*
G02*
X106890000Y-99276250I0J218750D01*
G01*
X106890000Y-98763750D01*
G75*
G02*
X107108750Y-98545000I218750J0D01*
G01*
X107546250Y-98545000D01*
G75*
G02*
X107765000Y-98763750I0J-218750D01*
G01*
G37*
G36*
G01*
X173386000Y-104899750D02*
X173386000Y-105412250D01*
G75*
G02*
X173167250Y-105631000I-218750J0D01*
G01*
X172729750Y-105631000D01*
G75*
G02*
X172511000Y-105412250I0J218750D01*
G01*
X172511000Y-104899750D01*
G75*
G02*
X172729750Y-104681000I218750J0D01*
G01*
X173167250Y-104681000D01*
G75*
G02*
X173386000Y-104899750I0J-218750D01*
G01*
G37*
G36*
G01*
X174961000Y-104899750D02*
X174961000Y-105412250D01*
G75*
G02*
X174742250Y-105631000I-218750J0D01*
G01*
X174304750Y-105631000D01*
G75*
G02*
X174086000Y-105412250I0J218750D01*
G01*
X174086000Y-104899750D01*
G75*
G02*
X174304750Y-104681000I218750J0D01*
G01*
X174742250Y-104681000D01*
G75*
G02*
X174961000Y-104899750I0J-218750D01*
G01*
G37*
G36*
G01*
X158180000Y-98603750D02*
X158180000Y-99116250D01*
G75*
G02*
X157961250Y-99335000I-218750J0D01*
G01*
X157523750Y-99335000D01*
G75*
G02*
X157305000Y-99116250I0J218750D01*
G01*
X157305000Y-98603750D01*
G75*
G02*
X157523750Y-98385000I218750J0D01*
G01*
X157961250Y-98385000D01*
G75*
G02*
X158180000Y-98603750I0J-218750D01*
G01*
G37*
G36*
G01*
X159755000Y-98603750D02*
X159755000Y-99116250D01*
G75*
G02*
X159536250Y-99335000I-218750J0D01*
G01*
X159098750Y-99335000D01*
G75*
G02*
X158880000Y-99116250I0J218750D01*
G01*
X158880000Y-98603750D01*
G75*
G02*
X159098750Y-98385000I218750J0D01*
G01*
X159536250Y-98385000D01*
G75*
G02*
X159755000Y-98603750I0J-218750D01*
G01*
G37*
G36*
G01*
X125950000Y-98513750D02*
X125950000Y-99026250D01*
G75*
G02*
X125731250Y-99245000I-218750J0D01*
G01*
X125293750Y-99245000D01*
G75*
G02*
X125075000Y-99026250I0J218750D01*
G01*
X125075000Y-98513750D01*
G75*
G02*
X125293750Y-98295000I218750J0D01*
G01*
X125731250Y-98295000D01*
G75*
G02*
X125950000Y-98513750I0J-218750D01*
G01*
G37*
G36*
G01*
X127525000Y-98513750D02*
X127525000Y-99026250D01*
G75*
G02*
X127306250Y-99245000I-218750J0D01*
G01*
X126868750Y-99245000D01*
G75*
G02*
X126650000Y-99026250I0J218750D01*
G01*
X126650000Y-98513750D01*
G75*
G02*
X126868750Y-98295000I218750J0D01*
G01*
X127306250Y-98295000D01*
G75*
G02*
X127525000Y-98513750I0J-218750D01*
G01*
G37*
G36*
G01*
X139696250Y-58010000D02*
X139183750Y-58010000D01*
G75*
G02*
X138965000Y-57791250I0J218750D01*
G01*
X138965000Y-57353750D01*
G75*
G02*
X139183750Y-57135000I218750J0D01*
G01*
X139696250Y-57135000D01*
G75*
G02*
X139915000Y-57353750I0J-218750D01*
G01*
X139915000Y-57791250D01*
G75*
G02*
X139696250Y-58010000I-218750J0D01*
G01*
G37*
G36*
G01*
X139696250Y-59585000D02*
X139183750Y-59585000D01*
G75*
G02*
X138965000Y-59366250I0J218750D01*
G01*
X138965000Y-58928750D01*
G75*
G02*
X139183750Y-58710000I218750J0D01*
G01*
X139696250Y-58710000D01*
G75*
G02*
X139915000Y-58928750I0J-218750D01*
G01*
X139915000Y-59366250D01*
G75*
G02*
X139696250Y-59585000I-218750J0D01*
G01*
G37*
G36*
G01*
X137866250Y-57940000D02*
X137353750Y-57940000D01*
G75*
G02*
X137135000Y-57721250I0J218750D01*
G01*
X137135000Y-57283750D01*
G75*
G02*
X137353750Y-57065000I218750J0D01*
G01*
X137866250Y-57065000D01*
G75*
G02*
X138085000Y-57283750I0J-218750D01*
G01*
X138085000Y-57721250D01*
G75*
G02*
X137866250Y-57940000I-218750J0D01*
G01*
G37*
G36*
G01*
X137866250Y-59515000D02*
X137353750Y-59515000D01*
G75*
G02*
X137135000Y-59296250I0J218750D01*
G01*
X137135000Y-58858750D01*
G75*
G02*
X137353750Y-58640000I218750J0D01*
G01*
X137866250Y-58640000D01*
G75*
G02*
X138085000Y-58858750I0J-218750D01*
G01*
X138085000Y-59296250D01*
G75*
G02*
X137866250Y-59515000I-218750J0D01*
G01*
G37*
G36*
G01*
X132433750Y-66390000D02*
X132946250Y-66390000D01*
G75*
G02*
X133165000Y-66608750I0J-218750D01*
G01*
X133165000Y-67046250D01*
G75*
G02*
X132946250Y-67265000I-218750J0D01*
G01*
X132433750Y-67265000D01*
G75*
G02*
X132215000Y-67046250I0J218750D01*
G01*
X132215000Y-66608750D01*
G75*
G02*
X132433750Y-66390000I218750J0D01*
G01*
G37*
G36*
G01*
X132433750Y-64815000D02*
X132946250Y-64815000D01*
G75*
G02*
X133165000Y-65033750I0J-218750D01*
G01*
X133165000Y-65471250D01*
G75*
G02*
X132946250Y-65690000I-218750J0D01*
G01*
X132433750Y-65690000D01*
G75*
G02*
X132215000Y-65471250I0J218750D01*
G01*
X132215000Y-65033750D01*
G75*
G02*
X132433750Y-64815000I218750J0D01*
G01*
G37*
G36*
G01*
X133538250Y-70798000D02*
X133025750Y-70798000D01*
G75*
G02*
X132807000Y-70579250I0J218750D01*
G01*
X132807000Y-70141750D01*
G75*
G02*
X133025750Y-69923000I218750J0D01*
G01*
X133538250Y-69923000D01*
G75*
G02*
X133757000Y-70141750I0J-218750D01*
G01*
X133757000Y-70579250D01*
G75*
G02*
X133538250Y-70798000I-218750J0D01*
G01*
G37*
G36*
G01*
X133538250Y-72373000D02*
X133025750Y-72373000D01*
G75*
G02*
X132807000Y-72154250I0J218750D01*
G01*
X132807000Y-71716750D01*
G75*
G02*
X133025750Y-71498000I218750J0D01*
G01*
X133538250Y-71498000D01*
G75*
G02*
X133757000Y-71716750I0J-218750D01*
G01*
X133757000Y-72154250D01*
G75*
G02*
X133538250Y-72373000I-218750J0D01*
G01*
G37*
G36*
G01*
X141026250Y-70648000D02*
X140513750Y-70648000D01*
G75*
G02*
X140295000Y-70429250I0J218750D01*
G01*
X140295000Y-69991750D01*
G75*
G02*
X140513750Y-69773000I218750J0D01*
G01*
X141026250Y-69773000D01*
G75*
G02*
X141245000Y-69991750I0J-218750D01*
G01*
X141245000Y-70429250D01*
G75*
G02*
X141026250Y-70648000I-218750J0D01*
G01*
G37*
G36*
G01*
X141026250Y-72223000D02*
X140513750Y-72223000D01*
G75*
G02*
X140295000Y-72004250I0J218750D01*
G01*
X140295000Y-71566750D01*
G75*
G02*
X140513750Y-71348000I218750J0D01*
G01*
X141026250Y-71348000D01*
G75*
G02*
X141245000Y-71566750I0J-218750D01*
G01*
X141245000Y-72004250D01*
G75*
G02*
X141026250Y-72223000I-218750J0D01*
G01*
G37*
G36*
G01*
X136156250Y-70750000D02*
X135643750Y-70750000D01*
G75*
G02*
X135425000Y-70531250I0J218750D01*
G01*
X135425000Y-70093750D01*
G75*
G02*
X135643750Y-69875000I218750J0D01*
G01*
X136156250Y-69875000D01*
G75*
G02*
X136375000Y-70093750I0J-218750D01*
G01*
X136375000Y-70531250D01*
G75*
G02*
X136156250Y-70750000I-218750J0D01*
G01*
G37*
G36*
G01*
X136156250Y-72325000D02*
X135643750Y-72325000D01*
G75*
G02*
X135425000Y-72106250I0J218750D01*
G01*
X135425000Y-71668750D01*
G75*
G02*
X135643750Y-71450000I218750J0D01*
G01*
X136156250Y-71450000D01*
G75*
G02*
X136375000Y-71668750I0J-218750D01*
G01*
X136375000Y-72106250D01*
G75*
G02*
X136156250Y-72325000I-218750J0D01*
G01*
G37*
G36*
G01*
X137253750Y-71448000D02*
X137766250Y-71448000D01*
G75*
G02*
X137985000Y-71666750I0J-218750D01*
G01*
X137985000Y-72104250D01*
G75*
G02*
X137766250Y-72323000I-218750J0D01*
G01*
X137253750Y-72323000D01*
G75*
G02*
X137035000Y-72104250I0J218750D01*
G01*
X137035000Y-71666750D01*
G75*
G02*
X137253750Y-71448000I218750J0D01*
G01*
G37*
G36*
G01*
X137253750Y-69873000D02*
X137766250Y-69873000D01*
G75*
G02*
X137985000Y-70091750I0J-218750D01*
G01*
X137985000Y-70529250D01*
G75*
G02*
X137766250Y-70748000I-218750J0D01*
G01*
X137253750Y-70748000D01*
G75*
G02*
X137035000Y-70529250I0J218750D01*
G01*
X137035000Y-70091750D01*
G75*
G02*
X137253750Y-69873000I218750J0D01*
G01*
G37*
G36*
G01*
X149223750Y-87730000D02*
X149736250Y-87730000D01*
G75*
G02*
X149955000Y-87948750I0J-218750D01*
G01*
X149955000Y-88386250D01*
G75*
G02*
X149736250Y-88605000I-218750J0D01*
G01*
X149223750Y-88605000D01*
G75*
G02*
X149005000Y-88386250I0J218750D01*
G01*
X149005000Y-87948750D01*
G75*
G02*
X149223750Y-87730000I218750J0D01*
G01*
G37*
G36*
G01*
X149223750Y-86155000D02*
X149736250Y-86155000D01*
G75*
G02*
X149955000Y-86373750I0J-218750D01*
G01*
X149955000Y-86811250D01*
G75*
G02*
X149736250Y-87030000I-218750J0D01*
G01*
X149223750Y-87030000D01*
G75*
G02*
X149005000Y-86811250I0J218750D01*
G01*
X149005000Y-86373750D01*
G75*
G02*
X149223750Y-86155000I218750J0D01*
G01*
G37*
G36*
G01*
X150873750Y-87726000D02*
X151386250Y-87726000D01*
G75*
G02*
X151605000Y-87944750I0J-218750D01*
G01*
X151605000Y-88382250D01*
G75*
G02*
X151386250Y-88601000I-218750J0D01*
G01*
X150873750Y-88601000D01*
G75*
G02*
X150655000Y-88382250I0J218750D01*
G01*
X150655000Y-87944750D01*
G75*
G02*
X150873750Y-87726000I218750J0D01*
G01*
G37*
G36*
G01*
X150873750Y-86151000D02*
X151386250Y-86151000D01*
G75*
G02*
X151605000Y-86369750I0J-218750D01*
G01*
X151605000Y-86807250D01*
G75*
G02*
X151386250Y-87026000I-218750J0D01*
G01*
X150873750Y-87026000D01*
G75*
G02*
X150655000Y-86807250I0J218750D01*
G01*
X150655000Y-86369750D01*
G75*
G02*
X150873750Y-86151000I218750J0D01*
G01*
G37*
G36*
G01*
X103236250Y-66580000D02*
X102723750Y-66580000D01*
G75*
G02*
X102505000Y-66361250I0J218750D01*
G01*
X102505000Y-65923750D01*
G75*
G02*
X102723750Y-65705000I218750J0D01*
G01*
X103236250Y-65705000D01*
G75*
G02*
X103455000Y-65923750I0J-218750D01*
G01*
X103455000Y-66361250D01*
G75*
G02*
X103236250Y-66580000I-218750J0D01*
G01*
G37*
G36*
G01*
X103236250Y-68155000D02*
X102723750Y-68155000D01*
G75*
G02*
X102505000Y-67936250I0J218750D01*
G01*
X102505000Y-67498750D01*
G75*
G02*
X102723750Y-67280000I218750J0D01*
G01*
X103236250Y-67280000D01*
G75*
G02*
X103455000Y-67498750I0J-218750D01*
G01*
X103455000Y-67936250D01*
G75*
G02*
X103236250Y-68155000I-218750J0D01*
G01*
G37*
G36*
G01*
X112253750Y-60630000D02*
X112766250Y-60630000D01*
G75*
G02*
X112985000Y-60848750I0J-218750D01*
G01*
X112985000Y-61286250D01*
G75*
G02*
X112766250Y-61505000I-218750J0D01*
G01*
X112253750Y-61505000D01*
G75*
G02*
X112035000Y-61286250I0J218750D01*
G01*
X112035000Y-60848750D01*
G75*
G02*
X112253750Y-60630000I218750J0D01*
G01*
G37*
G36*
G01*
X112253750Y-59055000D02*
X112766250Y-59055000D01*
G75*
G02*
X112985000Y-59273750I0J-218750D01*
G01*
X112985000Y-59711250D01*
G75*
G02*
X112766250Y-59930000I-218750J0D01*
G01*
X112253750Y-59930000D01*
G75*
G02*
X112035000Y-59711250I0J218750D01*
G01*
X112035000Y-59273750D01*
G75*
G02*
X112253750Y-59055000I218750J0D01*
G01*
G37*
G36*
G01*
X101303750Y-58060000D02*
X101816250Y-58060000D01*
G75*
G02*
X102035000Y-58278750I0J-218750D01*
G01*
X102035000Y-58716250D01*
G75*
G02*
X101816250Y-58935000I-218750J0D01*
G01*
X101303750Y-58935000D01*
G75*
G02*
X101085000Y-58716250I0J218750D01*
G01*
X101085000Y-58278750D01*
G75*
G02*
X101303750Y-58060000I218750J0D01*
G01*
G37*
G36*
G01*
X101303750Y-56485000D02*
X101816250Y-56485000D01*
G75*
G02*
X102035000Y-56703750I0J-218750D01*
G01*
X102035000Y-57141250D01*
G75*
G02*
X101816250Y-57360000I-218750J0D01*
G01*
X101303750Y-57360000D01*
G75*
G02*
X101085000Y-57141250I0J218750D01*
G01*
X101085000Y-56703750D01*
G75*
G02*
X101303750Y-56485000I218750J0D01*
G01*
G37*
G36*
G01*
X101943750Y-53560000D02*
X102456250Y-53560000D01*
G75*
G02*
X102675000Y-53778750I0J-218750D01*
G01*
X102675000Y-54216250D01*
G75*
G02*
X102456250Y-54435000I-218750J0D01*
G01*
X101943750Y-54435000D01*
G75*
G02*
X101725000Y-54216250I0J218750D01*
G01*
X101725000Y-53778750D01*
G75*
G02*
X101943750Y-53560000I218750J0D01*
G01*
G37*
G36*
G01*
X101943750Y-51985000D02*
X102456250Y-51985000D01*
G75*
G02*
X102675000Y-52203750I0J-218750D01*
G01*
X102675000Y-52641250D01*
G75*
G02*
X102456250Y-52860000I-218750J0D01*
G01*
X101943750Y-52860000D01*
G75*
G02*
X101725000Y-52641250I0J218750D01*
G01*
X101725000Y-52203750D01*
G75*
G02*
X101943750Y-51985000I218750J0D01*
G01*
G37*
G36*
G01*
X108440000Y-54226250D02*
X108440000Y-53713750D01*
G75*
G02*
X108658750Y-53495000I218750J0D01*
G01*
X109096250Y-53495000D01*
G75*
G02*
X109315000Y-53713750I0J-218750D01*
G01*
X109315000Y-54226250D01*
G75*
G02*
X109096250Y-54445000I-218750J0D01*
G01*
X108658750Y-54445000D01*
G75*
G02*
X108440000Y-54226250I0J218750D01*
G01*
G37*
G36*
G01*
X106865000Y-54226250D02*
X106865000Y-53713750D01*
G75*
G02*
X107083750Y-53495000I218750J0D01*
G01*
X107521250Y-53495000D01*
G75*
G02*
X107740000Y-53713750I0J-218750D01*
G01*
X107740000Y-54226250D01*
G75*
G02*
X107521250Y-54445000I-218750J0D01*
G01*
X107083750Y-54445000D01*
G75*
G02*
X106865000Y-54226250I0J218750D01*
G01*
G37*
G36*
G01*
X114696250Y-52850000D02*
X114183750Y-52850000D01*
G75*
G02*
X113965000Y-52631250I0J218750D01*
G01*
X113965000Y-52193750D01*
G75*
G02*
X114183750Y-51975000I218750J0D01*
G01*
X114696250Y-51975000D01*
G75*
G02*
X114915000Y-52193750I0J-218750D01*
G01*
X114915000Y-52631250D01*
G75*
G02*
X114696250Y-52850000I-218750J0D01*
G01*
G37*
G36*
G01*
X114696250Y-54425000D02*
X114183750Y-54425000D01*
G75*
G02*
X113965000Y-54206250I0J218750D01*
G01*
X113965000Y-53768750D01*
G75*
G02*
X114183750Y-53550000I218750J0D01*
G01*
X114696250Y-53550000D01*
G75*
G02*
X114915000Y-53768750I0J-218750D01*
G01*
X114915000Y-54206250D01*
G75*
G02*
X114696250Y-54425000I-218750J0D01*
G01*
G37*
G36*
G01*
X105536250Y-52810000D02*
X105023750Y-52810000D01*
G75*
G02*
X104805000Y-52591250I0J218750D01*
G01*
X104805000Y-52153750D01*
G75*
G02*
X105023750Y-51935000I218750J0D01*
G01*
X105536250Y-51935000D01*
G75*
G02*
X105755000Y-52153750I0J-218750D01*
G01*
X105755000Y-52591250D01*
G75*
G02*
X105536250Y-52810000I-218750J0D01*
G01*
G37*
G36*
G01*
X105536250Y-54385000D02*
X105023750Y-54385000D01*
G75*
G02*
X104805000Y-54166250I0J218750D01*
G01*
X104805000Y-53728750D01*
G75*
G02*
X105023750Y-53510000I218750J0D01*
G01*
X105536250Y-53510000D01*
G75*
G02*
X105755000Y-53728750I0J-218750D01*
G01*
X105755000Y-54166250D01*
G75*
G02*
X105536250Y-54385000I-218750J0D01*
G01*
G37*
G36*
G01*
X111316250Y-52900000D02*
X110803750Y-52900000D01*
G75*
G02*
X110585000Y-52681250I0J218750D01*
G01*
X110585000Y-52243750D01*
G75*
G02*
X110803750Y-52025000I218750J0D01*
G01*
X111316250Y-52025000D01*
G75*
G02*
X111535000Y-52243750I0J-218750D01*
G01*
X111535000Y-52681250D01*
G75*
G02*
X111316250Y-52900000I-218750J0D01*
G01*
G37*
G36*
G01*
X111316250Y-54475000D02*
X110803750Y-54475000D01*
G75*
G02*
X110585000Y-54256250I0J218750D01*
G01*
X110585000Y-53818750D01*
G75*
G02*
X110803750Y-53600000I218750J0D01*
G01*
X111316250Y-53600000D01*
G75*
G02*
X111535000Y-53818750I0J-218750D01*
G01*
X111535000Y-54256250D01*
G75*
G02*
X111316250Y-54475000I-218750J0D01*
G01*
G37*
G36*
G01*
X119110000Y-55673750D02*
X119110000Y-56186250D01*
G75*
G02*
X118891250Y-56405000I-218750J0D01*
G01*
X118453750Y-56405000D01*
G75*
G02*
X118235000Y-56186250I0J218750D01*
G01*
X118235000Y-55673750D01*
G75*
G02*
X118453750Y-55455000I218750J0D01*
G01*
X118891250Y-55455000D01*
G75*
G02*
X119110000Y-55673750I0J-218750D01*
G01*
G37*
G36*
G01*
X120685000Y-55673750D02*
X120685000Y-56186250D01*
G75*
G02*
X120466250Y-56405000I-218750J0D01*
G01*
X120028750Y-56405000D01*
G75*
G02*
X119810000Y-56186250I0J218750D01*
G01*
X119810000Y-55673750D01*
G75*
G02*
X120028750Y-55455000I218750J0D01*
G01*
X120466250Y-55455000D01*
G75*
G02*
X120685000Y-55673750I0J-218750D01*
G01*
G37*
G36*
G01*
X121796250Y-52290000D02*
X121283750Y-52290000D01*
G75*
G02*
X121065000Y-52071250I0J218750D01*
G01*
X121065000Y-51633750D01*
G75*
G02*
X121283750Y-51415000I218750J0D01*
G01*
X121796250Y-51415000D01*
G75*
G02*
X122015000Y-51633750I0J-218750D01*
G01*
X122015000Y-52071250D01*
G75*
G02*
X121796250Y-52290000I-218750J0D01*
G01*
G37*
G36*
G01*
X121796250Y-53865000D02*
X121283750Y-53865000D01*
G75*
G02*
X121065000Y-53646250I0J218750D01*
G01*
X121065000Y-53208750D01*
G75*
G02*
X121283750Y-52990000I218750J0D01*
G01*
X121796250Y-52990000D01*
G75*
G02*
X122015000Y-53208750I0J-218750D01*
G01*
X122015000Y-53646250D01*
G75*
G02*
X121796250Y-53865000I-218750J0D01*
G01*
G37*
G36*
G01*
X128206250Y-52290000D02*
X127693750Y-52290000D01*
G75*
G02*
X127475000Y-52071250I0J218750D01*
G01*
X127475000Y-51633750D01*
G75*
G02*
X127693750Y-51415000I218750J0D01*
G01*
X128206250Y-51415000D01*
G75*
G02*
X128425000Y-51633750I0J-218750D01*
G01*
X128425000Y-52071250D01*
G75*
G02*
X128206250Y-52290000I-218750J0D01*
G01*
G37*
G36*
G01*
X128206250Y-53865000D02*
X127693750Y-53865000D01*
G75*
G02*
X127475000Y-53646250I0J218750D01*
G01*
X127475000Y-53208750D01*
G75*
G02*
X127693750Y-52990000I218750J0D01*
G01*
X128206250Y-52990000D01*
G75*
G02*
X128425000Y-53208750I0J-218750D01*
G01*
X128425000Y-53646250D01*
G75*
G02*
X128206250Y-53865000I-218750J0D01*
G01*
G37*
D16*
X169200000Y-70010000D03*
X169200000Y-65410000D03*
X169200000Y-67710000D03*
D17*
X162900000Y-67710000D03*
G36*
G01*
X94375000Y-57560000D02*
X94675000Y-57560000D01*
G75*
G02*
X94825000Y-57710000I0J-150000D01*
G01*
X94825000Y-59360000D01*
G75*
G02*
X94675000Y-59510000I-150000J0D01*
G01*
X94375000Y-59510000D01*
G75*
G02*
X94225000Y-59360000I0J150000D01*
G01*
X94225000Y-57710000D01*
G75*
G02*
X94375000Y-57560000I150000J0D01*
G01*
G37*
G36*
G01*
X93105000Y-57560000D02*
X93405000Y-57560000D01*
G75*
G02*
X93555000Y-57710000I0J-150000D01*
G01*
X93555000Y-59360000D01*
G75*
G02*
X93405000Y-59510000I-150000J0D01*
G01*
X93105000Y-59510000D01*
G75*
G02*
X92955000Y-59360000I0J150000D01*
G01*
X92955000Y-57710000D01*
G75*
G02*
X93105000Y-57560000I150000J0D01*
G01*
G37*
G36*
G01*
X91835000Y-57560000D02*
X92135000Y-57560000D01*
G75*
G02*
X92285000Y-57710000I0J-150000D01*
G01*
X92285000Y-59360000D01*
G75*
G02*
X92135000Y-59510000I-150000J0D01*
G01*
X91835000Y-59510000D01*
G75*
G02*
X91685000Y-59360000I0J150000D01*
G01*
X91685000Y-57710000D01*
G75*
G02*
X91835000Y-57560000I150000J0D01*
G01*
G37*
G36*
G01*
X90565000Y-57560000D02*
X90865000Y-57560000D01*
G75*
G02*
X91015000Y-57710000I0J-150000D01*
G01*
X91015000Y-59360000D01*
G75*
G02*
X90865000Y-59510000I-150000J0D01*
G01*
X90565000Y-59510000D01*
G75*
G02*
X90415000Y-59360000I0J150000D01*
G01*
X90415000Y-57710000D01*
G75*
G02*
X90565000Y-57560000I150000J0D01*
G01*
G37*
G36*
G01*
X90565000Y-52610000D02*
X90865000Y-52610000D01*
G75*
G02*
X91015000Y-52760000I0J-150000D01*
G01*
X91015000Y-54410000D01*
G75*
G02*
X90865000Y-54560000I-150000J0D01*
G01*
X90565000Y-54560000D01*
G75*
G02*
X90415000Y-54410000I0J150000D01*
G01*
X90415000Y-52760000D01*
G75*
G02*
X90565000Y-52610000I150000J0D01*
G01*
G37*
G36*
G01*
X91835000Y-52610000D02*
X92135000Y-52610000D01*
G75*
G02*
X92285000Y-52760000I0J-150000D01*
G01*
X92285000Y-54410000D01*
G75*
G02*
X92135000Y-54560000I-150000J0D01*
G01*
X91835000Y-54560000D01*
G75*
G02*
X91685000Y-54410000I0J150000D01*
G01*
X91685000Y-52760000D01*
G75*
G02*
X91835000Y-52610000I150000J0D01*
G01*
G37*
G36*
G01*
X93105000Y-52610000D02*
X93405000Y-52610000D01*
G75*
G02*
X93555000Y-52760000I0J-150000D01*
G01*
X93555000Y-54410000D01*
G75*
G02*
X93405000Y-54560000I-150000J0D01*
G01*
X93105000Y-54560000D01*
G75*
G02*
X92955000Y-54410000I0J150000D01*
G01*
X92955000Y-52760000D01*
G75*
G02*
X93105000Y-52610000I150000J0D01*
G01*
G37*
G36*
G01*
X94375000Y-52610000D02*
X94675000Y-52610000D01*
G75*
G02*
X94825000Y-52760000I0J-150000D01*
G01*
X94825000Y-54410000D01*
G75*
G02*
X94675000Y-54560000I-150000J0D01*
G01*
X94375000Y-54560000D01*
G75*
G02*
X94225000Y-54410000I0J150000D01*
G01*
X94225000Y-52760000D01*
G75*
G02*
X94375000Y-52610000I150000J0D01*
G01*
G37*
G36*
G01*
X106185000Y-57870000D02*
X105885000Y-57870000D01*
G75*
G02*
X105735000Y-57720000I0J150000D01*
G01*
X105735000Y-56070000D01*
G75*
G02*
X105885000Y-55920000I150000J0D01*
G01*
X106185000Y-55920000D01*
G75*
G02*
X106335000Y-56070000I0J-150000D01*
G01*
X106335000Y-57720000D01*
G75*
G02*
X106185000Y-57870000I-150000J0D01*
G01*
G37*
G36*
G01*
X107455000Y-57870000D02*
X107155000Y-57870000D01*
G75*
G02*
X107005000Y-57720000I0J150000D01*
G01*
X107005000Y-56070000D01*
G75*
G02*
X107155000Y-55920000I150000J0D01*
G01*
X107455000Y-55920000D01*
G75*
G02*
X107605000Y-56070000I0J-150000D01*
G01*
X107605000Y-57720000D01*
G75*
G02*
X107455000Y-57870000I-150000J0D01*
G01*
G37*
G36*
G01*
X108725000Y-57870000D02*
X108425000Y-57870000D01*
G75*
G02*
X108275000Y-57720000I0J150000D01*
G01*
X108275000Y-56070000D01*
G75*
G02*
X108425000Y-55920000I150000J0D01*
G01*
X108725000Y-55920000D01*
G75*
G02*
X108875000Y-56070000I0J-150000D01*
G01*
X108875000Y-57720000D01*
G75*
G02*
X108725000Y-57870000I-150000J0D01*
G01*
G37*
G36*
G01*
X109995000Y-57870000D02*
X109695000Y-57870000D01*
G75*
G02*
X109545000Y-57720000I0J150000D01*
G01*
X109545000Y-56070000D01*
G75*
G02*
X109695000Y-55920000I150000J0D01*
G01*
X109995000Y-55920000D01*
G75*
G02*
X110145000Y-56070000I0J-150000D01*
G01*
X110145000Y-57720000D01*
G75*
G02*
X109995000Y-57870000I-150000J0D01*
G01*
G37*
G36*
G01*
X109995000Y-62820000D02*
X109695000Y-62820000D01*
G75*
G02*
X109545000Y-62670000I0J150000D01*
G01*
X109545000Y-61020000D01*
G75*
G02*
X109695000Y-60870000I150000J0D01*
G01*
X109995000Y-60870000D01*
G75*
G02*
X110145000Y-61020000I0J-150000D01*
G01*
X110145000Y-62670000D01*
G75*
G02*
X109995000Y-62820000I-150000J0D01*
G01*
G37*
G36*
G01*
X108725000Y-62820000D02*
X108425000Y-62820000D01*
G75*
G02*
X108275000Y-62670000I0J150000D01*
G01*
X108275000Y-61020000D01*
G75*
G02*
X108425000Y-60870000I150000J0D01*
G01*
X108725000Y-60870000D01*
G75*
G02*
X108875000Y-61020000I0J-150000D01*
G01*
X108875000Y-62670000D01*
G75*
G02*
X108725000Y-62820000I-150000J0D01*
G01*
G37*
G36*
G01*
X107455000Y-62820000D02*
X107155000Y-62820000D01*
G75*
G02*
X107005000Y-62670000I0J150000D01*
G01*
X107005000Y-61020000D01*
G75*
G02*
X107155000Y-60870000I150000J0D01*
G01*
X107455000Y-60870000D01*
G75*
G02*
X107605000Y-61020000I0J-150000D01*
G01*
X107605000Y-62670000D01*
G75*
G02*
X107455000Y-62820000I-150000J0D01*
G01*
G37*
G36*
G01*
X106185000Y-62820000D02*
X105885000Y-62820000D01*
G75*
G02*
X105735000Y-62670000I0J150000D01*
G01*
X105735000Y-61020000D01*
G75*
G02*
X105885000Y-60870000I150000J0D01*
G01*
X106185000Y-60870000D01*
G75*
G02*
X106335000Y-61020000I0J-150000D01*
G01*
X106335000Y-62670000D01*
G75*
G02*
X106185000Y-62820000I-150000J0D01*
G01*
G37*
D15*
X112520000Y-56880000D03*
X114520000Y-55930000D03*
X114520000Y-57830000D03*
G36*
G01*
X122977000Y-57006000D02*
X122677000Y-57006000D01*
G75*
G02*
X122527000Y-56856000I0J150000D01*
G01*
X122527000Y-55206000D01*
G75*
G02*
X122677000Y-55056000I150000J0D01*
G01*
X122977000Y-55056000D01*
G75*
G02*
X123127000Y-55206000I0J-150000D01*
G01*
X123127000Y-56856000D01*
G75*
G02*
X122977000Y-57006000I-150000J0D01*
G01*
G37*
G36*
G01*
X124247000Y-57006000D02*
X123947000Y-57006000D01*
G75*
G02*
X123797000Y-56856000I0J150000D01*
G01*
X123797000Y-55206000D01*
G75*
G02*
X123947000Y-55056000I150000J0D01*
G01*
X124247000Y-55056000D01*
G75*
G02*
X124397000Y-55206000I0J-150000D01*
G01*
X124397000Y-56856000D01*
G75*
G02*
X124247000Y-57006000I-150000J0D01*
G01*
G37*
G36*
G01*
X125517000Y-57006000D02*
X125217000Y-57006000D01*
G75*
G02*
X125067000Y-56856000I0J150000D01*
G01*
X125067000Y-55206000D01*
G75*
G02*
X125217000Y-55056000I150000J0D01*
G01*
X125517000Y-55056000D01*
G75*
G02*
X125667000Y-55206000I0J-150000D01*
G01*
X125667000Y-56856000D01*
G75*
G02*
X125517000Y-57006000I-150000J0D01*
G01*
G37*
G36*
G01*
X126787000Y-57006000D02*
X126487000Y-57006000D01*
G75*
G02*
X126337000Y-56856000I0J150000D01*
G01*
X126337000Y-55206000D01*
G75*
G02*
X126487000Y-55056000I150000J0D01*
G01*
X126787000Y-55056000D01*
G75*
G02*
X126937000Y-55206000I0J-150000D01*
G01*
X126937000Y-56856000D01*
G75*
G02*
X126787000Y-57006000I-150000J0D01*
G01*
G37*
G36*
G01*
X126787000Y-61956000D02*
X126487000Y-61956000D01*
G75*
G02*
X126337000Y-61806000I0J150000D01*
G01*
X126337000Y-60156000D01*
G75*
G02*
X126487000Y-60006000I150000J0D01*
G01*
X126787000Y-60006000D01*
G75*
G02*
X126937000Y-60156000I0J-150000D01*
G01*
X126937000Y-61806000D01*
G75*
G02*
X126787000Y-61956000I-150000J0D01*
G01*
G37*
G36*
G01*
X125517000Y-61956000D02*
X125217000Y-61956000D01*
G75*
G02*
X125067000Y-61806000I0J150000D01*
G01*
X125067000Y-60156000D01*
G75*
G02*
X125217000Y-60006000I150000J0D01*
G01*
X125517000Y-60006000D01*
G75*
G02*
X125667000Y-60156000I0J-150000D01*
G01*
X125667000Y-61806000D01*
G75*
G02*
X125517000Y-61956000I-150000J0D01*
G01*
G37*
G36*
G01*
X124247000Y-61956000D02*
X123947000Y-61956000D01*
G75*
G02*
X123797000Y-61806000I0J150000D01*
G01*
X123797000Y-60156000D01*
G75*
G02*
X123947000Y-60006000I150000J0D01*
G01*
X124247000Y-60006000D01*
G75*
G02*
X124397000Y-60156000I0J-150000D01*
G01*
X124397000Y-61806000D01*
G75*
G02*
X124247000Y-61956000I-150000J0D01*
G01*
G37*
G36*
G01*
X122977000Y-61956000D02*
X122677000Y-61956000D01*
G75*
G02*
X122527000Y-61806000I0J150000D01*
G01*
X122527000Y-60156000D01*
G75*
G02*
X122677000Y-60006000I150000J0D01*
G01*
X122977000Y-60006000D01*
G75*
G02*
X123127000Y-60156000I0J-150000D01*
G01*
X123127000Y-61806000D01*
G75*
G02*
X122977000Y-61956000I-150000J0D01*
G01*
G37*
X130830000Y-58440000D03*
X128830000Y-59390000D03*
X128830000Y-57490000D03*
D18*
X75735000Y-54610000D03*
X73985000Y-54610000D03*
X73985000Y-53210000D03*
X75735000Y-53210000D03*
G36*
G01*
X173992250Y-95636500D02*
X173479750Y-95636500D01*
G75*
G02*
X173261000Y-95417750I0J218750D01*
G01*
X173261000Y-94980250D01*
G75*
G02*
X173479750Y-94761500I218750J0D01*
G01*
X173992250Y-94761500D01*
G75*
G02*
X174211000Y-94980250I0J-218750D01*
G01*
X174211000Y-95417750D01*
G75*
G02*
X173992250Y-95636500I-218750J0D01*
G01*
G37*
G36*
G01*
X173992250Y-97211500D02*
X173479750Y-97211500D01*
G75*
G02*
X173261000Y-96992750I0J218750D01*
G01*
X173261000Y-96555250D01*
G75*
G02*
X173479750Y-96336500I218750J0D01*
G01*
X173992250Y-96336500D01*
G75*
G02*
X174211000Y-96555250I0J-218750D01*
G01*
X174211000Y-96992750D01*
G75*
G02*
X173992250Y-97211500I-218750J0D01*
G01*
G37*
D12*
X174220000Y-61880000D03*
X174220000Y-57580000D03*
D19*
X154845500Y-54851000D03*
X154845500Y-56401000D03*
X156050500Y-54851000D03*
X156050500Y-56401000D03*
D20*
X158228000Y-53721000D03*
X158228000Y-54991000D03*
X158228000Y-56261000D03*
X158228000Y-57531000D03*
X152668000Y-57531000D03*
X152668000Y-56261000D03*
X152668000Y-54991000D03*
X152668000Y-53721000D03*
G36*
G01*
X172609999Y-46435000D02*
X175510001Y-46435000D01*
G75*
G02*
X175760000Y-46684999I0J-249999D01*
G01*
X175760000Y-47310001D01*
G75*
G02*
X175510001Y-47560000I-249999J0D01*
G01*
X172609999Y-47560000D01*
G75*
G02*
X172360000Y-47310001I0J249999D01*
G01*
X172360000Y-46684999D01*
G75*
G02*
X172609999Y-46435000I249999J0D01*
G01*
G37*
G36*
G01*
X172609999Y-42160000D02*
X175510001Y-42160000D01*
G75*
G02*
X175760000Y-42409999I0J-249999D01*
G01*
X175760000Y-43035001D01*
G75*
G02*
X175510001Y-43285000I-249999J0D01*
G01*
X172609999Y-43285000D01*
G75*
G02*
X172360000Y-43035001I0J249999D01*
G01*
X172360000Y-42409999D01*
G75*
G02*
X172609999Y-42160000I249999J0D01*
G01*
G37*
D21*
X157350000Y-64980000D03*
X149050000Y-64980000D03*
G36*
G01*
X125110000Y-53706250D02*
X125110000Y-53193750D01*
G75*
G02*
X125328750Y-52975000I218750J0D01*
G01*
X125766250Y-52975000D01*
G75*
G02*
X125985000Y-53193750I0J-218750D01*
G01*
X125985000Y-53706250D01*
G75*
G02*
X125766250Y-53925000I-218750J0D01*
G01*
X125328750Y-53925000D01*
G75*
G02*
X125110000Y-53706250I0J218750D01*
G01*
G37*
G36*
G01*
X123535000Y-53706250D02*
X123535000Y-53193750D01*
G75*
G02*
X123753750Y-52975000I218750J0D01*
G01*
X124191250Y-52975000D01*
G75*
G02*
X124410000Y-53193750I0J-218750D01*
G01*
X124410000Y-53706250D01*
G75*
G02*
X124191250Y-53925000I-218750J0D01*
G01*
X123753750Y-53925000D01*
G75*
G02*
X123535000Y-53706250I0J218750D01*
G01*
G37*
G36*
G01*
X51390000Y-96009750D02*
X51390000Y-96522250D01*
G75*
G02*
X51171250Y-96741000I-218750J0D01*
G01*
X50733750Y-96741000D01*
G75*
G02*
X50515000Y-96522250I0J218750D01*
G01*
X50515000Y-96009750D01*
G75*
G02*
X50733750Y-95791000I218750J0D01*
G01*
X51171250Y-95791000D01*
G75*
G02*
X51390000Y-96009750I0J-218750D01*
G01*
G37*
G36*
G01*
X52965000Y-96009750D02*
X52965000Y-96522250D01*
G75*
G02*
X52746250Y-96741000I-218750J0D01*
G01*
X52308750Y-96741000D01*
G75*
G02*
X52090000Y-96522250I0J218750D01*
G01*
X52090000Y-96009750D01*
G75*
G02*
X52308750Y-95791000I218750J0D01*
G01*
X52746250Y-95791000D01*
G75*
G02*
X52965000Y-96009750I0J-218750D01*
G01*
G37*
G36*
G01*
X68670000Y-62356250D02*
X68670000Y-61843750D01*
G75*
G02*
X68888750Y-61625000I218750J0D01*
G01*
X69326250Y-61625000D01*
G75*
G02*
X69545000Y-61843750I0J-218750D01*
G01*
X69545000Y-62356250D01*
G75*
G02*
X69326250Y-62575000I-218750J0D01*
G01*
X68888750Y-62575000D01*
G75*
G02*
X68670000Y-62356250I0J218750D01*
G01*
G37*
G36*
G01*
X67095000Y-62356250D02*
X67095000Y-61843750D01*
G75*
G02*
X67313750Y-61625000I218750J0D01*
G01*
X67751250Y-61625000D01*
G75*
G02*
X67970000Y-61843750I0J-218750D01*
G01*
X67970000Y-62356250D01*
G75*
G02*
X67751250Y-62575000I-218750J0D01*
G01*
X67313750Y-62575000D01*
G75*
G02*
X67095000Y-62356250I0J218750D01*
G01*
G37*
G36*
G01*
X46987750Y-95830000D02*
X47500250Y-95830000D01*
G75*
G02*
X47719000Y-96048750I0J-218750D01*
G01*
X47719000Y-96486250D01*
G75*
G02*
X47500250Y-96705000I-218750J0D01*
G01*
X46987750Y-96705000D01*
G75*
G02*
X46769000Y-96486250I0J218750D01*
G01*
X46769000Y-96048750D01*
G75*
G02*
X46987750Y-95830000I218750J0D01*
G01*
G37*
G36*
G01*
X46987750Y-94255000D02*
X47500250Y-94255000D01*
G75*
G02*
X47719000Y-94473750I0J-218750D01*
G01*
X47719000Y-94911250D01*
G75*
G02*
X47500250Y-95130000I-218750J0D01*
G01*
X46987750Y-95130000D01*
G75*
G02*
X46769000Y-94911250I0J218750D01*
G01*
X46769000Y-94473750D01*
G75*
G02*
X46987750Y-94255000I218750J0D01*
G01*
G37*
G36*
G01*
X52011000Y-66307000D02*
X54161000Y-66307000D01*
G75*
G02*
X54411000Y-66557000I0J-250000D01*
G01*
X54411000Y-67307000D01*
G75*
G02*
X54161000Y-67557000I-250000J0D01*
G01*
X52011000Y-67557000D01*
G75*
G02*
X51761000Y-67307000I0J250000D01*
G01*
X51761000Y-66557000D01*
G75*
G02*
X52011000Y-66307000I250000J0D01*
G01*
G37*
G36*
G01*
X52011000Y-63507000D02*
X54161000Y-63507000D01*
G75*
G02*
X54411000Y-63757000I0J-250000D01*
G01*
X54411000Y-64507000D01*
G75*
G02*
X54161000Y-64757000I-250000J0D01*
G01*
X52011000Y-64757000D01*
G75*
G02*
X51761000Y-64507000I0J250000D01*
G01*
X51761000Y-63757000D01*
G75*
G02*
X52011000Y-63507000I250000J0D01*
G01*
G37*
G36*
G01*
X111563750Y-94950000D02*
X112076250Y-94950000D01*
G75*
G02*
X112295000Y-95168750I0J-218750D01*
G01*
X112295000Y-95606250D01*
G75*
G02*
X112076250Y-95825000I-218750J0D01*
G01*
X111563750Y-95825000D01*
G75*
G02*
X111345000Y-95606250I0J218750D01*
G01*
X111345000Y-95168750D01*
G75*
G02*
X111563750Y-94950000I218750J0D01*
G01*
G37*
G36*
G01*
X111563750Y-93375000D02*
X112076250Y-93375000D01*
G75*
G02*
X112295000Y-93593750I0J-218750D01*
G01*
X112295000Y-94031250D01*
G75*
G02*
X112076250Y-94250000I-218750J0D01*
G01*
X111563750Y-94250000D01*
G75*
G02*
X111345000Y-94031250I0J218750D01*
G01*
X111345000Y-93593750D01*
G75*
G02*
X111563750Y-93375000I218750J0D01*
G01*
G37*
G36*
G01*
X60647000Y-66561000D02*
X62797000Y-66561000D01*
G75*
G02*
X63047000Y-66811000I0J-250000D01*
G01*
X63047000Y-67561000D01*
G75*
G02*
X62797000Y-67811000I-250000J0D01*
G01*
X60647000Y-67811000D01*
G75*
G02*
X60397000Y-67561000I0J250000D01*
G01*
X60397000Y-66811000D01*
G75*
G02*
X60647000Y-66561000I250000J0D01*
G01*
G37*
G36*
G01*
X60647000Y-63761000D02*
X62797000Y-63761000D01*
G75*
G02*
X63047000Y-64011000I0J-250000D01*
G01*
X63047000Y-64761000D01*
G75*
G02*
X62797000Y-65011000I-250000J0D01*
G01*
X60647000Y-65011000D01*
G75*
G02*
X60397000Y-64761000I0J250000D01*
G01*
X60397000Y-64011000D01*
G75*
G02*
X60647000Y-63761000I250000J0D01*
G01*
G37*
G36*
G01*
X74927750Y-68676000D02*
X75440250Y-68676000D01*
G75*
G02*
X75659000Y-68894750I0J-218750D01*
G01*
X75659000Y-69332250D01*
G75*
G02*
X75440250Y-69551000I-218750J0D01*
G01*
X74927750Y-69551000D01*
G75*
G02*
X74709000Y-69332250I0J218750D01*
G01*
X74709000Y-68894750D01*
G75*
G02*
X74927750Y-68676000I218750J0D01*
G01*
G37*
G36*
G01*
X74927750Y-67101000D02*
X75440250Y-67101000D01*
G75*
G02*
X75659000Y-67319750I0J-218750D01*
G01*
X75659000Y-67757250D01*
G75*
G02*
X75440250Y-67976000I-218750J0D01*
G01*
X74927750Y-67976000D01*
G75*
G02*
X74709000Y-67757250I0J218750D01*
G01*
X74709000Y-67319750D01*
G75*
G02*
X74927750Y-67101000I218750J0D01*
G01*
G37*
G36*
G01*
X55473750Y-65370000D02*
X55986250Y-65370000D01*
G75*
G02*
X56205000Y-65588750I0J-218750D01*
G01*
X56205000Y-66026250D01*
G75*
G02*
X55986250Y-66245000I-218750J0D01*
G01*
X55473750Y-66245000D01*
G75*
G02*
X55255000Y-66026250I0J218750D01*
G01*
X55255000Y-65588750D01*
G75*
G02*
X55473750Y-65370000I218750J0D01*
G01*
G37*
G36*
G01*
X55473750Y-63795000D02*
X55986250Y-63795000D01*
G75*
G02*
X56205000Y-64013750I0J-218750D01*
G01*
X56205000Y-64451250D01*
G75*
G02*
X55986250Y-64670000I-218750J0D01*
G01*
X55473750Y-64670000D01*
G75*
G02*
X55255000Y-64451250I0J218750D01*
G01*
X55255000Y-64013750D01*
G75*
G02*
X55473750Y-63795000I218750J0D01*
G01*
G37*
G36*
G01*
X48765750Y-95830000D02*
X49278250Y-95830000D01*
G75*
G02*
X49497000Y-96048750I0J-218750D01*
G01*
X49497000Y-96486250D01*
G75*
G02*
X49278250Y-96705000I-218750J0D01*
G01*
X48765750Y-96705000D01*
G75*
G02*
X48547000Y-96486250I0J218750D01*
G01*
X48547000Y-96048750D01*
G75*
G02*
X48765750Y-95830000I218750J0D01*
G01*
G37*
G36*
G01*
X48765750Y-94255000D02*
X49278250Y-94255000D01*
G75*
G02*
X49497000Y-94473750I0J-218750D01*
G01*
X49497000Y-94911250D01*
G75*
G02*
X49278250Y-95130000I-218750J0D01*
G01*
X48765750Y-95130000D01*
G75*
G02*
X48547000Y-94911250I0J218750D01*
G01*
X48547000Y-94473750D01*
G75*
G02*
X48765750Y-94255000I218750J0D01*
G01*
G37*
G36*
G01*
X64513750Y-65882000D02*
X65026250Y-65882000D01*
G75*
G02*
X65245000Y-66100750I0J-218750D01*
G01*
X65245000Y-66538250D01*
G75*
G02*
X65026250Y-66757000I-218750J0D01*
G01*
X64513750Y-66757000D01*
G75*
G02*
X64295000Y-66538250I0J218750D01*
G01*
X64295000Y-66100750D01*
G75*
G02*
X64513750Y-65882000I218750J0D01*
G01*
G37*
G36*
G01*
X64513750Y-64307000D02*
X65026250Y-64307000D01*
G75*
G02*
X65245000Y-64525750I0J-218750D01*
G01*
X65245000Y-64963250D01*
G75*
G02*
X65026250Y-65182000I-218750J0D01*
G01*
X64513750Y-65182000D01*
G75*
G02*
X64295000Y-64963250I0J218750D01*
G01*
X64295000Y-64525750D01*
G75*
G02*
X64513750Y-64307000I218750J0D01*
G01*
G37*
G36*
G01*
X112846250Y-80240000D02*
X112333750Y-80240000D01*
G75*
G02*
X112115000Y-80021250I0J218750D01*
G01*
X112115000Y-79583750D01*
G75*
G02*
X112333750Y-79365000I218750J0D01*
G01*
X112846250Y-79365000D01*
G75*
G02*
X113065000Y-79583750I0J-218750D01*
G01*
X113065000Y-80021250D01*
G75*
G02*
X112846250Y-80240000I-218750J0D01*
G01*
G37*
G36*
G01*
X112846250Y-81815000D02*
X112333750Y-81815000D01*
G75*
G02*
X112115000Y-81596250I0J218750D01*
G01*
X112115000Y-81158750D01*
G75*
G02*
X112333750Y-80940000I218750J0D01*
G01*
X112846250Y-80940000D01*
G75*
G02*
X113065000Y-81158750I0J-218750D01*
G01*
X113065000Y-81596250D01*
G75*
G02*
X112846250Y-81815000I-218750J0D01*
G01*
G37*
G36*
G01*
X65080000Y-62626250D02*
X65080000Y-62113750D01*
G75*
G02*
X65298750Y-61895000I218750J0D01*
G01*
X65736250Y-61895000D01*
G75*
G02*
X65955000Y-62113750I0J-218750D01*
G01*
X65955000Y-62626250D01*
G75*
G02*
X65736250Y-62845000I-218750J0D01*
G01*
X65298750Y-62845000D01*
G75*
G02*
X65080000Y-62626250I0J218750D01*
G01*
G37*
G36*
G01*
X63505000Y-62626250D02*
X63505000Y-62113750D01*
G75*
G02*
X63723750Y-61895000I218750J0D01*
G01*
X64161250Y-61895000D01*
G75*
G02*
X64380000Y-62113750I0J-218750D01*
G01*
X64380000Y-62626250D01*
G75*
G02*
X64161250Y-62845000I-218750J0D01*
G01*
X63723750Y-62845000D01*
G75*
G02*
X63505000Y-62626250I0J218750D01*
G01*
G37*
G36*
G01*
X71569000Y-69863000D02*
X73719000Y-69863000D01*
G75*
G02*
X73969000Y-70113000I0J-250000D01*
G01*
X73969000Y-70863000D01*
G75*
G02*
X73719000Y-71113000I-250000J0D01*
G01*
X71569000Y-71113000D01*
G75*
G02*
X71319000Y-70863000I0J250000D01*
G01*
X71319000Y-70113000D01*
G75*
G02*
X71569000Y-69863000I250000J0D01*
G01*
G37*
G36*
G01*
X71569000Y-67063000D02*
X73719000Y-67063000D01*
G75*
G02*
X73969000Y-67313000I0J-250000D01*
G01*
X73969000Y-68063000D01*
G75*
G02*
X73719000Y-68313000I-250000J0D01*
G01*
X71569000Y-68313000D01*
G75*
G02*
X71319000Y-68063000I0J250000D01*
G01*
X71319000Y-67313000D01*
G75*
G02*
X71569000Y-67063000I250000J0D01*
G01*
G37*
G36*
G01*
X83253750Y-77470000D02*
X83766250Y-77470000D01*
G75*
G02*
X83985000Y-77688750I0J-218750D01*
G01*
X83985000Y-78126250D01*
G75*
G02*
X83766250Y-78345000I-218750J0D01*
G01*
X83253750Y-78345000D01*
G75*
G02*
X83035000Y-78126250I0J218750D01*
G01*
X83035000Y-77688750D01*
G75*
G02*
X83253750Y-77470000I218750J0D01*
G01*
G37*
G36*
G01*
X83253750Y-75895000D02*
X83766250Y-75895000D01*
G75*
G02*
X83985000Y-76113750I0J-218750D01*
G01*
X83985000Y-76551250D01*
G75*
G02*
X83766250Y-76770000I-218750J0D01*
G01*
X83253750Y-76770000D01*
G75*
G02*
X83035000Y-76551250I0J218750D01*
G01*
X83035000Y-76113750D01*
G75*
G02*
X83253750Y-75895000I218750J0D01*
G01*
G37*
G36*
G01*
X68323750Y-65882000D02*
X68836250Y-65882000D01*
G75*
G02*
X69055000Y-66100750I0J-218750D01*
G01*
X69055000Y-66538250D01*
G75*
G02*
X68836250Y-66757000I-218750J0D01*
G01*
X68323750Y-66757000D01*
G75*
G02*
X68105000Y-66538250I0J218750D01*
G01*
X68105000Y-66100750D01*
G75*
G02*
X68323750Y-65882000I218750J0D01*
G01*
G37*
G36*
G01*
X68323750Y-64307000D02*
X68836250Y-64307000D01*
G75*
G02*
X69055000Y-64525750I0J-218750D01*
G01*
X69055000Y-64963250D01*
G75*
G02*
X68836250Y-65182000I-218750J0D01*
G01*
X68323750Y-65182000D01*
G75*
G02*
X68105000Y-64963250I0J218750D01*
G01*
X68105000Y-64525750D01*
G75*
G02*
X68323750Y-64307000I218750J0D01*
G01*
G37*
G36*
G01*
X65645000Y-53309000D02*
X63495000Y-53309000D01*
G75*
G02*
X63245000Y-53059000I0J250000D01*
G01*
X63245000Y-52309000D01*
G75*
G02*
X63495000Y-52059000I250000J0D01*
G01*
X65645000Y-52059000D01*
G75*
G02*
X65895000Y-52309000I0J-250000D01*
G01*
X65895000Y-53059000D01*
G75*
G02*
X65645000Y-53309000I-250000J0D01*
G01*
G37*
G36*
G01*
X65645000Y-56109000D02*
X63495000Y-56109000D01*
G75*
G02*
X63245000Y-55859000I0J250000D01*
G01*
X63245000Y-55109000D01*
G75*
G02*
X63495000Y-54859000I250000J0D01*
G01*
X65645000Y-54859000D01*
G75*
G02*
X65895000Y-55109000I0J-250000D01*
G01*
X65895000Y-55859000D01*
G75*
G02*
X65645000Y-56109000I-250000J0D01*
G01*
G37*
G36*
G01*
X70106250Y-69500000D02*
X69593750Y-69500000D01*
G75*
G02*
X69375000Y-69281250I0J218750D01*
G01*
X69375000Y-68843750D01*
G75*
G02*
X69593750Y-68625000I218750J0D01*
G01*
X70106250Y-68625000D01*
G75*
G02*
X70325000Y-68843750I0J-218750D01*
G01*
X70325000Y-69281250D01*
G75*
G02*
X70106250Y-69500000I-218750J0D01*
G01*
G37*
G36*
G01*
X70106250Y-71075000D02*
X69593750Y-71075000D01*
G75*
G02*
X69375000Y-70856250I0J218750D01*
G01*
X69375000Y-70418750D01*
G75*
G02*
X69593750Y-70200000I218750J0D01*
G01*
X70106250Y-70200000D01*
G75*
G02*
X70325000Y-70418750I0J-218750D01*
G01*
X70325000Y-70856250D01*
G75*
G02*
X70106250Y-71075000I-218750J0D01*
G01*
G37*
G36*
G01*
X87016250Y-65440000D02*
X86503750Y-65440000D01*
G75*
G02*
X86285000Y-65221250I0J218750D01*
G01*
X86285000Y-64783750D01*
G75*
G02*
X86503750Y-64565000I218750J0D01*
G01*
X87016250Y-64565000D01*
G75*
G02*
X87235000Y-64783750I0J-218750D01*
G01*
X87235000Y-65221250D01*
G75*
G02*
X87016250Y-65440000I-218750J0D01*
G01*
G37*
G36*
G01*
X87016250Y-67015000D02*
X86503750Y-67015000D01*
G75*
G02*
X86285000Y-66796250I0J218750D01*
G01*
X86285000Y-66358750D01*
G75*
G02*
X86503750Y-66140000I218750J0D01*
G01*
X87016250Y-66140000D01*
G75*
G02*
X87235000Y-66358750I0J-218750D01*
G01*
X87235000Y-66796250D01*
G75*
G02*
X87016250Y-67015000I-218750J0D01*
G01*
G37*
G36*
G01*
X118660000Y-89283750D02*
X118660000Y-89796250D01*
G75*
G02*
X118441250Y-90015000I-218750J0D01*
G01*
X118003750Y-90015000D01*
G75*
G02*
X117785000Y-89796250I0J218750D01*
G01*
X117785000Y-89283750D01*
G75*
G02*
X118003750Y-89065000I218750J0D01*
G01*
X118441250Y-89065000D01*
G75*
G02*
X118660000Y-89283750I0J-218750D01*
G01*
G37*
G36*
G01*
X120235000Y-89283750D02*
X120235000Y-89796250D01*
G75*
G02*
X120016250Y-90015000I-218750J0D01*
G01*
X119578750Y-90015000D01*
G75*
G02*
X119360000Y-89796250I0J218750D01*
G01*
X119360000Y-89283750D01*
G75*
G02*
X119578750Y-89065000I218750J0D01*
G01*
X120016250Y-89065000D01*
G75*
G02*
X120235000Y-89283750I0J-218750D01*
G01*
G37*
G36*
G01*
X85436250Y-65460000D02*
X84923750Y-65460000D01*
G75*
G02*
X84705000Y-65241250I0J218750D01*
G01*
X84705000Y-64803750D01*
G75*
G02*
X84923750Y-64585000I218750J0D01*
G01*
X85436250Y-64585000D01*
G75*
G02*
X85655000Y-64803750I0J-218750D01*
G01*
X85655000Y-65241250D01*
G75*
G02*
X85436250Y-65460000I-218750J0D01*
G01*
G37*
G36*
G01*
X85436250Y-67035000D02*
X84923750Y-67035000D01*
G75*
G02*
X84705000Y-66816250I0J218750D01*
G01*
X84705000Y-66378750D01*
G75*
G02*
X84923750Y-66160000I218750J0D01*
G01*
X85436250Y-66160000D01*
G75*
G02*
X85655000Y-66378750I0J-218750D01*
G01*
X85655000Y-66816250D01*
G75*
G02*
X85436250Y-67035000I-218750J0D01*
G01*
G37*
G36*
G01*
X76705750Y-68676000D02*
X77218250Y-68676000D01*
G75*
G02*
X77437000Y-68894750I0J-218750D01*
G01*
X77437000Y-69332250D01*
G75*
G02*
X77218250Y-69551000I-218750J0D01*
G01*
X76705750Y-69551000D01*
G75*
G02*
X76487000Y-69332250I0J218750D01*
G01*
X76487000Y-68894750D01*
G75*
G02*
X76705750Y-68676000I218750J0D01*
G01*
G37*
G36*
G01*
X76705750Y-67101000D02*
X77218250Y-67101000D01*
G75*
G02*
X77437000Y-67319750I0J-218750D01*
G01*
X77437000Y-67757250D01*
G75*
G02*
X77218250Y-67976000I-218750J0D01*
G01*
X76705750Y-67976000D01*
G75*
G02*
X76487000Y-67757250I0J218750D01*
G01*
X76487000Y-67319750D01*
G75*
G02*
X76705750Y-67101000I218750J0D01*
G01*
G37*
G36*
G01*
X52070000Y-94786250D02*
X52070000Y-94273750D01*
G75*
G02*
X52288750Y-94055000I218750J0D01*
G01*
X52726250Y-94055000D01*
G75*
G02*
X52945000Y-94273750I0J-218750D01*
G01*
X52945000Y-94786250D01*
G75*
G02*
X52726250Y-95005000I-218750J0D01*
G01*
X52288750Y-95005000D01*
G75*
G02*
X52070000Y-94786250I0J218750D01*
G01*
G37*
G36*
G01*
X50495000Y-94786250D02*
X50495000Y-94273750D01*
G75*
G02*
X50713750Y-94055000I218750J0D01*
G01*
X51151250Y-94055000D01*
G75*
G02*
X51370000Y-94273750I0J-218750D01*
G01*
X51370000Y-94786250D01*
G75*
G02*
X51151250Y-95005000I-218750J0D01*
G01*
X50713750Y-95005000D01*
G75*
G02*
X50495000Y-94786250I0J218750D01*
G01*
G37*
G36*
G01*
X164706250Y-61630000D02*
X164193750Y-61630000D01*
G75*
G02*
X163975000Y-61411250I0J218750D01*
G01*
X163975000Y-60973750D01*
G75*
G02*
X164193750Y-60755000I218750J0D01*
G01*
X164706250Y-60755000D01*
G75*
G02*
X164925000Y-60973750I0J-218750D01*
G01*
X164925000Y-61411250D01*
G75*
G02*
X164706250Y-61630000I-218750J0D01*
G01*
G37*
G36*
G01*
X164706250Y-63205000D02*
X164193750Y-63205000D01*
G75*
G02*
X163975000Y-62986250I0J218750D01*
G01*
X163975000Y-62548750D01*
G75*
G02*
X164193750Y-62330000I218750J0D01*
G01*
X164706250Y-62330000D01*
G75*
G02*
X164925000Y-62548750I0J-218750D01*
G01*
X164925000Y-62986250D01*
G75*
G02*
X164706250Y-63205000I-218750J0D01*
G01*
G37*
G36*
G01*
X63643750Y-60394000D02*
X64156250Y-60394000D01*
G75*
G02*
X64375000Y-60612750I0J-218750D01*
G01*
X64375000Y-61050250D01*
G75*
G02*
X64156250Y-61269000I-218750J0D01*
G01*
X63643750Y-61269000D01*
G75*
G02*
X63425000Y-61050250I0J218750D01*
G01*
X63425000Y-60612750D01*
G75*
G02*
X63643750Y-60394000I218750J0D01*
G01*
G37*
G36*
G01*
X63643750Y-58819000D02*
X64156250Y-58819000D01*
G75*
G02*
X64375000Y-59037750I0J-218750D01*
G01*
X64375000Y-59475250D01*
G75*
G02*
X64156250Y-59694000I-218750J0D01*
G01*
X63643750Y-59694000D01*
G75*
G02*
X63425000Y-59475250I0J218750D01*
G01*
X63425000Y-59037750D01*
G75*
G02*
X63643750Y-58819000I218750J0D01*
G01*
G37*
G36*
G01*
X65323750Y-60384000D02*
X65836250Y-60384000D01*
G75*
G02*
X66055000Y-60602750I0J-218750D01*
G01*
X66055000Y-61040250D01*
G75*
G02*
X65836250Y-61259000I-218750J0D01*
G01*
X65323750Y-61259000D01*
G75*
G02*
X65105000Y-61040250I0J218750D01*
G01*
X65105000Y-60602750D01*
G75*
G02*
X65323750Y-60384000I218750J0D01*
G01*
G37*
G36*
G01*
X65323750Y-58809000D02*
X65836250Y-58809000D01*
G75*
G02*
X66055000Y-59027750I0J-218750D01*
G01*
X66055000Y-59465250D01*
G75*
G02*
X65836250Y-59684000I-218750J0D01*
G01*
X65323750Y-59684000D01*
G75*
G02*
X65105000Y-59465250I0J218750D01*
G01*
X65105000Y-59027750D01*
G75*
G02*
X65323750Y-58809000I218750J0D01*
G01*
G37*
G36*
G01*
X81531750Y-59786000D02*
X82044250Y-59786000D01*
G75*
G02*
X82263000Y-60004750I0J-218750D01*
G01*
X82263000Y-60442250D01*
G75*
G02*
X82044250Y-60661000I-218750J0D01*
G01*
X81531750Y-60661000D01*
G75*
G02*
X81313000Y-60442250I0J218750D01*
G01*
X81313000Y-60004750D01*
G75*
G02*
X81531750Y-59786000I218750J0D01*
G01*
G37*
G36*
G01*
X81531750Y-58211000D02*
X82044250Y-58211000D01*
G75*
G02*
X82263000Y-58429750I0J-218750D01*
G01*
X82263000Y-58867250D01*
G75*
G02*
X82044250Y-59086000I-218750J0D01*
G01*
X81531750Y-59086000D01*
G75*
G02*
X81313000Y-58867250I0J218750D01*
G01*
X81313000Y-58429750D01*
G75*
G02*
X81531750Y-58211000I218750J0D01*
G01*
G37*
G36*
G01*
X121245750Y-73402000D02*
X121758250Y-73402000D01*
G75*
G02*
X121977000Y-73620750I0J-218750D01*
G01*
X121977000Y-74058250D01*
G75*
G02*
X121758250Y-74277000I-218750J0D01*
G01*
X121245750Y-74277000D01*
G75*
G02*
X121027000Y-74058250I0J218750D01*
G01*
X121027000Y-73620750D01*
G75*
G02*
X121245750Y-73402000I218750J0D01*
G01*
G37*
G36*
G01*
X121245750Y-71827000D02*
X121758250Y-71827000D01*
G75*
G02*
X121977000Y-72045750I0J-218750D01*
G01*
X121977000Y-72483250D01*
G75*
G02*
X121758250Y-72702000I-218750J0D01*
G01*
X121245750Y-72702000D01*
G75*
G02*
X121027000Y-72483250I0J218750D01*
G01*
X121027000Y-72045750D01*
G75*
G02*
X121245750Y-71827000I218750J0D01*
G01*
G37*
G36*
G01*
X67339750Y-70332000D02*
X67852250Y-70332000D01*
G75*
G02*
X68071000Y-70550750I0J-218750D01*
G01*
X68071000Y-70988250D01*
G75*
G02*
X67852250Y-71207000I-218750J0D01*
G01*
X67339750Y-71207000D01*
G75*
G02*
X67121000Y-70988250I0J218750D01*
G01*
X67121000Y-70550750D01*
G75*
G02*
X67339750Y-70332000I218750J0D01*
G01*
G37*
G36*
G01*
X67339750Y-68757000D02*
X67852250Y-68757000D01*
G75*
G02*
X68071000Y-68975750I0J-218750D01*
G01*
X68071000Y-69413250D01*
G75*
G02*
X67852250Y-69632000I-218750J0D01*
G01*
X67339750Y-69632000D01*
G75*
G02*
X67121000Y-69413250I0J218750D01*
G01*
X67121000Y-68975750D01*
G75*
G02*
X67339750Y-68757000I218750J0D01*
G01*
G37*
G36*
G01*
X69016250Y-53114000D02*
X68503750Y-53114000D01*
G75*
G02*
X68285000Y-52895250I0J218750D01*
G01*
X68285000Y-52457750D01*
G75*
G02*
X68503750Y-52239000I218750J0D01*
G01*
X69016250Y-52239000D01*
G75*
G02*
X69235000Y-52457750I0J-218750D01*
G01*
X69235000Y-52895250D01*
G75*
G02*
X69016250Y-53114000I-218750J0D01*
G01*
G37*
G36*
G01*
X69016250Y-54689000D02*
X68503750Y-54689000D01*
G75*
G02*
X68285000Y-54470250I0J218750D01*
G01*
X68285000Y-54032750D01*
G75*
G02*
X68503750Y-53814000I218750J0D01*
G01*
X69016250Y-53814000D01*
G75*
G02*
X69235000Y-54032750I0J-218750D01*
G01*
X69235000Y-54470250D01*
G75*
G02*
X69016250Y-54689000I-218750J0D01*
G01*
G37*
G36*
G01*
X68853750Y-60144000D02*
X69366250Y-60144000D01*
G75*
G02*
X69585000Y-60362750I0J-218750D01*
G01*
X69585000Y-60800250D01*
G75*
G02*
X69366250Y-61019000I-218750J0D01*
G01*
X68853750Y-61019000D01*
G75*
G02*
X68635000Y-60800250I0J218750D01*
G01*
X68635000Y-60362750D01*
G75*
G02*
X68853750Y-60144000I218750J0D01*
G01*
G37*
G36*
G01*
X68853750Y-58569000D02*
X69366250Y-58569000D01*
G75*
G02*
X69585000Y-58787750I0J-218750D01*
G01*
X69585000Y-59225250D01*
G75*
G02*
X69366250Y-59444000I-218750J0D01*
G01*
X68853750Y-59444000D01*
G75*
G02*
X68635000Y-59225250I0J218750D01*
G01*
X68635000Y-58787750D01*
G75*
G02*
X68853750Y-58569000I218750J0D01*
G01*
G37*
G36*
G01*
X65375750Y-70314000D02*
X65888250Y-70314000D01*
G75*
G02*
X66107000Y-70532750I0J-218750D01*
G01*
X66107000Y-70970250D01*
G75*
G02*
X65888250Y-71189000I-218750J0D01*
G01*
X65375750Y-71189000D01*
G75*
G02*
X65157000Y-70970250I0J218750D01*
G01*
X65157000Y-70532750D01*
G75*
G02*
X65375750Y-70314000I218750J0D01*
G01*
G37*
G36*
G01*
X65375750Y-68739000D02*
X65888250Y-68739000D01*
G75*
G02*
X66107000Y-68957750I0J-218750D01*
G01*
X66107000Y-69395250D01*
G75*
G02*
X65888250Y-69614000I-218750J0D01*
G01*
X65375750Y-69614000D01*
G75*
G02*
X65157000Y-69395250I0J218750D01*
G01*
X65157000Y-68957750D01*
G75*
G02*
X65375750Y-68739000I218750J0D01*
G01*
G37*
G36*
G01*
X119467750Y-73402000D02*
X119980250Y-73402000D01*
G75*
G02*
X120199000Y-73620750I0J-218750D01*
G01*
X120199000Y-74058250D01*
G75*
G02*
X119980250Y-74277000I-218750J0D01*
G01*
X119467750Y-74277000D01*
G75*
G02*
X119249000Y-74058250I0J218750D01*
G01*
X119249000Y-73620750D01*
G75*
G02*
X119467750Y-73402000I218750J0D01*
G01*
G37*
G36*
G01*
X119467750Y-71827000D02*
X119980250Y-71827000D01*
G75*
G02*
X120199000Y-72045750I0J-218750D01*
G01*
X120199000Y-72483250D01*
G75*
G02*
X119980250Y-72702000I-218750J0D01*
G01*
X119467750Y-72702000D01*
G75*
G02*
X119249000Y-72483250I0J218750D01*
G01*
X119249000Y-72045750D01*
G75*
G02*
X119467750Y-71827000I218750J0D01*
G01*
G37*
G36*
G01*
X73510000Y-98653750D02*
X73510000Y-99166250D01*
G75*
G02*
X73291250Y-99385000I-218750J0D01*
G01*
X72853750Y-99385000D01*
G75*
G02*
X72635000Y-99166250I0J218750D01*
G01*
X72635000Y-98653750D01*
G75*
G02*
X72853750Y-98435000I218750J0D01*
G01*
X73291250Y-98435000D01*
G75*
G02*
X73510000Y-98653750I0J-218750D01*
G01*
G37*
G36*
G01*
X75085000Y-98653750D02*
X75085000Y-99166250D01*
G75*
G02*
X74866250Y-99385000I-218750J0D01*
G01*
X74428750Y-99385000D01*
G75*
G02*
X74210000Y-99166250I0J218750D01*
G01*
X74210000Y-98653750D01*
G75*
G02*
X74428750Y-98435000I218750J0D01*
G01*
X74866250Y-98435000D01*
G75*
G02*
X75085000Y-98653750I0J-218750D01*
G01*
G37*
G36*
G01*
X114873750Y-80950000D02*
X115386250Y-80950000D01*
G75*
G02*
X115605000Y-81168750I0J-218750D01*
G01*
X115605000Y-81606250D01*
G75*
G02*
X115386250Y-81825000I-218750J0D01*
G01*
X114873750Y-81825000D01*
G75*
G02*
X114655000Y-81606250I0J218750D01*
G01*
X114655000Y-81168750D01*
G75*
G02*
X114873750Y-80950000I218750J0D01*
G01*
G37*
G36*
G01*
X114873750Y-79375000D02*
X115386250Y-79375000D01*
G75*
G02*
X115605000Y-79593750I0J-218750D01*
G01*
X115605000Y-80031250D01*
G75*
G02*
X115386250Y-80250000I-218750J0D01*
G01*
X114873750Y-80250000D01*
G75*
G02*
X114655000Y-80031250I0J218750D01*
G01*
X114655000Y-79593750D01*
G75*
G02*
X114873750Y-79375000I218750J0D01*
G01*
G37*
G36*
G01*
X75806250Y-91430000D02*
X75293750Y-91430000D01*
G75*
G02*
X75075000Y-91211250I0J218750D01*
G01*
X75075000Y-90773750D01*
G75*
G02*
X75293750Y-90555000I218750J0D01*
G01*
X75806250Y-90555000D01*
G75*
G02*
X76025000Y-90773750I0J-218750D01*
G01*
X76025000Y-91211250D01*
G75*
G02*
X75806250Y-91430000I-218750J0D01*
G01*
G37*
G36*
G01*
X75806250Y-93005000D02*
X75293750Y-93005000D01*
G75*
G02*
X75075000Y-92786250I0J218750D01*
G01*
X75075000Y-92348750D01*
G75*
G02*
X75293750Y-92130000I218750J0D01*
G01*
X75806250Y-92130000D01*
G75*
G02*
X76025000Y-92348750I0J-218750D01*
G01*
X76025000Y-92786250D01*
G75*
G02*
X75806250Y-93005000I-218750J0D01*
G01*
G37*
G36*
G01*
X67243750Y-60164000D02*
X67756250Y-60164000D01*
G75*
G02*
X67975000Y-60382750I0J-218750D01*
G01*
X67975000Y-60820250D01*
G75*
G02*
X67756250Y-61039000I-218750J0D01*
G01*
X67243750Y-61039000D01*
G75*
G02*
X67025000Y-60820250I0J218750D01*
G01*
X67025000Y-60382750D01*
G75*
G02*
X67243750Y-60164000I218750J0D01*
G01*
G37*
G36*
G01*
X67243750Y-58589000D02*
X67756250Y-58589000D01*
G75*
G02*
X67975000Y-58807750I0J-218750D01*
G01*
X67975000Y-59245250D01*
G75*
G02*
X67756250Y-59464000I-218750J0D01*
G01*
X67243750Y-59464000D01*
G75*
G02*
X67025000Y-59245250I0J218750D01*
G01*
X67025000Y-58807750D01*
G75*
G02*
X67243750Y-58589000I218750J0D01*
G01*
G37*
G36*
G01*
X78483750Y-68676000D02*
X78996250Y-68676000D01*
G75*
G02*
X79215000Y-68894750I0J-218750D01*
G01*
X79215000Y-69332250D01*
G75*
G02*
X78996250Y-69551000I-218750J0D01*
G01*
X78483750Y-69551000D01*
G75*
G02*
X78265000Y-69332250I0J218750D01*
G01*
X78265000Y-68894750D01*
G75*
G02*
X78483750Y-68676000I218750J0D01*
G01*
G37*
G36*
G01*
X78483750Y-67101000D02*
X78996250Y-67101000D01*
G75*
G02*
X79215000Y-67319750I0J-218750D01*
G01*
X79215000Y-67757250D01*
G75*
G02*
X78996250Y-67976000I-218750J0D01*
G01*
X78483750Y-67976000D01*
G75*
G02*
X78265000Y-67757250I0J218750D01*
G01*
X78265000Y-67319750D01*
G75*
G02*
X78483750Y-67101000I218750J0D01*
G01*
G37*
G36*
G01*
X84807500Y-77630000D02*
X85152500Y-77630000D01*
G75*
G02*
X85300000Y-77777500I0J-147500D01*
G01*
X85300000Y-78072500D01*
G75*
G02*
X85152500Y-78220000I-147500J0D01*
G01*
X84807500Y-78220000D01*
G75*
G02*
X84660000Y-78072500I0J147500D01*
G01*
X84660000Y-77777500D01*
G75*
G02*
X84807500Y-77630000I147500J0D01*
G01*
G37*
G36*
G01*
X84807500Y-76660000D02*
X85152500Y-76660000D01*
G75*
G02*
X85300000Y-76807500I0J-147500D01*
G01*
X85300000Y-77102500D01*
G75*
G02*
X85152500Y-77250000I-147500J0D01*
G01*
X84807500Y-77250000D01*
G75*
G02*
X84660000Y-77102500I0J147500D01*
G01*
X84660000Y-76807500D01*
G75*
G02*
X84807500Y-76660000I147500J0D01*
G01*
G37*
G36*
G01*
X118720000Y-91143750D02*
X118720000Y-91656250D01*
G75*
G02*
X118501250Y-91875000I-218750J0D01*
G01*
X118063750Y-91875000D01*
G75*
G02*
X117845000Y-91656250I0J218750D01*
G01*
X117845000Y-91143750D01*
G75*
G02*
X118063750Y-90925000I218750J0D01*
G01*
X118501250Y-90925000D01*
G75*
G02*
X118720000Y-91143750I0J-218750D01*
G01*
G37*
G36*
G01*
X120295000Y-91143750D02*
X120295000Y-91656250D01*
G75*
G02*
X120076250Y-91875000I-218750J0D01*
G01*
X119638750Y-91875000D01*
G75*
G02*
X119420000Y-91656250I0J218750D01*
G01*
X119420000Y-91143750D01*
G75*
G02*
X119638750Y-90925000I218750J0D01*
G01*
X120076250Y-90925000D01*
G75*
G02*
X120295000Y-91143750I0J-218750D01*
G01*
G37*
G36*
G01*
X125660000Y-79965000D02*
X125660000Y-80265000D01*
G75*
G02*
X125510000Y-80415000I-150000J0D01*
G01*
X123860000Y-80415000D01*
G75*
G02*
X123710000Y-80265000I0J150000D01*
G01*
X123710000Y-79965000D01*
G75*
G02*
X123860000Y-79815000I150000J0D01*
G01*
X125510000Y-79815000D01*
G75*
G02*
X125660000Y-79965000I0J-150000D01*
G01*
G37*
G36*
G01*
X125660000Y-78695000D02*
X125660000Y-78995000D01*
G75*
G02*
X125510000Y-79145000I-150000J0D01*
G01*
X123860000Y-79145000D01*
G75*
G02*
X123710000Y-78995000I0J150000D01*
G01*
X123710000Y-78695000D01*
G75*
G02*
X123860000Y-78545000I150000J0D01*
G01*
X125510000Y-78545000D01*
G75*
G02*
X125660000Y-78695000I0J-150000D01*
G01*
G37*
G36*
G01*
X125660000Y-77425000D02*
X125660000Y-77725000D01*
G75*
G02*
X125510000Y-77875000I-150000J0D01*
G01*
X123860000Y-77875000D01*
G75*
G02*
X123710000Y-77725000I0J150000D01*
G01*
X123710000Y-77425000D01*
G75*
G02*
X123860000Y-77275000I150000J0D01*
G01*
X125510000Y-77275000D01*
G75*
G02*
X125660000Y-77425000I0J-150000D01*
G01*
G37*
G36*
G01*
X125660000Y-76155000D02*
X125660000Y-76455000D01*
G75*
G02*
X125510000Y-76605000I-150000J0D01*
G01*
X123860000Y-76605000D01*
G75*
G02*
X123710000Y-76455000I0J150000D01*
G01*
X123710000Y-76155000D01*
G75*
G02*
X123860000Y-76005000I150000J0D01*
G01*
X125510000Y-76005000D01*
G75*
G02*
X125660000Y-76155000I0J-150000D01*
G01*
G37*
G36*
G01*
X130610000Y-76155000D02*
X130610000Y-76455000D01*
G75*
G02*
X130460000Y-76605000I-150000J0D01*
G01*
X128810000Y-76605000D01*
G75*
G02*
X128660000Y-76455000I0J150000D01*
G01*
X128660000Y-76155000D01*
G75*
G02*
X128810000Y-76005000I150000J0D01*
G01*
X130460000Y-76005000D01*
G75*
G02*
X130610000Y-76155000I0J-150000D01*
G01*
G37*
G36*
G01*
X130610000Y-77425000D02*
X130610000Y-77725000D01*
G75*
G02*
X130460000Y-77875000I-150000J0D01*
G01*
X128810000Y-77875000D01*
G75*
G02*
X128660000Y-77725000I0J150000D01*
G01*
X128660000Y-77425000D01*
G75*
G02*
X128810000Y-77275000I150000J0D01*
G01*
X130460000Y-77275000D01*
G75*
G02*
X130610000Y-77425000I0J-150000D01*
G01*
G37*
G36*
G01*
X130610000Y-78695000D02*
X130610000Y-78995000D01*
G75*
G02*
X130460000Y-79145000I-150000J0D01*
G01*
X128810000Y-79145000D01*
G75*
G02*
X128660000Y-78995000I0J150000D01*
G01*
X128660000Y-78695000D01*
G75*
G02*
X128810000Y-78545000I150000J0D01*
G01*
X130460000Y-78545000D01*
G75*
G02*
X130610000Y-78695000I0J-150000D01*
G01*
G37*
G36*
G01*
X130610000Y-79965000D02*
X130610000Y-80265000D01*
G75*
G02*
X130460000Y-80415000I-150000J0D01*
G01*
X128810000Y-80415000D01*
G75*
G02*
X128660000Y-80265000I0J150000D01*
G01*
X128660000Y-79965000D01*
G75*
G02*
X128810000Y-79815000I150000J0D01*
G01*
X130460000Y-79815000D01*
G75*
G02*
X130610000Y-79965000I0J-150000D01*
G01*
G37*
D10*
X75570000Y-89250000D03*
X74620000Y-87250000D03*
X76520000Y-87250000D03*
D22*
X132110000Y-82740000D03*
X129610000Y-82740000D03*
G36*
G01*
X131888250Y-70838000D02*
X131375750Y-70838000D01*
G75*
G02*
X131157000Y-70619250I0J218750D01*
G01*
X131157000Y-70181750D01*
G75*
G02*
X131375750Y-69963000I218750J0D01*
G01*
X131888250Y-69963000D01*
G75*
G02*
X132107000Y-70181750I0J-218750D01*
G01*
X132107000Y-70619250D01*
G75*
G02*
X131888250Y-70838000I-218750J0D01*
G01*
G37*
G36*
G01*
X131888250Y-72413000D02*
X131375750Y-72413000D01*
G75*
G02*
X131157000Y-72194250I0J218750D01*
G01*
X131157000Y-71756750D01*
G75*
G02*
X131375750Y-71538000I218750J0D01*
G01*
X131888250Y-71538000D01*
G75*
G02*
X132107000Y-71756750I0J-218750D01*
G01*
X132107000Y-72194250D01*
G75*
G02*
X131888250Y-72413000I-218750J0D01*
G01*
G37*
D23*
X106105000Y-84440000D03*
X106755000Y-84440000D03*
X107405000Y-84440000D03*
X108055000Y-84440000D03*
X108705000Y-84440000D03*
X109355000Y-84440000D03*
X110005000Y-84440000D03*
X110655000Y-84440000D03*
X111305000Y-84440000D03*
X111955000Y-84440000D03*
X112605000Y-84440000D03*
X113255000Y-84440000D03*
X113905000Y-84440000D03*
X114555000Y-84440000D03*
X114555000Y-91640000D03*
X113905000Y-91640000D03*
X113255000Y-91640000D03*
X112605000Y-91640000D03*
X111955000Y-91640000D03*
X111305000Y-91640000D03*
X110655000Y-91640000D03*
X110005000Y-91640000D03*
X109355000Y-91640000D03*
X108705000Y-91640000D03*
X108055000Y-91640000D03*
X107405000Y-91640000D03*
X106755000Y-91640000D03*
X106105000Y-91640000D03*
G36*
G01*
X161700000Y-56423750D02*
X161700000Y-56936250D01*
G75*
G02*
X161481250Y-57155000I-218750J0D01*
G01*
X161043750Y-57155000D01*
G75*
G02*
X160825000Y-56936250I0J218750D01*
G01*
X160825000Y-56423750D01*
G75*
G02*
X161043750Y-56205000I218750J0D01*
G01*
X161481250Y-56205000D01*
G75*
G02*
X161700000Y-56423750I0J-218750D01*
G01*
G37*
G36*
G01*
X163275000Y-56423750D02*
X163275000Y-56936250D01*
G75*
G02*
X163056250Y-57155000I-218750J0D01*
G01*
X162618750Y-57155000D01*
G75*
G02*
X162400000Y-56936250I0J218750D01*
G01*
X162400000Y-56423750D01*
G75*
G02*
X162618750Y-56205000I218750J0D01*
G01*
X163056250Y-56205000D01*
G75*
G02*
X163275000Y-56423750I0J-218750D01*
G01*
G37*
G36*
G01*
X135223750Y-66357500D02*
X135736250Y-66357500D01*
G75*
G02*
X135955000Y-66576250I0J-218750D01*
G01*
X135955000Y-67013750D01*
G75*
G02*
X135736250Y-67232500I-218750J0D01*
G01*
X135223750Y-67232500D01*
G75*
G02*
X135005000Y-67013750I0J218750D01*
G01*
X135005000Y-66576250D01*
G75*
G02*
X135223750Y-66357500I218750J0D01*
G01*
G37*
G36*
G01*
X135223750Y-64782500D02*
X135736250Y-64782500D01*
G75*
G02*
X135955000Y-65001250I0J-218750D01*
G01*
X135955000Y-65438750D01*
G75*
G02*
X135736250Y-65657500I-218750J0D01*
G01*
X135223750Y-65657500D01*
G75*
G02*
X135005000Y-65438750I0J218750D01*
G01*
X135005000Y-65001250D01*
G75*
G02*
X135223750Y-64782500I218750J0D01*
G01*
G37*
G36*
G01*
X66545750Y-65882000D02*
X67058250Y-65882000D01*
G75*
G02*
X67277000Y-66100750I0J-218750D01*
G01*
X67277000Y-66538250D01*
G75*
G02*
X67058250Y-66757000I-218750J0D01*
G01*
X66545750Y-66757000D01*
G75*
G02*
X66327000Y-66538250I0J218750D01*
G01*
X66327000Y-66100750D01*
G75*
G02*
X66545750Y-65882000I218750J0D01*
G01*
G37*
G36*
G01*
X66545750Y-64307000D02*
X67058250Y-64307000D01*
G75*
G02*
X67277000Y-64525750I0J-218750D01*
G01*
X67277000Y-64963250D01*
G75*
G02*
X67058250Y-65182000I-218750J0D01*
G01*
X66545750Y-65182000D01*
G75*
G02*
X66327000Y-64963250I0J218750D01*
G01*
X66327000Y-64525750D01*
G75*
G02*
X66545750Y-64307000I218750J0D01*
G01*
G37*
D24*
X46170000Y-73450000D03*
X47440000Y-73450000D03*
X48710000Y-73450000D03*
X49980000Y-73450000D03*
X51250000Y-73450000D03*
X52520000Y-73450000D03*
X53790000Y-73450000D03*
X55060000Y-73450000D03*
X56330000Y-73450000D03*
X57600000Y-73450000D03*
X58870000Y-73450000D03*
X60140000Y-73450000D03*
X61410000Y-73450000D03*
X62680000Y-73450000D03*
D25*
X64170000Y-76735000D03*
X64170000Y-78005000D03*
X64170000Y-79275000D03*
X64170000Y-80545000D03*
X64170000Y-81815000D03*
X64170000Y-83085000D03*
X64170000Y-84355000D03*
X64170000Y-85625000D03*
X64170000Y-86895000D03*
X64170000Y-88165000D03*
D24*
X62680000Y-91450000D03*
X61410000Y-91450000D03*
X60140000Y-91450000D03*
X58870000Y-91450000D03*
X57600000Y-91450000D03*
X56330000Y-91450000D03*
X55060000Y-91450000D03*
X53790000Y-91450000D03*
X52520000Y-91450000D03*
X51250000Y-91450000D03*
X49980000Y-91450000D03*
X48710000Y-91450000D03*
X47440000Y-91450000D03*
X46170000Y-91450000D03*
D26*
X53870000Y-82750000D03*
D27*
X136815000Y-55090000D03*
X136815000Y-52490000D03*
X136815000Y-46140000D03*
X145165000Y-46140000D03*
X145165000Y-48890000D03*
X145165000Y-53940000D03*
D28*
X154178000Y-87630000D03*
X154178000Y-86360000D03*
X154178000Y-85090000D03*
D29*
X167513000Y-89496900D03*
X166243000Y-89496900D03*
X164973000Y-89496900D03*
X163703000Y-89496900D03*
X162433000Y-89496900D03*
X161163000Y-89496900D03*
X159893000Y-89496900D03*
X158623000Y-89496900D03*
X157353000Y-89496900D03*
X156083000Y-89496900D03*
X166243000Y-79209900D03*
X167513000Y-79209900D03*
X164973000Y-79209900D03*
X163703000Y-79209900D03*
X161163000Y-79209900D03*
X162433000Y-79209900D03*
X159893000Y-79209900D03*
X158623000Y-79209900D03*
X157353000Y-79209900D03*
X156083000Y-79209900D03*
D28*
X154178000Y-83820000D03*
X154178000Y-82550000D03*
X154178000Y-81178400D03*
D30*
X169408000Y-92506800D03*
X171958000Y-92506800D03*
X170688000Y-92506800D03*
X165598000Y-92506800D03*
X164338000Y-92506800D03*
X168148000Y-92506800D03*
X163068000Y-92506800D03*
X157978000Y-92506800D03*
X161788000Y-92506800D03*
X160528000Y-92506800D03*
X166878000Y-92506800D03*
X159258000Y-92506800D03*
X156718000Y-92506800D03*
X154168000Y-92506800D03*
X155448000Y-92506800D03*
X169408000Y-76200000D03*
X171958000Y-76200000D03*
X170688000Y-76200000D03*
X165598000Y-76200000D03*
X168148000Y-76200000D03*
X166878000Y-76200000D03*
X164338000Y-76200000D03*
X161788000Y-76200000D03*
X163068000Y-76200000D03*
X160528000Y-76200000D03*
X157978000Y-76200000D03*
X159258000Y-76200000D03*
X156718000Y-76200000D03*
X155448000Y-76200000D03*
X154168000Y-76200000D03*
D31*
X140690000Y-77520000D03*
D32*
X140690000Y-93320000D03*
M02*
