G04 #@! TF.GenerationSoftware,KiCad,Pcbnew,5.1.6-c6e7f7d~87~ubuntu20.04.1*
G04 #@! TF.CreationDate,2020-09-15T10:48:53+07:00*
G04 #@! TF.ProjectId,pas-hw,7061732d-6877-42e6-9b69-6361645f7063,rev?*
G04 #@! TF.SameCoordinates,Original*
G04 #@! TF.FileFunction,Soldermask,Bot*
G04 #@! TF.FilePolarity,Negative*
%FSLAX46Y46*%
G04 Gerber Fmt 4.6, Leading zero omitted, Abs format (unit mm)*
G04 Created by KiCad (PCBNEW 5.1.6-c6e7f7d~87~ubuntu20.04.1) date 2020-09-15 10:48:53*
%MOMM*%
%LPD*%
G01*
G04 APERTURE LIST*
%ADD10C,0.100000*%
G04 APERTURE END LIST*
D10*
G36*
X165610000Y-124710000D02*
G01*
X160210000Y-124710000D01*
X160210000Y-116810000D01*
X165610000Y-116810000D01*
X165610000Y-124710000D01*
G37*
G36*
X150610000Y-124700000D02*
G01*
X145210000Y-124700000D01*
X145210000Y-116800000D01*
X150610000Y-116800000D01*
X150610000Y-124700000D01*
G37*
G36*
X172560000Y-124690000D02*
G01*
X167160000Y-124690000D01*
X167160000Y-116790000D01*
X172560000Y-116790000D01*
X172560000Y-124690000D01*
G37*
G36*
X79650000Y-124690000D02*
G01*
X74250000Y-124690000D01*
X74250000Y-116790000D01*
X79650000Y-116790000D01*
X79650000Y-124690000D01*
G37*
G36*
X94500000Y-124690000D02*
G01*
X89100000Y-124690000D01*
X89100000Y-116790000D01*
X94500000Y-116790000D01*
X94500000Y-124690000D01*
G37*
G36*
X157560000Y-124680000D02*
G01*
X152160000Y-124680000D01*
X152160000Y-116780000D01*
X157560000Y-116780000D01*
X157560000Y-124680000D01*
G37*
G36*
X86600000Y-124670000D02*
G01*
X81200000Y-124670000D01*
X81200000Y-116770000D01*
X86600000Y-116770000D01*
X86600000Y-124670000D01*
G37*
G36*
X101450000Y-124670000D02*
G01*
X96050000Y-124670000D01*
X96050000Y-116770000D01*
X101450000Y-116770000D01*
X101450000Y-124670000D01*
G37*
G36*
X135610000Y-124660000D02*
G01*
X130210000Y-124660000D01*
X130210000Y-116760000D01*
X135610000Y-116760000D01*
X135610000Y-124660000D01*
G37*
G36*
X142560000Y-124640000D02*
G01*
X137160000Y-124640000D01*
X137160000Y-116740000D01*
X142560000Y-116740000D01*
X142560000Y-124640000D01*
G37*
G36*
X120610000Y-124610000D02*
G01*
X115210000Y-124610000D01*
X115210000Y-116710000D01*
X120610000Y-116710000D01*
X120610000Y-124610000D01*
G37*
G36*
X127560000Y-124590000D02*
G01*
X122160000Y-124590000D01*
X122160000Y-116690000D01*
X127560000Y-116690000D01*
X127560000Y-124590000D01*
G37*
G36*
X64540000Y-124520000D02*
G01*
X59140000Y-124520000D01*
X59140000Y-116620000D01*
X64540000Y-116620000D01*
X64540000Y-124520000D01*
G37*
G36*
X71490000Y-124500000D02*
G01*
X66090000Y-124500000D01*
X66090000Y-116600000D01*
X71490000Y-116600000D01*
X71490000Y-124500000D01*
G37*
G36*
X49530000Y-124500000D02*
G01*
X44130000Y-124500000D01*
X44130000Y-116600000D01*
X49530000Y-116600000D01*
X49530000Y-124500000D01*
G37*
G36*
X56480000Y-124480000D02*
G01*
X51080000Y-124480000D01*
X51080000Y-116580000D01*
X56480000Y-116580000D01*
X56480000Y-124480000D01*
G37*
G36*
X108603559Y-115757088D02*
G01*
X108755519Y-115820032D01*
X108755521Y-115820033D01*
X108892281Y-115911413D01*
X109008587Y-116027719D01*
X109099968Y-116164481D01*
X109162912Y-116316441D01*
X109195000Y-116477758D01*
X109195000Y-116642242D01*
X109162912Y-116803559D01*
X109099968Y-116955519D01*
X109099967Y-116955521D01*
X109008587Y-117092281D01*
X108892281Y-117208587D01*
X108755521Y-117299967D01*
X108755520Y-117299968D01*
X108755519Y-117299968D01*
X108603559Y-117362912D01*
X108442242Y-117395000D01*
X108277758Y-117395000D01*
X108116441Y-117362912D01*
X107964481Y-117299968D01*
X107964480Y-117299968D01*
X107964479Y-117299967D01*
X107827719Y-117208587D01*
X107711413Y-117092281D01*
X107620033Y-116955521D01*
X107620032Y-116955519D01*
X107557088Y-116803559D01*
X107525000Y-116642242D01*
X107525000Y-116477758D01*
X107557088Y-116316441D01*
X107620032Y-116164481D01*
X107711413Y-116027719D01*
X107827719Y-115911413D01*
X107964479Y-115820033D01*
X107964481Y-115820032D01*
X108116441Y-115757088D01*
X108277758Y-115725000D01*
X108442242Y-115725000D01*
X108603559Y-115757088D01*
G37*
G36*
X101232734Y-113670154D02*
G01*
X101446569Y-113758728D01*
X101446571Y-113758729D01*
X101639019Y-113887318D01*
X101802682Y-114050981D01*
X101931271Y-114243429D01*
X101931272Y-114243431D01*
X102019846Y-114457266D01*
X102065000Y-114684271D01*
X102065000Y-114915729D01*
X102019846Y-115142734D01*
X101934578Y-115348587D01*
X101931271Y-115356571D01*
X101802682Y-115549019D01*
X101639019Y-115712682D01*
X101446571Y-115841271D01*
X101446570Y-115841272D01*
X101446569Y-115841272D01*
X101232734Y-115929846D01*
X101005729Y-115975000D01*
X100774271Y-115975000D01*
X100547266Y-115929846D01*
X100333431Y-115841272D01*
X100333430Y-115841272D01*
X100333429Y-115841271D01*
X100140981Y-115712682D01*
X99977318Y-115549019D01*
X99848729Y-115356571D01*
X99845422Y-115348587D01*
X99760154Y-115142734D01*
X99715000Y-114915729D01*
X99715000Y-114684271D01*
X99760154Y-114457266D01*
X99848728Y-114243431D01*
X99848729Y-114243429D01*
X99977318Y-114050981D01*
X100140981Y-113887318D01*
X100333429Y-113758729D01*
X100333431Y-113758728D01*
X100547266Y-113670154D01*
X100774271Y-113625000D01*
X101005729Y-113625000D01*
X101232734Y-113670154D01*
G37*
G36*
X69692734Y-113610154D02*
G01*
X69902612Y-113697089D01*
X69906571Y-113698729D01*
X70099019Y-113827318D01*
X70262682Y-113990981D01*
X70380471Y-114167266D01*
X70391272Y-114183431D01*
X70479846Y-114397266D01*
X70525000Y-114624271D01*
X70525000Y-114855729D01*
X70479846Y-115082734D01*
X70406826Y-115259018D01*
X70391271Y-115296571D01*
X70262682Y-115489019D01*
X70099019Y-115652682D01*
X69906571Y-115781271D01*
X69906570Y-115781272D01*
X69906569Y-115781272D01*
X69692734Y-115869846D01*
X69465729Y-115915000D01*
X69234271Y-115915000D01*
X69007266Y-115869846D01*
X68793431Y-115781272D01*
X68793430Y-115781272D01*
X68793429Y-115781271D01*
X68600981Y-115652682D01*
X68437318Y-115489019D01*
X68308729Y-115296571D01*
X68293174Y-115259018D01*
X68220154Y-115082734D01*
X68175000Y-114855729D01*
X68175000Y-114624271D01*
X68220154Y-114397266D01*
X68308728Y-114183431D01*
X68319529Y-114167266D01*
X68437318Y-113990981D01*
X68600981Y-113827318D01*
X68793429Y-113698729D01*
X68797388Y-113697089D01*
X69007266Y-113610154D01*
X69234271Y-113565000D01*
X69465729Y-113565000D01*
X69692734Y-113610154D01*
G37*
G36*
X85462734Y-113610154D02*
G01*
X85672612Y-113697089D01*
X85676571Y-113698729D01*
X85869019Y-113827318D01*
X86032682Y-113990981D01*
X86150471Y-114167266D01*
X86161272Y-114183431D01*
X86249846Y-114397266D01*
X86295000Y-114624271D01*
X86295000Y-114855729D01*
X86249846Y-115082734D01*
X86176826Y-115259018D01*
X86161271Y-115296571D01*
X86032682Y-115489019D01*
X85869019Y-115652682D01*
X85676571Y-115781271D01*
X85676570Y-115781272D01*
X85676569Y-115781272D01*
X85462734Y-115869846D01*
X85235729Y-115915000D01*
X85004271Y-115915000D01*
X84777266Y-115869846D01*
X84563431Y-115781272D01*
X84563430Y-115781272D01*
X84563429Y-115781271D01*
X84370981Y-115652682D01*
X84207318Y-115489019D01*
X84078729Y-115296571D01*
X84063174Y-115259018D01*
X83990154Y-115082734D01*
X83945000Y-114855729D01*
X83945000Y-114624271D01*
X83990154Y-114397266D01*
X84078728Y-114183431D01*
X84089529Y-114167266D01*
X84207318Y-113990981D01*
X84370981Y-113827318D01*
X84563429Y-113698729D01*
X84567388Y-113697089D01*
X84777266Y-113610154D01*
X85004271Y-113565000D01*
X85235729Y-113565000D01*
X85462734Y-113610154D01*
G37*
G36*
X121642734Y-113460154D02*
G01*
X121856569Y-113548728D01*
X121856571Y-113548729D01*
X122049019Y-113677318D01*
X122212682Y-113840981D01*
X122341271Y-114033429D01*
X122341272Y-114033431D01*
X122429846Y-114247266D01*
X122475000Y-114474271D01*
X122475000Y-114705729D01*
X122429846Y-114932734D01*
X122342860Y-115142735D01*
X122341271Y-115146571D01*
X122212682Y-115339019D01*
X122049019Y-115502682D01*
X121856571Y-115631271D01*
X121856570Y-115631272D01*
X121856569Y-115631272D01*
X121642734Y-115719846D01*
X121415729Y-115765000D01*
X121184271Y-115765000D01*
X120957266Y-115719846D01*
X120743431Y-115631272D01*
X120743430Y-115631272D01*
X120743429Y-115631271D01*
X120550981Y-115502682D01*
X120387318Y-115339019D01*
X120258729Y-115146571D01*
X120257140Y-115142735D01*
X120170154Y-114932734D01*
X120125000Y-114705729D01*
X120125000Y-114474271D01*
X120170154Y-114247266D01*
X120258728Y-114033431D01*
X120258729Y-114033429D01*
X120387318Y-113840981D01*
X120550981Y-113677318D01*
X120743429Y-113548729D01*
X120743431Y-113548728D01*
X120957266Y-113460154D01*
X121184271Y-113415000D01*
X121415729Y-113415000D01*
X121642734Y-113460154D01*
G37*
G36*
X170552734Y-113430154D02*
G01*
X170718287Y-113498729D01*
X170766571Y-113518729D01*
X170959019Y-113647318D01*
X171122682Y-113810981D01*
X171242954Y-113990982D01*
X171251272Y-114003431D01*
X171339846Y-114217266D01*
X171385000Y-114444271D01*
X171385000Y-114675729D01*
X171339846Y-114902734D01*
X171251272Y-115116569D01*
X171251271Y-115116571D01*
X171122682Y-115309019D01*
X170959019Y-115472682D01*
X170766571Y-115601271D01*
X170766570Y-115601272D01*
X170766569Y-115601272D01*
X170552734Y-115689846D01*
X170325729Y-115735000D01*
X170094271Y-115735000D01*
X169867266Y-115689846D01*
X169653431Y-115601272D01*
X169653430Y-115601272D01*
X169653429Y-115601271D01*
X169460981Y-115472682D01*
X169297318Y-115309019D01*
X169168729Y-115116571D01*
X169168728Y-115116569D01*
X169080154Y-114902734D01*
X169035000Y-114675729D01*
X169035000Y-114444271D01*
X169080154Y-114217266D01*
X169168728Y-114003431D01*
X169177046Y-113990982D01*
X169297318Y-113810981D01*
X169460981Y-113647318D01*
X169653429Y-113518729D01*
X169701713Y-113498729D01*
X169867266Y-113430154D01*
X170094271Y-113385000D01*
X170325729Y-113385000D01*
X170552734Y-113430154D01*
G37*
G36*
X53942734Y-113410154D02*
G01*
X54156569Y-113498728D01*
X54156571Y-113498729D01*
X54349019Y-113627318D01*
X54512682Y-113790981D01*
X54625638Y-113960033D01*
X54641272Y-113983431D01*
X54729846Y-114197266D01*
X54775000Y-114424271D01*
X54775000Y-114655729D01*
X54729846Y-114882734D01*
X54647002Y-115082735D01*
X54641271Y-115096571D01*
X54512682Y-115289019D01*
X54349019Y-115452682D01*
X54156571Y-115581271D01*
X54156570Y-115581272D01*
X54156569Y-115581272D01*
X53942734Y-115669846D01*
X53715729Y-115715000D01*
X53484271Y-115715000D01*
X53257266Y-115669846D01*
X53043431Y-115581272D01*
X53043430Y-115581272D01*
X53043429Y-115581271D01*
X52850981Y-115452682D01*
X52687318Y-115289019D01*
X52558729Y-115096571D01*
X52552998Y-115082735D01*
X52470154Y-114882734D01*
X52425000Y-114655729D01*
X52425000Y-114424271D01*
X52470154Y-114197266D01*
X52558728Y-113983431D01*
X52574362Y-113960033D01*
X52687318Y-113790981D01*
X52850981Y-113627318D01*
X53043429Y-113498729D01*
X53043431Y-113498728D01*
X53257266Y-113410154D01*
X53484271Y-113365000D01*
X53715729Y-113365000D01*
X53942734Y-113410154D01*
G37*
G36*
X138622734Y-113380154D02*
G01*
X138815872Y-113460155D01*
X138836571Y-113468729D01*
X139029019Y-113597318D01*
X139192682Y-113760981D01*
X139310352Y-113937088D01*
X139321272Y-113953431D01*
X139409846Y-114167266D01*
X139455000Y-114394271D01*
X139455000Y-114625729D01*
X139409846Y-114852734D01*
X139329991Y-115045519D01*
X139321271Y-115066571D01*
X139192682Y-115259019D01*
X139029019Y-115422682D01*
X138836571Y-115551271D01*
X138836570Y-115551272D01*
X138836569Y-115551272D01*
X138622734Y-115639846D01*
X138395729Y-115685000D01*
X138164271Y-115685000D01*
X137937266Y-115639846D01*
X137723431Y-115551272D01*
X137723430Y-115551272D01*
X137723429Y-115551271D01*
X137530981Y-115422682D01*
X137367318Y-115259019D01*
X137238729Y-115066571D01*
X137230009Y-115045519D01*
X137150154Y-114852734D01*
X137105000Y-114625729D01*
X137105000Y-114394271D01*
X137150154Y-114167266D01*
X137238728Y-113953431D01*
X137249648Y-113937088D01*
X137367318Y-113760981D01*
X137530981Y-113597318D01*
X137723429Y-113468729D01*
X137744128Y-113460155D01*
X137937266Y-113380154D01*
X138164271Y-113335000D01*
X138395729Y-113335000D01*
X138622734Y-113380154D01*
G37*
G36*
X88523559Y-114027088D02*
G01*
X88675519Y-114090032D01*
X88675521Y-114090033D01*
X88812281Y-114181413D01*
X88928587Y-114297719D01*
X89013148Y-114424273D01*
X89019968Y-114434481D01*
X89082912Y-114586441D01*
X89115000Y-114747758D01*
X89115000Y-114912242D01*
X89082912Y-115073559D01*
X89021309Y-115222281D01*
X89019967Y-115225521D01*
X88928587Y-115362281D01*
X88812281Y-115478587D01*
X88675521Y-115569967D01*
X88675520Y-115569968D01*
X88675519Y-115569968D01*
X88523559Y-115632912D01*
X88362242Y-115665000D01*
X88197758Y-115665000D01*
X88036441Y-115632912D01*
X87884481Y-115569968D01*
X87884480Y-115569968D01*
X87884479Y-115569967D01*
X87747719Y-115478587D01*
X87631413Y-115362281D01*
X87540033Y-115225521D01*
X87538691Y-115222281D01*
X87477088Y-115073559D01*
X87445000Y-114912242D01*
X87445000Y-114747758D01*
X87477088Y-114586441D01*
X87540032Y-114434481D01*
X87546853Y-114424273D01*
X87631413Y-114297719D01*
X87747719Y-114181413D01*
X87884479Y-114090033D01*
X87884481Y-114090032D01*
X88036441Y-114027088D01*
X88197758Y-113995000D01*
X88362242Y-113995000D01*
X88523559Y-114027088D01*
G37*
G36*
X158023559Y-113937088D02*
G01*
X158175519Y-114000032D01*
X158175521Y-114000033D01*
X158312281Y-114091413D01*
X158428587Y-114207719D01*
X158509946Y-114329481D01*
X158519968Y-114344481D01*
X158582912Y-114496441D01*
X158615000Y-114657758D01*
X158615000Y-114822242D01*
X158582912Y-114983559D01*
X158526181Y-115120519D01*
X158519967Y-115135521D01*
X158428587Y-115272281D01*
X158312281Y-115388587D01*
X158175521Y-115479967D01*
X158175520Y-115479968D01*
X158175519Y-115479968D01*
X158023559Y-115542912D01*
X157862242Y-115575000D01*
X157697758Y-115575000D01*
X157536441Y-115542912D01*
X157384481Y-115479968D01*
X157384480Y-115479968D01*
X157384479Y-115479967D01*
X157247719Y-115388587D01*
X157131413Y-115272281D01*
X157040033Y-115135521D01*
X157033819Y-115120519D01*
X156977088Y-114983559D01*
X156945000Y-114822242D01*
X156945000Y-114657758D01*
X156977088Y-114496441D01*
X157040032Y-114344481D01*
X157050055Y-114329481D01*
X157131413Y-114207719D01*
X157247719Y-114091413D01*
X157384479Y-114000033D01*
X157384481Y-114000032D01*
X157536441Y-113937088D01*
X157697758Y-113905000D01*
X157862242Y-113905000D01*
X158023559Y-113937088D01*
G37*
G36*
X56943559Y-113922088D02*
G01*
X57095519Y-113985032D01*
X57095521Y-113985033D01*
X57232281Y-114076413D01*
X57348587Y-114192719D01*
X57423263Y-114304479D01*
X57439968Y-114329481D01*
X57502912Y-114481441D01*
X57535000Y-114642758D01*
X57535000Y-114807242D01*
X57502912Y-114968559D01*
X57441604Y-115116569D01*
X57439967Y-115120521D01*
X57348587Y-115257281D01*
X57232281Y-115373587D01*
X57095521Y-115464967D01*
X57095520Y-115464968D01*
X57095519Y-115464968D01*
X56943559Y-115527912D01*
X56782242Y-115560000D01*
X56617758Y-115560000D01*
X56456441Y-115527912D01*
X56304481Y-115464968D01*
X56304480Y-115464968D01*
X56304479Y-115464967D01*
X56167719Y-115373587D01*
X56051413Y-115257281D01*
X55960033Y-115120521D01*
X55958396Y-115116569D01*
X55897088Y-114968559D01*
X55865000Y-114807242D01*
X55865000Y-114642758D01*
X55897088Y-114481441D01*
X55960032Y-114329481D01*
X55976738Y-114304479D01*
X56051413Y-114192719D01*
X56167719Y-114076413D01*
X56304479Y-113985033D01*
X56304481Y-113985032D01*
X56456441Y-113922088D01*
X56617758Y-113890000D01*
X56782242Y-113890000D01*
X56943559Y-113922088D01*
G37*
G36*
X142303559Y-113897088D02*
G01*
X142455519Y-113960032D01*
X142455521Y-113960033D01*
X142592281Y-114051413D01*
X142708587Y-114167719D01*
X142793287Y-114294481D01*
X142799968Y-114304481D01*
X142862912Y-114456441D01*
X142895000Y-114617758D01*
X142895000Y-114782242D01*
X142862912Y-114943559D01*
X142805264Y-115082734D01*
X142799967Y-115095521D01*
X142708587Y-115232281D01*
X142592281Y-115348587D01*
X142455521Y-115439967D01*
X142455520Y-115439968D01*
X142455519Y-115439968D01*
X142303559Y-115502912D01*
X142142242Y-115535000D01*
X141977758Y-115535000D01*
X141816441Y-115502912D01*
X141664481Y-115439968D01*
X141664480Y-115439968D01*
X141664479Y-115439967D01*
X141527719Y-115348587D01*
X141411413Y-115232281D01*
X141320033Y-115095521D01*
X141314736Y-115082734D01*
X141257088Y-114943559D01*
X141225000Y-114782242D01*
X141225000Y-114617758D01*
X141257088Y-114456441D01*
X141320032Y-114304481D01*
X141326714Y-114294481D01*
X141411413Y-114167719D01*
X141527719Y-114051413D01*
X141664479Y-113960033D01*
X141664481Y-113960032D01*
X141816441Y-113897088D01*
X141977758Y-113865000D01*
X142142242Y-113865000D01*
X142303559Y-113897088D01*
G37*
G36*
X126103559Y-113887088D02*
G01*
X126255519Y-113950032D01*
X126255521Y-113950033D01*
X126392281Y-114041413D01*
X126508587Y-114157719D01*
X126568420Y-114247265D01*
X126599968Y-114294481D01*
X126662912Y-114446441D01*
X126695000Y-114607758D01*
X126695000Y-114772242D01*
X126662912Y-114933559D01*
X126601121Y-115082735D01*
X126599967Y-115085521D01*
X126508587Y-115222281D01*
X126392281Y-115338587D01*
X126255521Y-115429967D01*
X126255520Y-115429968D01*
X126255519Y-115429968D01*
X126103559Y-115492912D01*
X125942242Y-115525000D01*
X125777758Y-115525000D01*
X125616441Y-115492912D01*
X125464481Y-115429968D01*
X125464480Y-115429968D01*
X125464479Y-115429967D01*
X125327719Y-115338587D01*
X125211413Y-115222281D01*
X125120033Y-115085521D01*
X125118879Y-115082735D01*
X125057088Y-114933559D01*
X125025000Y-114772242D01*
X125025000Y-114607758D01*
X125057088Y-114446441D01*
X125120032Y-114294481D01*
X125151581Y-114247265D01*
X125211413Y-114157719D01*
X125327719Y-114041413D01*
X125464479Y-113950033D01*
X125464481Y-113950032D01*
X125616441Y-113887088D01*
X125777758Y-113855000D01*
X125942242Y-113855000D01*
X126103559Y-113887088D01*
G37*
G36*
X72663559Y-113847088D02*
G01*
X72815519Y-113910032D01*
X72815521Y-113910033D01*
X72952281Y-114001413D01*
X73068587Y-114117719D01*
X73155147Y-114247265D01*
X73159968Y-114254481D01*
X73222912Y-114406441D01*
X73255000Y-114567758D01*
X73255000Y-114732242D01*
X73222912Y-114893559D01*
X73165451Y-115032281D01*
X73159967Y-115045521D01*
X73068587Y-115182281D01*
X72952281Y-115298587D01*
X72815521Y-115389967D01*
X72815520Y-115389968D01*
X72815519Y-115389968D01*
X72663559Y-115452912D01*
X72502242Y-115485000D01*
X72337758Y-115485000D01*
X72176441Y-115452912D01*
X72024481Y-115389968D01*
X72024480Y-115389968D01*
X72024479Y-115389967D01*
X71887719Y-115298587D01*
X71771413Y-115182281D01*
X71680033Y-115045521D01*
X71674549Y-115032281D01*
X71617088Y-114893559D01*
X71585000Y-114732242D01*
X71585000Y-114567758D01*
X71617088Y-114406441D01*
X71680032Y-114254481D01*
X71684854Y-114247265D01*
X71771413Y-114117719D01*
X71887719Y-114001413D01*
X72024479Y-113910033D01*
X72024481Y-113910032D01*
X72176441Y-113847088D01*
X72337758Y-113815000D01*
X72502242Y-113815000D01*
X72663559Y-113847088D01*
G37*
G36*
X154852734Y-113140154D02*
G01*
X155066569Y-113228728D01*
X155066571Y-113228729D01*
X155259019Y-113357318D01*
X155422682Y-113520981D01*
X155551271Y-113713429D01*
X155551272Y-113713431D01*
X155639846Y-113927266D01*
X155685000Y-114154271D01*
X155685000Y-114385729D01*
X155639846Y-114612734D01*
X155553065Y-114822240D01*
X155551271Y-114826571D01*
X155422682Y-115019019D01*
X155259019Y-115182682D01*
X155066571Y-115311271D01*
X155066570Y-115311272D01*
X155066569Y-115311272D01*
X154852734Y-115399846D01*
X154625729Y-115445000D01*
X154394271Y-115445000D01*
X154167266Y-115399846D01*
X153953431Y-115311272D01*
X153953430Y-115311272D01*
X153953429Y-115311271D01*
X153760981Y-115182682D01*
X153597318Y-115019019D01*
X153468729Y-114826571D01*
X153466935Y-114822240D01*
X153380154Y-114612734D01*
X153335000Y-114385729D01*
X153335000Y-114154271D01*
X153380154Y-113927266D01*
X153468728Y-113713431D01*
X153468729Y-113713429D01*
X153597318Y-113520981D01*
X153760981Y-113357318D01*
X153953429Y-113228729D01*
X153953431Y-113228728D01*
X154167266Y-113140154D01*
X154394271Y-113095000D01*
X154625729Y-113095000D01*
X154852734Y-113140154D01*
G37*
G36*
X40693559Y-113697088D02*
G01*
X40842373Y-113758729D01*
X40845521Y-113760033D01*
X40982281Y-113851413D01*
X41098587Y-113967719D01*
X41181237Y-114091413D01*
X41189968Y-114104481D01*
X41252912Y-114256441D01*
X41285000Y-114417758D01*
X41285000Y-114582242D01*
X41252912Y-114743559D01*
X41195264Y-114882734D01*
X41189967Y-114895521D01*
X41098587Y-115032281D01*
X40982281Y-115148587D01*
X40845521Y-115239967D01*
X40845520Y-115239968D01*
X40845519Y-115239968D01*
X40693559Y-115302912D01*
X40532242Y-115335000D01*
X40367758Y-115335000D01*
X40206441Y-115302912D01*
X40054481Y-115239968D01*
X40054480Y-115239968D01*
X40054479Y-115239967D01*
X39917719Y-115148587D01*
X39801413Y-115032281D01*
X39710033Y-114895521D01*
X39704736Y-114882734D01*
X39647088Y-114743559D01*
X39615000Y-114582242D01*
X39615000Y-114417758D01*
X39647088Y-114256441D01*
X39710032Y-114104481D01*
X39718764Y-114091413D01*
X39801413Y-113967719D01*
X39917719Y-113851413D01*
X40054479Y-113760033D01*
X40057627Y-113758729D01*
X40206441Y-113697088D01*
X40367758Y-113665000D01*
X40532242Y-113665000D01*
X40693559Y-113697088D01*
G37*
G36*
X93632734Y-111130154D02*
G01*
X93846569Y-111218728D01*
X93846571Y-111218729D01*
X94039019Y-111347318D01*
X94202682Y-111510981D01*
X94331271Y-111703429D01*
X94331272Y-111703431D01*
X94419846Y-111917266D01*
X94465000Y-112144271D01*
X94465000Y-112375729D01*
X94419846Y-112602734D01*
X94331272Y-112816569D01*
X94331271Y-112816571D01*
X94202682Y-113009019D01*
X94039019Y-113172682D01*
X93846571Y-113301271D01*
X93846570Y-113301272D01*
X93846569Y-113301272D01*
X93632734Y-113389846D01*
X93405729Y-113435000D01*
X93174271Y-113435000D01*
X92947266Y-113389846D01*
X92733431Y-113301272D01*
X92733430Y-113301272D01*
X92733429Y-113301271D01*
X92540981Y-113172682D01*
X92377318Y-113009019D01*
X92248729Y-112816571D01*
X92248728Y-112816569D01*
X92160154Y-112602734D01*
X92115000Y-112375729D01*
X92115000Y-112144271D01*
X92160154Y-111917266D01*
X92248728Y-111703431D01*
X92248729Y-111703429D01*
X92377318Y-111510981D01*
X92540981Y-111347318D01*
X92733429Y-111218729D01*
X92733431Y-111218728D01*
X92947266Y-111130154D01*
X93174271Y-111085000D01*
X93405729Y-111085000D01*
X93632734Y-111130154D01*
G37*
G36*
X62092734Y-111070154D02*
G01*
X62306569Y-111158728D01*
X62306571Y-111158729D01*
X62499019Y-111287318D01*
X62662682Y-111450981D01*
X62780471Y-111627266D01*
X62791272Y-111643431D01*
X62879846Y-111857266D01*
X62925000Y-112084271D01*
X62925000Y-112315729D01*
X62879846Y-112542734D01*
X62806826Y-112719018D01*
X62791271Y-112756571D01*
X62662682Y-112949019D01*
X62499019Y-113112682D01*
X62306571Y-113241271D01*
X62306570Y-113241272D01*
X62306569Y-113241272D01*
X62092734Y-113329846D01*
X61865729Y-113375000D01*
X61634271Y-113375000D01*
X61407266Y-113329846D01*
X61193431Y-113241272D01*
X61193430Y-113241272D01*
X61193429Y-113241271D01*
X61000981Y-113112682D01*
X60837318Y-112949019D01*
X60708729Y-112756571D01*
X60693174Y-112719018D01*
X60620154Y-112542734D01*
X60575000Y-112315729D01*
X60575000Y-112084271D01*
X60620154Y-111857266D01*
X60708728Y-111643431D01*
X60719529Y-111627266D01*
X60837318Y-111450981D01*
X61000981Y-111287318D01*
X61193429Y-111158729D01*
X61193431Y-111158728D01*
X61407266Y-111070154D01*
X61634271Y-111025000D01*
X61865729Y-111025000D01*
X62092734Y-111070154D01*
G37*
G36*
X77862734Y-111070154D02*
G01*
X78076569Y-111158728D01*
X78076571Y-111158729D01*
X78269019Y-111287318D01*
X78432682Y-111450981D01*
X78550471Y-111627266D01*
X78561272Y-111643431D01*
X78649846Y-111857266D01*
X78695000Y-112084271D01*
X78695000Y-112315729D01*
X78649846Y-112542734D01*
X78576826Y-112719018D01*
X78561271Y-112756571D01*
X78432682Y-112949019D01*
X78269019Y-113112682D01*
X78076571Y-113241271D01*
X78076570Y-113241272D01*
X78076569Y-113241272D01*
X77862734Y-113329846D01*
X77635729Y-113375000D01*
X77404271Y-113375000D01*
X77177266Y-113329846D01*
X76963431Y-113241272D01*
X76963430Y-113241272D01*
X76963429Y-113241271D01*
X76770981Y-113112682D01*
X76607318Y-112949019D01*
X76478729Y-112756571D01*
X76463174Y-112719018D01*
X76390154Y-112542734D01*
X76345000Y-112315729D01*
X76345000Y-112084271D01*
X76390154Y-111857266D01*
X76478728Y-111643431D01*
X76489529Y-111627266D01*
X76607318Y-111450981D01*
X76770981Y-111287318D01*
X76963429Y-111158729D01*
X76963431Y-111158728D01*
X77177266Y-111070154D01*
X77404271Y-111025000D01*
X77635729Y-111025000D01*
X77862734Y-111070154D01*
G37*
G36*
X114042734Y-110920154D02*
G01*
X114256569Y-111008728D01*
X114256571Y-111008729D01*
X114449019Y-111137318D01*
X114612682Y-111300981D01*
X114721227Y-111463431D01*
X114741272Y-111493431D01*
X114829846Y-111707266D01*
X114875000Y-111934271D01*
X114875000Y-112165729D01*
X114829846Y-112392734D01*
X114742860Y-112602735D01*
X114741271Y-112606571D01*
X114612682Y-112799019D01*
X114449019Y-112962682D01*
X114256571Y-113091271D01*
X114256570Y-113091272D01*
X114256569Y-113091272D01*
X114042734Y-113179846D01*
X113815729Y-113225000D01*
X113584271Y-113225000D01*
X113357266Y-113179846D01*
X113143431Y-113091272D01*
X113143430Y-113091272D01*
X113143429Y-113091271D01*
X112950981Y-112962682D01*
X112787318Y-112799019D01*
X112658729Y-112606571D01*
X112657140Y-112602735D01*
X112570154Y-112392734D01*
X112525000Y-112165729D01*
X112525000Y-111934271D01*
X112570154Y-111707266D01*
X112658728Y-111493431D01*
X112678773Y-111463431D01*
X112787318Y-111300981D01*
X112950981Y-111137318D01*
X113143429Y-111008729D01*
X113143431Y-111008728D01*
X113357266Y-110920154D01*
X113584271Y-110875000D01*
X113815729Y-110875000D01*
X114042734Y-110920154D01*
G37*
G36*
X162952734Y-110890154D02*
G01*
X163118287Y-110958729D01*
X163166571Y-110978729D01*
X163359019Y-111107318D01*
X163522682Y-111270981D01*
X163642954Y-111450982D01*
X163651272Y-111463431D01*
X163739846Y-111677266D01*
X163785000Y-111904271D01*
X163785000Y-112135729D01*
X163739846Y-112362734D01*
X163651272Y-112576569D01*
X163651271Y-112576571D01*
X163522682Y-112769019D01*
X163359019Y-112932682D01*
X163166571Y-113061271D01*
X163166570Y-113061272D01*
X163166569Y-113061272D01*
X162952734Y-113149846D01*
X162725729Y-113195000D01*
X162494271Y-113195000D01*
X162267266Y-113149846D01*
X162053431Y-113061272D01*
X162053430Y-113061272D01*
X162053429Y-113061271D01*
X161860981Y-112932682D01*
X161697318Y-112769019D01*
X161568729Y-112576571D01*
X161568728Y-112576569D01*
X161480154Y-112362734D01*
X161435000Y-112135729D01*
X161435000Y-111904271D01*
X161480154Y-111677266D01*
X161568728Y-111463431D01*
X161577046Y-111450982D01*
X161697318Y-111270981D01*
X161860981Y-111107318D01*
X162053429Y-110978729D01*
X162101713Y-110958729D01*
X162267266Y-110890154D01*
X162494271Y-110845000D01*
X162725729Y-110845000D01*
X162952734Y-110890154D01*
G37*
G36*
X46342734Y-110870154D02*
G01*
X46556569Y-110958728D01*
X46556571Y-110958729D01*
X46749019Y-111087318D01*
X46912682Y-111250981D01*
X47021227Y-111413431D01*
X47041272Y-111443431D01*
X47129846Y-111657266D01*
X47175000Y-111884271D01*
X47175000Y-112115729D01*
X47129846Y-112342734D01*
X47047002Y-112542735D01*
X47041271Y-112556571D01*
X46912682Y-112749019D01*
X46749019Y-112912682D01*
X46556571Y-113041271D01*
X46556570Y-113041272D01*
X46556569Y-113041272D01*
X46342734Y-113129846D01*
X46115729Y-113175000D01*
X45884271Y-113175000D01*
X45657266Y-113129846D01*
X45443431Y-113041272D01*
X45443430Y-113041272D01*
X45443429Y-113041271D01*
X45250981Y-112912682D01*
X45087318Y-112749019D01*
X44958729Y-112556571D01*
X44952998Y-112542735D01*
X44870154Y-112342734D01*
X44825000Y-112115729D01*
X44825000Y-111884271D01*
X44870154Y-111657266D01*
X44958728Y-111443431D01*
X44978773Y-111413431D01*
X45087318Y-111250981D01*
X45250981Y-111087318D01*
X45443429Y-110958729D01*
X45443431Y-110958728D01*
X45657266Y-110870154D01*
X45884271Y-110825000D01*
X46115729Y-110825000D01*
X46342734Y-110870154D01*
G37*
G36*
X131022734Y-110840154D02*
G01*
X131215872Y-110920155D01*
X131236571Y-110928729D01*
X131429019Y-111057318D01*
X131592682Y-111220981D01*
X131721271Y-111413429D01*
X131721272Y-111413431D01*
X131809846Y-111627266D01*
X131855000Y-111854271D01*
X131855000Y-112085729D01*
X131809846Y-112312734D01*
X131776708Y-112392735D01*
X131721271Y-112526571D01*
X131592682Y-112719019D01*
X131429019Y-112882682D01*
X131236571Y-113011271D01*
X131236570Y-113011272D01*
X131236569Y-113011272D01*
X131022734Y-113099846D01*
X130795729Y-113145000D01*
X130564271Y-113145000D01*
X130337266Y-113099846D01*
X130123431Y-113011272D01*
X130123430Y-113011272D01*
X130123429Y-113011271D01*
X129930981Y-112882682D01*
X129767318Y-112719019D01*
X129638729Y-112526571D01*
X129583292Y-112392735D01*
X129550154Y-112312734D01*
X129505000Y-112085729D01*
X129505000Y-111854271D01*
X129550154Y-111627266D01*
X129638728Y-111413431D01*
X129638729Y-111413429D01*
X129767318Y-111220981D01*
X129930981Y-111057318D01*
X130123429Y-110928729D01*
X130144128Y-110920155D01*
X130337266Y-110840154D01*
X130564271Y-110795000D01*
X130795729Y-110795000D01*
X131022734Y-110840154D01*
G37*
G36*
X147252734Y-110600154D02*
G01*
X147466569Y-110688728D01*
X147466571Y-110688729D01*
X147659019Y-110817318D01*
X147822682Y-110980981D01*
X147951271Y-111173429D01*
X147951272Y-111173431D01*
X148039846Y-111387266D01*
X148085000Y-111614271D01*
X148085000Y-111845729D01*
X148039846Y-112072734D01*
X147961071Y-112262912D01*
X147951271Y-112286571D01*
X147822682Y-112479019D01*
X147659019Y-112642682D01*
X147466571Y-112771271D01*
X147466570Y-112771272D01*
X147466569Y-112771272D01*
X147252734Y-112859846D01*
X147025729Y-112905000D01*
X146794271Y-112905000D01*
X146567266Y-112859846D01*
X146353431Y-112771272D01*
X146353430Y-112771272D01*
X146353429Y-112771271D01*
X146160981Y-112642682D01*
X145997318Y-112479019D01*
X145868729Y-112286571D01*
X145858929Y-112262912D01*
X145780154Y-112072734D01*
X145735000Y-111845729D01*
X145735000Y-111614271D01*
X145780154Y-111387266D01*
X145868728Y-111173431D01*
X145868729Y-111173429D01*
X145997318Y-110980981D01*
X146160981Y-110817318D01*
X146353429Y-110688729D01*
X146353431Y-110688728D01*
X146567266Y-110600154D01*
X146794271Y-110555000D01*
X147025729Y-110555000D01*
X147252734Y-110600154D01*
G37*
G36*
X110203559Y-110657088D02*
G01*
X110355519Y-110720032D01*
X110355521Y-110720033D01*
X110492281Y-110811413D01*
X110608587Y-110927719D01*
X110629307Y-110958728D01*
X110699968Y-111064481D01*
X110762912Y-111216441D01*
X110795000Y-111377758D01*
X110795000Y-111542242D01*
X110762912Y-111703559D01*
X110704024Y-111845727D01*
X110699967Y-111855521D01*
X110608587Y-111992281D01*
X110492281Y-112108587D01*
X110355521Y-112199967D01*
X110355520Y-112199968D01*
X110355519Y-112199968D01*
X110203559Y-112262912D01*
X110042242Y-112295000D01*
X109877758Y-112295000D01*
X109716441Y-112262912D01*
X109564481Y-112199968D01*
X109564480Y-112199968D01*
X109564479Y-112199967D01*
X109427719Y-112108587D01*
X109311413Y-111992281D01*
X109220033Y-111855521D01*
X109215976Y-111845727D01*
X109157088Y-111703559D01*
X109125000Y-111542242D01*
X109125000Y-111377758D01*
X109157088Y-111216441D01*
X109220032Y-111064481D01*
X109290694Y-110958728D01*
X109311413Y-110927719D01*
X109427719Y-110811413D01*
X109564479Y-110720033D01*
X109564481Y-110720032D01*
X109716441Y-110657088D01*
X109877758Y-110625000D01*
X110042242Y-110625000D01*
X110203559Y-110657088D01*
G37*
G36*
X90123559Y-108927088D02*
G01*
X90275519Y-108990032D01*
X90275521Y-108990033D01*
X90412281Y-109081413D01*
X90528587Y-109197719D01*
X90608796Y-109317760D01*
X90619968Y-109334481D01*
X90682912Y-109486441D01*
X90715000Y-109647758D01*
X90715000Y-109812242D01*
X90682912Y-109973559D01*
X90657247Y-110035519D01*
X90619967Y-110125521D01*
X90528587Y-110262281D01*
X90412281Y-110378587D01*
X90275521Y-110469967D01*
X90275520Y-110469968D01*
X90275519Y-110469968D01*
X90123559Y-110532912D01*
X89962242Y-110565000D01*
X89797758Y-110565000D01*
X89636441Y-110532912D01*
X89484481Y-110469968D01*
X89484480Y-110469968D01*
X89484479Y-110469967D01*
X89347719Y-110378587D01*
X89231413Y-110262281D01*
X89140033Y-110125521D01*
X89102753Y-110035519D01*
X89077088Y-109973559D01*
X89045000Y-109812242D01*
X89045000Y-109647758D01*
X89077088Y-109486441D01*
X89140032Y-109334481D01*
X89151205Y-109317760D01*
X89231413Y-109197719D01*
X89347719Y-109081413D01*
X89484479Y-108990033D01*
X89484481Y-108990032D01*
X89636441Y-108927088D01*
X89797758Y-108895000D01*
X89962242Y-108895000D01*
X90123559Y-108927088D01*
G37*
G36*
X159623559Y-108837088D02*
G01*
X159775519Y-108900032D01*
X159775521Y-108900033D01*
X159912281Y-108991413D01*
X160028587Y-109107719D01*
X160109946Y-109229481D01*
X160119968Y-109244481D01*
X160182912Y-109396441D01*
X160215000Y-109557758D01*
X160215000Y-109722242D01*
X160182912Y-109883559D01*
X160126181Y-110020519D01*
X160119967Y-110035521D01*
X160028587Y-110172281D01*
X159912281Y-110288587D01*
X159775521Y-110379967D01*
X159775520Y-110379968D01*
X159775519Y-110379968D01*
X159623559Y-110442912D01*
X159462242Y-110475000D01*
X159297758Y-110475000D01*
X159136441Y-110442912D01*
X158984481Y-110379968D01*
X158984480Y-110379968D01*
X158984479Y-110379967D01*
X158847719Y-110288587D01*
X158731413Y-110172281D01*
X158640033Y-110035521D01*
X158633819Y-110020519D01*
X158577088Y-109883559D01*
X158545000Y-109722242D01*
X158545000Y-109557758D01*
X158577088Y-109396441D01*
X158640032Y-109244481D01*
X158650055Y-109229481D01*
X158731413Y-109107719D01*
X158847719Y-108991413D01*
X158984479Y-108900033D01*
X158984481Y-108900032D01*
X159136441Y-108837088D01*
X159297758Y-108805000D01*
X159462242Y-108805000D01*
X159623559Y-108837088D01*
G37*
G36*
X58543559Y-108822088D02*
G01*
X58695519Y-108885032D01*
X58695521Y-108885033D01*
X58832281Y-108976413D01*
X58948587Y-109092719D01*
X59023263Y-109204479D01*
X59039968Y-109229481D01*
X59102912Y-109381441D01*
X59135000Y-109542758D01*
X59135000Y-109707242D01*
X59102912Y-109868559D01*
X59039968Y-110020519D01*
X59039967Y-110020521D01*
X58948587Y-110157281D01*
X58832281Y-110273587D01*
X58695521Y-110364967D01*
X58695520Y-110364968D01*
X58695519Y-110364968D01*
X58543559Y-110427912D01*
X58382242Y-110460000D01*
X58217758Y-110460000D01*
X58056441Y-110427912D01*
X57904481Y-110364968D01*
X57904480Y-110364968D01*
X57904479Y-110364967D01*
X57767719Y-110273587D01*
X57651413Y-110157281D01*
X57560033Y-110020521D01*
X57560032Y-110020519D01*
X57497088Y-109868559D01*
X57465000Y-109707242D01*
X57465000Y-109542758D01*
X57497088Y-109381441D01*
X57560032Y-109229481D01*
X57576738Y-109204479D01*
X57651413Y-109092719D01*
X57767719Y-108976413D01*
X57904479Y-108885033D01*
X57904481Y-108885032D01*
X58056441Y-108822088D01*
X58217758Y-108790000D01*
X58382242Y-108790000D01*
X58543559Y-108822088D01*
G37*
G36*
X143903559Y-108797088D02*
G01*
X144031379Y-108850033D01*
X144055521Y-108860033D01*
X144192281Y-108951413D01*
X144308587Y-109067719D01*
X144393287Y-109194481D01*
X144399968Y-109204481D01*
X144462912Y-109356441D01*
X144495000Y-109517758D01*
X144495000Y-109682242D01*
X144462912Y-109843559D01*
X144404110Y-109985519D01*
X144399967Y-109995521D01*
X144308587Y-110132281D01*
X144192281Y-110248587D01*
X144055521Y-110339967D01*
X144055520Y-110339968D01*
X144055519Y-110339968D01*
X143903559Y-110402912D01*
X143742242Y-110435000D01*
X143577758Y-110435000D01*
X143416441Y-110402912D01*
X143264481Y-110339968D01*
X143264480Y-110339968D01*
X143264479Y-110339967D01*
X143127719Y-110248587D01*
X143011413Y-110132281D01*
X142920033Y-109995521D01*
X142915890Y-109985519D01*
X142857088Y-109843559D01*
X142825000Y-109682242D01*
X142825000Y-109517758D01*
X142857088Y-109356441D01*
X142920032Y-109204481D01*
X142926714Y-109194481D01*
X143011413Y-109067719D01*
X143127719Y-108951413D01*
X143264479Y-108860033D01*
X143288621Y-108850033D01*
X143416441Y-108797088D01*
X143577758Y-108765000D01*
X143742242Y-108765000D01*
X143903559Y-108797088D01*
G37*
G36*
X127703559Y-108787088D02*
G01*
X127855519Y-108850032D01*
X127855521Y-108850033D01*
X127970842Y-108927088D01*
X127992281Y-108941413D01*
X128108587Y-109057719D01*
X128199968Y-109194481D01*
X128262912Y-109346441D01*
X128295000Y-109507758D01*
X128295000Y-109672242D01*
X128262912Y-109833559D01*
X128199968Y-109985519D01*
X128199967Y-109985521D01*
X128108587Y-110122281D01*
X127992281Y-110238587D01*
X127855521Y-110329967D01*
X127855520Y-110329968D01*
X127855519Y-110329968D01*
X127703559Y-110392912D01*
X127542242Y-110425000D01*
X127377758Y-110425000D01*
X127216441Y-110392912D01*
X127064481Y-110329968D01*
X127064480Y-110329968D01*
X127064479Y-110329967D01*
X126927719Y-110238587D01*
X126811413Y-110122281D01*
X126720033Y-109985521D01*
X126720032Y-109985519D01*
X126657088Y-109833559D01*
X126625000Y-109672242D01*
X126625000Y-109507758D01*
X126657088Y-109346441D01*
X126720032Y-109194481D01*
X126811413Y-109057719D01*
X126927719Y-108941413D01*
X126949158Y-108927088D01*
X127064479Y-108850033D01*
X127064481Y-108850032D01*
X127216441Y-108787088D01*
X127377758Y-108755000D01*
X127542242Y-108755000D01*
X127703559Y-108787088D01*
G37*
G36*
X74263559Y-108747088D02*
G01*
X74415519Y-108810032D01*
X74415521Y-108810033D01*
X74542683Y-108895000D01*
X74552281Y-108901413D01*
X74668587Y-109017719D01*
X74759968Y-109154481D01*
X74822912Y-109306441D01*
X74855000Y-109467758D01*
X74855000Y-109632242D01*
X74822912Y-109793559D01*
X74785632Y-109883560D01*
X74759967Y-109945521D01*
X74668587Y-110082281D01*
X74552281Y-110198587D01*
X74415521Y-110289967D01*
X74415520Y-110289968D01*
X74415519Y-110289968D01*
X74263559Y-110352912D01*
X74102242Y-110385000D01*
X73937758Y-110385000D01*
X73776441Y-110352912D01*
X73624481Y-110289968D01*
X73624480Y-110289968D01*
X73624479Y-110289967D01*
X73487719Y-110198587D01*
X73371413Y-110082281D01*
X73280033Y-109945521D01*
X73254368Y-109883560D01*
X73217088Y-109793559D01*
X73185000Y-109632242D01*
X73185000Y-109467758D01*
X73217088Y-109306441D01*
X73280032Y-109154481D01*
X73371413Y-109017719D01*
X73487719Y-108901413D01*
X73497317Y-108895000D01*
X73624479Y-108810033D01*
X73624481Y-108810032D01*
X73776441Y-108747088D01*
X73937758Y-108715000D01*
X74102242Y-108715000D01*
X74263559Y-108747088D01*
G37*
G36*
X42293559Y-108597088D02*
G01*
X42445519Y-108660032D01*
X42445521Y-108660033D01*
X42582281Y-108751413D01*
X42698587Y-108867719D01*
X42781237Y-108991413D01*
X42789968Y-109004481D01*
X42852912Y-109156441D01*
X42885000Y-109317758D01*
X42885000Y-109482242D01*
X42852912Y-109643559D01*
X42820321Y-109722240D01*
X42789967Y-109795521D01*
X42698587Y-109932281D01*
X42582281Y-110048587D01*
X42445521Y-110139967D01*
X42445520Y-110139968D01*
X42445519Y-110139968D01*
X42293559Y-110202912D01*
X42132242Y-110235000D01*
X41967758Y-110235000D01*
X41806441Y-110202912D01*
X41654481Y-110139968D01*
X41654480Y-110139968D01*
X41654479Y-110139967D01*
X41517719Y-110048587D01*
X41401413Y-109932281D01*
X41310033Y-109795521D01*
X41279679Y-109722240D01*
X41247088Y-109643559D01*
X41215000Y-109482242D01*
X41215000Y-109317758D01*
X41247088Y-109156441D01*
X41310032Y-109004481D01*
X41318764Y-108991413D01*
X41401413Y-108867719D01*
X41517719Y-108751413D01*
X41654479Y-108660033D01*
X41654481Y-108660032D01*
X41806441Y-108597088D01*
X41967758Y-108565000D01*
X42132242Y-108565000D01*
X42293559Y-108597088D01*
G37*
G36*
X42262560Y-98678759D02*
G01*
X42753928Y-98882290D01*
X42753930Y-98882291D01*
X43196150Y-99177773D01*
X43572227Y-99553850D01*
X43832036Y-99942682D01*
X43867710Y-99996072D01*
X44071241Y-100487440D01*
X44175000Y-101009072D01*
X44175000Y-101540928D01*
X44071241Y-102062560D01*
X43867710Y-102553928D01*
X43867709Y-102553930D01*
X43572227Y-102996150D01*
X43196150Y-103372227D01*
X42753930Y-103667709D01*
X42753929Y-103667710D01*
X42753928Y-103667710D01*
X42262560Y-103871241D01*
X41740928Y-103975000D01*
X41209072Y-103975000D01*
X40687440Y-103871241D01*
X40196072Y-103667710D01*
X40196071Y-103667710D01*
X40196070Y-103667709D01*
X39753850Y-103372227D01*
X39377773Y-102996150D01*
X39082291Y-102553930D01*
X39082290Y-102553928D01*
X38878759Y-102062560D01*
X38775000Y-101540928D01*
X38775000Y-101009072D01*
X38878759Y-100487440D01*
X39082290Y-99996072D01*
X39117964Y-99942682D01*
X39377773Y-99553850D01*
X39753850Y-99177773D01*
X40196070Y-98882291D01*
X40196072Y-98882290D01*
X40687440Y-98678759D01*
X41209072Y-98575000D01*
X41740928Y-98575000D01*
X42262560Y-98678759D01*
G37*
G36*
X175437560Y-98573759D02*
G01*
X175895469Y-98763431D01*
X175928930Y-98777291D01*
X176371150Y-99072773D01*
X176747227Y-99448850D01*
X177033021Y-99876571D01*
X177042710Y-99891072D01*
X177246241Y-100382440D01*
X177350000Y-100904072D01*
X177350000Y-101435928D01*
X177246241Y-101957560D01*
X177202748Y-102062561D01*
X177042709Y-102448930D01*
X176747227Y-102891150D01*
X176371150Y-103267227D01*
X175928930Y-103562709D01*
X175928929Y-103562710D01*
X175928928Y-103562710D01*
X175437560Y-103766241D01*
X174915928Y-103870000D01*
X174384072Y-103870000D01*
X173862440Y-103766241D01*
X173371072Y-103562710D01*
X173371071Y-103562710D01*
X173371070Y-103562709D01*
X172928850Y-103267227D01*
X172552773Y-102891150D01*
X172257291Y-102448930D01*
X172097252Y-102062561D01*
X172053759Y-101957560D01*
X171950000Y-101435928D01*
X171950000Y-100904072D01*
X172053759Y-100382440D01*
X172257290Y-99891072D01*
X172266979Y-99876571D01*
X172552773Y-99448850D01*
X172928850Y-99072773D01*
X173371070Y-98777291D01*
X173404531Y-98763431D01*
X173862440Y-98573759D01*
X174384072Y-98470000D01*
X174915928Y-98470000D01*
X175437560Y-98573759D01*
G37*
G36*
X101232734Y-98430154D02*
G01*
X101446569Y-98518728D01*
X101446571Y-98518729D01*
X101639019Y-98647318D01*
X101802682Y-98810981D01*
X101931271Y-99003429D01*
X101931272Y-99003431D01*
X102019846Y-99217266D01*
X102065000Y-99444271D01*
X102065000Y-99675729D01*
X102019846Y-99902734D01*
X101931272Y-100116569D01*
X101931271Y-100116571D01*
X101802682Y-100309019D01*
X101639019Y-100472682D01*
X101446571Y-100601271D01*
X101446570Y-100601272D01*
X101446569Y-100601272D01*
X101232734Y-100689846D01*
X101005729Y-100735000D01*
X100774271Y-100735000D01*
X100547266Y-100689846D01*
X100333431Y-100601272D01*
X100333430Y-100601272D01*
X100333429Y-100601271D01*
X100140981Y-100472682D01*
X99977318Y-100309019D01*
X99848729Y-100116571D01*
X99848728Y-100116569D01*
X99760154Y-99902734D01*
X99715000Y-99675729D01*
X99715000Y-99444271D01*
X99760154Y-99217266D01*
X99848728Y-99003431D01*
X99848729Y-99003429D01*
X99977318Y-98810981D01*
X100140981Y-98647318D01*
X100333429Y-98518729D01*
X100333431Y-98518728D01*
X100547266Y-98430154D01*
X100774271Y-98385000D01*
X101005729Y-98385000D01*
X101232734Y-98430154D01*
G37*
G36*
X94465000Y-100735000D02*
G01*
X92115000Y-100735000D01*
X92115000Y-98385000D01*
X94465000Y-98385000D01*
X94465000Y-100735000D01*
G37*
G36*
X69692734Y-98370154D02*
G01*
X69906569Y-98458728D01*
X69906571Y-98458729D01*
X70099019Y-98587318D01*
X70262682Y-98750981D01*
X70380471Y-98927266D01*
X70391272Y-98943431D01*
X70479846Y-99157266D01*
X70525000Y-99384271D01*
X70525000Y-99615729D01*
X70479846Y-99842734D01*
X70416331Y-99996072D01*
X70391271Y-100056571D01*
X70262682Y-100249019D01*
X70099019Y-100412682D01*
X69906571Y-100541271D01*
X69906570Y-100541272D01*
X69906569Y-100541272D01*
X69692734Y-100629846D01*
X69465729Y-100675000D01*
X69234271Y-100675000D01*
X69007266Y-100629846D01*
X68793431Y-100541272D01*
X68793430Y-100541272D01*
X68793429Y-100541271D01*
X68600981Y-100412682D01*
X68437318Y-100249019D01*
X68308729Y-100056571D01*
X68283669Y-99996072D01*
X68220154Y-99842734D01*
X68175000Y-99615729D01*
X68175000Y-99384271D01*
X68220154Y-99157266D01*
X68308728Y-98943431D01*
X68319529Y-98927266D01*
X68437318Y-98750981D01*
X68600981Y-98587318D01*
X68793429Y-98458729D01*
X68793431Y-98458728D01*
X69007266Y-98370154D01*
X69234271Y-98325000D01*
X69465729Y-98325000D01*
X69692734Y-98370154D01*
G37*
G36*
X78695000Y-100675000D02*
G01*
X76345000Y-100675000D01*
X76345000Y-98325000D01*
X78695000Y-98325000D01*
X78695000Y-100675000D01*
G37*
G36*
X62925000Y-100675000D02*
G01*
X60575000Y-100675000D01*
X60575000Y-98325000D01*
X62925000Y-98325000D01*
X62925000Y-100675000D01*
G37*
G36*
X85462734Y-98370154D02*
G01*
X85676569Y-98458728D01*
X85676571Y-98458729D01*
X85869019Y-98587318D01*
X86032682Y-98750981D01*
X86150471Y-98927266D01*
X86161272Y-98943431D01*
X86249846Y-99157266D01*
X86295000Y-99384271D01*
X86295000Y-99615729D01*
X86249846Y-99842734D01*
X86186331Y-99996072D01*
X86161271Y-100056571D01*
X86032682Y-100249019D01*
X85869019Y-100412682D01*
X85676571Y-100541271D01*
X85676570Y-100541272D01*
X85676569Y-100541272D01*
X85462734Y-100629846D01*
X85235729Y-100675000D01*
X85004271Y-100675000D01*
X84777266Y-100629846D01*
X84563431Y-100541272D01*
X84563430Y-100541272D01*
X84563429Y-100541271D01*
X84370981Y-100412682D01*
X84207318Y-100249019D01*
X84078729Y-100056571D01*
X84053669Y-99996072D01*
X83990154Y-99842734D01*
X83945000Y-99615729D01*
X83945000Y-99384271D01*
X83990154Y-99157266D01*
X84078728Y-98943431D01*
X84089529Y-98927266D01*
X84207318Y-98750981D01*
X84370981Y-98587318D01*
X84563429Y-98458729D01*
X84563431Y-98458728D01*
X84777266Y-98370154D01*
X85004271Y-98325000D01*
X85235729Y-98325000D01*
X85462734Y-98370154D01*
G37*
G36*
X114875000Y-100525000D02*
G01*
X112525000Y-100525000D01*
X112525000Y-98175000D01*
X114875000Y-98175000D01*
X114875000Y-100525000D01*
G37*
G36*
X121642734Y-98220154D02*
G01*
X121856569Y-98308728D01*
X121856571Y-98308729D01*
X122049019Y-98437318D01*
X122212682Y-98600981D01*
X122321227Y-98763431D01*
X122341272Y-98793431D01*
X122429846Y-99007266D01*
X122475000Y-99234271D01*
X122475000Y-99465729D01*
X122429846Y-99692734D01*
X122342860Y-99902735D01*
X122341271Y-99906571D01*
X122212682Y-100099019D01*
X122049019Y-100262682D01*
X121856571Y-100391271D01*
X121856570Y-100391272D01*
X121856569Y-100391272D01*
X121642734Y-100479846D01*
X121415729Y-100525000D01*
X121184271Y-100525000D01*
X120957266Y-100479846D01*
X120743431Y-100391272D01*
X120743430Y-100391272D01*
X120743429Y-100391271D01*
X120550981Y-100262682D01*
X120387318Y-100099019D01*
X120258729Y-99906571D01*
X120257140Y-99902735D01*
X120170154Y-99692734D01*
X120125000Y-99465729D01*
X120125000Y-99234271D01*
X120170154Y-99007266D01*
X120258728Y-98793431D01*
X120278773Y-98763431D01*
X120387318Y-98600981D01*
X120550981Y-98437318D01*
X120743429Y-98308729D01*
X120743431Y-98308728D01*
X120957266Y-98220154D01*
X121184271Y-98175000D01*
X121415729Y-98175000D01*
X121642734Y-98220154D01*
G37*
G36*
X170552734Y-98190154D02*
G01*
X170718287Y-98258729D01*
X170766571Y-98278729D01*
X170959019Y-98407318D01*
X171122682Y-98570981D01*
X171242954Y-98750982D01*
X171251272Y-98763431D01*
X171339846Y-98977266D01*
X171385000Y-99204271D01*
X171385000Y-99435729D01*
X171339846Y-99662734D01*
X171251272Y-99876569D01*
X171251271Y-99876571D01*
X171122682Y-100069019D01*
X170959019Y-100232682D01*
X170766571Y-100361271D01*
X170766570Y-100361272D01*
X170766569Y-100361272D01*
X170552734Y-100449846D01*
X170325729Y-100495000D01*
X170094271Y-100495000D01*
X169867266Y-100449846D01*
X169653431Y-100361272D01*
X169653430Y-100361272D01*
X169653429Y-100361271D01*
X169460981Y-100232682D01*
X169297318Y-100069019D01*
X169168729Y-99876571D01*
X169168728Y-99876569D01*
X169080154Y-99662734D01*
X169035000Y-99435729D01*
X169035000Y-99204271D01*
X169080154Y-98977266D01*
X169168728Y-98763431D01*
X169177046Y-98750982D01*
X169297318Y-98570981D01*
X169460981Y-98407318D01*
X169653429Y-98278729D01*
X169701713Y-98258729D01*
X169867266Y-98190154D01*
X170094271Y-98145000D01*
X170325729Y-98145000D01*
X170552734Y-98190154D01*
G37*
G36*
X163785000Y-100495000D02*
G01*
X161435000Y-100495000D01*
X161435000Y-98145000D01*
X163785000Y-98145000D01*
X163785000Y-100495000D01*
G37*
G36*
X53942734Y-98170154D02*
G01*
X54156569Y-98258728D01*
X54156571Y-98258729D01*
X54349019Y-98387318D01*
X54512682Y-98550981D01*
X54621227Y-98713431D01*
X54641272Y-98743431D01*
X54729846Y-98957266D01*
X54775000Y-99184271D01*
X54775000Y-99415729D01*
X54729846Y-99642734D01*
X54647002Y-99842735D01*
X54641271Y-99856571D01*
X54512682Y-100049019D01*
X54349019Y-100212682D01*
X54156571Y-100341271D01*
X54156570Y-100341272D01*
X54156569Y-100341272D01*
X53942734Y-100429846D01*
X53715729Y-100475000D01*
X53484271Y-100475000D01*
X53257266Y-100429846D01*
X53043431Y-100341272D01*
X53043430Y-100341272D01*
X53043429Y-100341271D01*
X52850981Y-100212682D01*
X52687318Y-100049019D01*
X52558729Y-99856571D01*
X52552998Y-99842735D01*
X52470154Y-99642734D01*
X52425000Y-99415729D01*
X52425000Y-99184271D01*
X52470154Y-98957266D01*
X52558728Y-98743431D01*
X52578773Y-98713431D01*
X52687318Y-98550981D01*
X52850981Y-98387318D01*
X53043429Y-98258729D01*
X53043431Y-98258728D01*
X53257266Y-98170154D01*
X53484271Y-98125000D01*
X53715729Y-98125000D01*
X53942734Y-98170154D01*
G37*
G36*
X47175000Y-100475000D02*
G01*
X44825000Y-100475000D01*
X44825000Y-98125000D01*
X47175000Y-98125000D01*
X47175000Y-100475000D01*
G37*
G36*
X131855000Y-100445000D02*
G01*
X129505000Y-100445000D01*
X129505000Y-98095000D01*
X131855000Y-98095000D01*
X131855000Y-100445000D01*
G37*
G36*
X138622734Y-98140154D02*
G01*
X138815872Y-98220155D01*
X138836571Y-98228729D01*
X139029019Y-98357318D01*
X139192682Y-98520981D01*
X139321271Y-98713429D01*
X139321272Y-98713431D01*
X139409846Y-98927266D01*
X139455000Y-99154271D01*
X139455000Y-99385729D01*
X139409846Y-99612734D01*
X139376708Y-99692735D01*
X139321271Y-99826571D01*
X139192682Y-100019019D01*
X139029019Y-100182682D01*
X138836571Y-100311271D01*
X138836570Y-100311272D01*
X138836569Y-100311272D01*
X138622734Y-100399846D01*
X138395729Y-100445000D01*
X138164271Y-100445000D01*
X137937266Y-100399846D01*
X137723431Y-100311272D01*
X137723430Y-100311272D01*
X137723429Y-100311271D01*
X137530981Y-100182682D01*
X137367318Y-100019019D01*
X137238729Y-99826571D01*
X137183292Y-99692735D01*
X137150154Y-99612734D01*
X137105000Y-99385729D01*
X137105000Y-99154271D01*
X137150154Y-98927266D01*
X137238728Y-98713431D01*
X137238729Y-98713429D01*
X137367318Y-98520981D01*
X137530981Y-98357318D01*
X137723429Y-98228729D01*
X137744128Y-98220155D01*
X137937266Y-98140154D01*
X138164271Y-98095000D01*
X138395729Y-98095000D01*
X138622734Y-98140154D01*
G37*
G36*
X148085000Y-100205000D02*
G01*
X145735000Y-100205000D01*
X145735000Y-97855000D01*
X148085000Y-97855000D01*
X148085000Y-100205000D01*
G37*
G36*
X154852734Y-97900154D02*
G01*
X155066569Y-97988728D01*
X155066571Y-97988729D01*
X155259019Y-98117318D01*
X155422682Y-98280981D01*
X155551271Y-98473429D01*
X155551272Y-98473431D01*
X155639846Y-98687266D01*
X155685000Y-98914271D01*
X155685000Y-99145729D01*
X155639846Y-99372734D01*
X155601326Y-99465729D01*
X155551271Y-99586571D01*
X155422682Y-99779019D01*
X155259019Y-99942682D01*
X155066571Y-100071271D01*
X155066570Y-100071272D01*
X155066569Y-100071272D01*
X154852734Y-100159846D01*
X154625729Y-100205000D01*
X154394271Y-100205000D01*
X154167266Y-100159846D01*
X153953431Y-100071272D01*
X153953430Y-100071272D01*
X153953429Y-100071271D01*
X153760981Y-99942682D01*
X153597318Y-99779019D01*
X153468729Y-99586571D01*
X153418674Y-99465729D01*
X153380154Y-99372734D01*
X153335000Y-99145729D01*
X153335000Y-98914271D01*
X153380154Y-98687266D01*
X153468728Y-98473431D01*
X153468729Y-98473429D01*
X153597318Y-98280981D01*
X153760981Y-98117318D01*
X153953429Y-97988729D01*
X153953431Y-97988728D01*
X154167266Y-97900154D01*
X154394271Y-97855000D01*
X154625729Y-97855000D01*
X154852734Y-97900154D01*
G37*
G36*
X170660000Y-96850000D02*
G01*
X168560000Y-96850000D01*
X168560000Y-94750000D01*
X170660000Y-94750000D01*
X170660000Y-96850000D01*
G37*
G36*
X167198687Y-94755027D02*
G01*
X167376274Y-94790350D01*
X167567362Y-94869502D01*
X167739336Y-94984411D01*
X167885589Y-95130664D01*
X168000498Y-95302638D01*
X168079650Y-95493726D01*
X168120000Y-95696584D01*
X168120000Y-95903416D01*
X168079650Y-96106274D01*
X168000498Y-96297362D01*
X167885589Y-96469336D01*
X167739336Y-96615589D01*
X167567362Y-96730498D01*
X167376274Y-96809650D01*
X167198687Y-96844973D01*
X167173417Y-96850000D01*
X166966583Y-96850000D01*
X166941313Y-96844973D01*
X166763726Y-96809650D01*
X166572638Y-96730498D01*
X166400664Y-96615589D01*
X166254411Y-96469336D01*
X166139502Y-96297362D01*
X166060350Y-96106274D01*
X166020000Y-95903416D01*
X166020000Y-95696584D01*
X166060350Y-95493726D01*
X166139502Y-95302638D01*
X166254411Y-95130664D01*
X166400664Y-94984411D01*
X166572638Y-94869502D01*
X166763726Y-94790350D01*
X166941313Y-94755027D01*
X166966583Y-94750000D01*
X167173417Y-94750000D01*
X167198687Y-94755027D01*
G37*
G36*
X164658687Y-94755027D02*
G01*
X164836274Y-94790350D01*
X165027362Y-94869502D01*
X165199336Y-94984411D01*
X165345589Y-95130664D01*
X165460498Y-95302638D01*
X165539650Y-95493726D01*
X165580000Y-95696584D01*
X165580000Y-95903416D01*
X165539650Y-96106274D01*
X165460498Y-96297362D01*
X165345589Y-96469336D01*
X165199336Y-96615589D01*
X165027362Y-96730498D01*
X164836274Y-96809650D01*
X164658687Y-96844973D01*
X164633417Y-96850000D01*
X164426583Y-96850000D01*
X164401313Y-96844973D01*
X164223726Y-96809650D01*
X164032638Y-96730498D01*
X163860664Y-96615589D01*
X163714411Y-96469336D01*
X163599502Y-96297362D01*
X163520350Y-96106274D01*
X163480000Y-95903416D01*
X163480000Y-95696584D01*
X163520350Y-95493726D01*
X163599502Y-95302638D01*
X163714411Y-95130664D01*
X163860664Y-94984411D01*
X164032638Y-94869502D01*
X164223726Y-94790350D01*
X164401313Y-94755027D01*
X164426583Y-94750000D01*
X164633417Y-94750000D01*
X164658687Y-94755027D01*
G37*
G36*
X162118687Y-94755027D02*
G01*
X162296274Y-94790350D01*
X162487362Y-94869502D01*
X162659336Y-94984411D01*
X162805589Y-95130664D01*
X162920498Y-95302638D01*
X162999650Y-95493726D01*
X163040000Y-95696584D01*
X163040000Y-95903416D01*
X162999650Y-96106274D01*
X162920498Y-96297362D01*
X162805589Y-96469336D01*
X162659336Y-96615589D01*
X162487362Y-96730498D01*
X162296274Y-96809650D01*
X162118687Y-96844973D01*
X162093417Y-96850000D01*
X161886583Y-96850000D01*
X161861313Y-96844973D01*
X161683726Y-96809650D01*
X161492638Y-96730498D01*
X161320664Y-96615589D01*
X161174411Y-96469336D01*
X161059502Y-96297362D01*
X160980350Y-96106274D01*
X160940000Y-95903416D01*
X160940000Y-95696584D01*
X160980350Y-95493726D01*
X161059502Y-95302638D01*
X161174411Y-95130664D01*
X161320664Y-94984411D01*
X161492638Y-94869502D01*
X161683726Y-94790350D01*
X161861313Y-94755027D01*
X161886583Y-94750000D01*
X162093417Y-94750000D01*
X162118687Y-94755027D01*
G37*
G36*
X82310026Y-88076115D02*
G01*
X82528411Y-88166573D01*
X82528413Y-88166574D01*
X82724955Y-88297899D01*
X82892101Y-88465045D01*
X83002098Y-88629667D01*
X83023427Y-88661589D01*
X83113885Y-88879974D01*
X83160000Y-89111809D01*
X83160000Y-89348191D01*
X83113885Y-89580026D01*
X83025367Y-89793727D01*
X83023426Y-89798413D01*
X82892101Y-89994955D01*
X82724955Y-90162101D01*
X82528413Y-90293426D01*
X82528412Y-90293427D01*
X82528411Y-90293427D01*
X82310026Y-90383885D01*
X82078191Y-90430000D01*
X81841809Y-90430000D01*
X81609974Y-90383885D01*
X81391589Y-90293427D01*
X81391588Y-90293427D01*
X81391587Y-90293426D01*
X81195045Y-90162101D01*
X81027899Y-89994955D01*
X80896574Y-89798413D01*
X80894633Y-89793727D01*
X80806115Y-89580026D01*
X80760000Y-89348191D01*
X80760000Y-89111809D01*
X80806115Y-88879974D01*
X80896573Y-88661589D01*
X80917903Y-88629667D01*
X81027899Y-88465045D01*
X81195045Y-88297899D01*
X81391587Y-88166574D01*
X81391589Y-88166573D01*
X81609974Y-88076115D01*
X81841809Y-88030000D01*
X82078191Y-88030000D01*
X82310026Y-88076115D01*
G37*
G36*
X90760000Y-90430000D02*
G01*
X88360000Y-90430000D01*
X88360000Y-88030000D01*
X90760000Y-88030000D01*
X90760000Y-90430000D01*
G37*
G36*
X140894182Y-88576900D02*
G01*
X141021573Y-88629667D01*
X141021574Y-88629668D01*
X141136224Y-88706274D01*
X141233726Y-88803776D01*
X141233727Y-88803778D01*
X141310333Y-88918427D01*
X141363100Y-89045818D01*
X141390000Y-89181055D01*
X141390000Y-89318945D01*
X141363100Y-89454182D01*
X141310333Y-89581573D01*
X141310332Y-89581574D01*
X141233726Y-89696224D01*
X141136224Y-89793726D01*
X141129212Y-89798411D01*
X141021573Y-89870333D01*
X140894182Y-89923100D01*
X140758945Y-89950000D01*
X140621055Y-89950000D01*
X140485818Y-89923100D01*
X140358427Y-89870333D01*
X140250788Y-89798411D01*
X140243776Y-89793726D01*
X140146274Y-89696224D01*
X140069668Y-89581574D01*
X140069667Y-89581573D01*
X140016900Y-89454182D01*
X139990000Y-89318945D01*
X139990000Y-89181055D01*
X140016900Y-89045818D01*
X140069667Y-88918427D01*
X140146273Y-88803778D01*
X140146274Y-88803776D01*
X140243776Y-88706274D01*
X140358426Y-88629668D01*
X140358427Y-88629667D01*
X140485818Y-88576900D01*
X140621055Y-88550000D01*
X140758945Y-88550000D01*
X140894182Y-88576900D01*
G37*
G36*
X140937935Y-80932664D02*
G01*
X141092624Y-80996739D01*
X141092626Y-80996740D01*
X141231844Y-81089762D01*
X141350238Y-81208156D01*
X141443260Y-81347374D01*
X141443261Y-81347376D01*
X141507336Y-81502065D01*
X141540000Y-81666281D01*
X141540000Y-81833719D01*
X141507336Y-81997935D01*
X141443261Y-82152624D01*
X141443260Y-82152626D01*
X141350238Y-82291844D01*
X141231844Y-82410238D01*
X141092626Y-82503260D01*
X141092625Y-82503261D01*
X141092624Y-82503261D01*
X140937935Y-82567336D01*
X140773719Y-82600000D01*
X140606281Y-82600000D01*
X140442065Y-82567336D01*
X140287376Y-82503261D01*
X140287375Y-82503261D01*
X140287374Y-82503260D01*
X140148156Y-82410238D01*
X140029762Y-82291844D01*
X139936740Y-82152626D01*
X139936739Y-82152624D01*
X139872664Y-81997935D01*
X139840000Y-81833719D01*
X139840000Y-81666281D01*
X139872664Y-81502065D01*
X139936739Y-81347376D01*
X139936740Y-81347374D01*
X140029762Y-81208156D01*
X140148156Y-81089762D01*
X140287374Y-80996740D01*
X140287376Y-80996739D01*
X140442065Y-80932664D01*
X140606281Y-80900000D01*
X140773719Y-80900000D01*
X140937935Y-80932664D01*
G37*
G36*
X103934182Y-74326900D02*
G01*
X104061573Y-74379667D01*
X104061574Y-74379668D01*
X104176224Y-74456274D01*
X104273726Y-74553776D01*
X104273727Y-74553778D01*
X104276612Y-74556663D01*
X104295554Y-74572208D01*
X104317165Y-74583759D01*
X104340614Y-74590872D01*
X104365000Y-74593274D01*
X104389386Y-74590872D01*
X104412835Y-74583759D01*
X104434446Y-74572208D01*
X104453388Y-74556663D01*
X104456273Y-74553778D01*
X104456274Y-74553776D01*
X104553776Y-74456274D01*
X104668426Y-74379668D01*
X104668427Y-74379667D01*
X104795818Y-74326900D01*
X104931055Y-74300000D01*
X105068945Y-74300000D01*
X105204182Y-74326900D01*
X105331573Y-74379667D01*
X105331574Y-74379668D01*
X105446224Y-74456274D01*
X105543726Y-74553776D01*
X105543727Y-74553778D01*
X105546612Y-74556663D01*
X105565554Y-74572208D01*
X105587165Y-74583759D01*
X105610614Y-74590872D01*
X105635000Y-74593274D01*
X105659386Y-74590872D01*
X105682835Y-74583759D01*
X105704446Y-74572208D01*
X105723388Y-74556663D01*
X105726273Y-74553778D01*
X105726274Y-74553776D01*
X105823776Y-74456274D01*
X105938426Y-74379668D01*
X105938427Y-74379667D01*
X106065818Y-74326900D01*
X106201055Y-74300000D01*
X106338945Y-74300000D01*
X106474182Y-74326900D01*
X106601573Y-74379667D01*
X106601574Y-74379668D01*
X106716224Y-74456274D01*
X106813726Y-74553776D01*
X106813727Y-74553778D01*
X106816612Y-74556663D01*
X106835554Y-74572208D01*
X106857165Y-74583759D01*
X106880614Y-74590872D01*
X106905000Y-74593274D01*
X106929386Y-74590872D01*
X106952835Y-74583759D01*
X106974446Y-74572208D01*
X106993388Y-74556663D01*
X106996273Y-74553778D01*
X106996274Y-74553776D01*
X107093776Y-74456274D01*
X107208426Y-74379668D01*
X107208427Y-74379667D01*
X107335818Y-74326900D01*
X107471055Y-74300000D01*
X107608945Y-74300000D01*
X107744182Y-74326900D01*
X107871573Y-74379667D01*
X107871574Y-74379668D01*
X107986224Y-74456274D01*
X108083726Y-74553776D01*
X108083727Y-74553778D01*
X108086612Y-74556663D01*
X108105554Y-74572208D01*
X108127165Y-74583759D01*
X108150614Y-74590872D01*
X108175000Y-74593274D01*
X108199386Y-74590872D01*
X108222835Y-74583759D01*
X108244446Y-74572208D01*
X108263388Y-74556663D01*
X108266273Y-74553778D01*
X108266274Y-74553776D01*
X108363776Y-74456274D01*
X108478426Y-74379668D01*
X108478427Y-74379667D01*
X108605818Y-74326900D01*
X108741055Y-74300000D01*
X108878945Y-74300000D01*
X109014182Y-74326900D01*
X109141573Y-74379667D01*
X109141574Y-74379668D01*
X109256224Y-74456274D01*
X109353726Y-74553776D01*
X109353727Y-74553778D01*
X109356612Y-74556663D01*
X109375554Y-74572208D01*
X109397165Y-74583759D01*
X109420614Y-74590872D01*
X109445000Y-74593274D01*
X109469386Y-74590872D01*
X109492835Y-74583759D01*
X109514446Y-74572208D01*
X109533388Y-74556663D01*
X109536273Y-74553778D01*
X109536274Y-74553776D01*
X109633776Y-74456274D01*
X109748426Y-74379668D01*
X109748427Y-74379667D01*
X109875818Y-74326900D01*
X110011055Y-74300000D01*
X110148945Y-74300000D01*
X110284182Y-74326900D01*
X110411573Y-74379667D01*
X110411574Y-74379668D01*
X110526224Y-74456274D01*
X110623726Y-74553776D01*
X110623727Y-74553778D01*
X110626612Y-74556663D01*
X110645554Y-74572208D01*
X110667165Y-74583759D01*
X110690614Y-74590872D01*
X110715000Y-74593274D01*
X110739386Y-74590872D01*
X110762835Y-74583759D01*
X110784446Y-74572208D01*
X110803388Y-74556663D01*
X110806273Y-74553778D01*
X110806274Y-74553776D01*
X110903776Y-74456274D01*
X111018426Y-74379668D01*
X111018427Y-74379667D01*
X111145818Y-74326900D01*
X111281055Y-74300000D01*
X111418945Y-74300000D01*
X111554182Y-74326900D01*
X111681573Y-74379667D01*
X111681574Y-74379668D01*
X111796224Y-74456274D01*
X111893726Y-74553776D01*
X111893727Y-74553778D01*
X111896612Y-74556663D01*
X111915554Y-74572208D01*
X111937165Y-74583759D01*
X111960614Y-74590872D01*
X111985000Y-74593274D01*
X112009386Y-74590872D01*
X112032835Y-74583759D01*
X112054446Y-74572208D01*
X112073388Y-74556663D01*
X112076273Y-74553778D01*
X112076274Y-74553776D01*
X112173776Y-74456274D01*
X112288426Y-74379668D01*
X112288427Y-74379667D01*
X112415818Y-74326900D01*
X112551055Y-74300000D01*
X112688945Y-74300000D01*
X112824182Y-74326900D01*
X112951573Y-74379667D01*
X112951574Y-74379668D01*
X113066224Y-74456274D01*
X113163726Y-74553776D01*
X113163727Y-74553778D01*
X113166612Y-74556663D01*
X113185554Y-74572208D01*
X113207165Y-74583759D01*
X113230614Y-74590872D01*
X113255000Y-74593274D01*
X113279386Y-74590872D01*
X113302835Y-74583759D01*
X113324446Y-74572208D01*
X113343388Y-74556663D01*
X113346273Y-74553778D01*
X113346274Y-74553776D01*
X113443776Y-74456274D01*
X113558426Y-74379668D01*
X113558427Y-74379667D01*
X113685818Y-74326900D01*
X113821055Y-74300000D01*
X113958945Y-74300000D01*
X114094182Y-74326900D01*
X114221573Y-74379667D01*
X114221574Y-74379668D01*
X114336224Y-74456274D01*
X114433726Y-74553776D01*
X114433727Y-74553778D01*
X114436612Y-74556663D01*
X114455554Y-74572208D01*
X114477165Y-74583759D01*
X114500614Y-74590872D01*
X114525000Y-74593274D01*
X114549386Y-74590872D01*
X114572835Y-74583759D01*
X114594446Y-74572208D01*
X114613388Y-74556663D01*
X114616273Y-74553778D01*
X114616274Y-74553776D01*
X114713776Y-74456274D01*
X114828426Y-74379668D01*
X114828427Y-74379667D01*
X114955818Y-74326900D01*
X115091055Y-74300000D01*
X115228945Y-74300000D01*
X115364182Y-74326900D01*
X115491573Y-74379667D01*
X115491574Y-74379668D01*
X115606224Y-74456274D01*
X115703726Y-74553776D01*
X115730117Y-74593274D01*
X115780333Y-74668427D01*
X115833100Y-74795818D01*
X115860000Y-74931055D01*
X115860000Y-75068945D01*
X115833100Y-75204182D01*
X115780333Y-75331573D01*
X115780332Y-75331574D01*
X115703726Y-75446224D01*
X115606224Y-75543726D01*
X115606221Y-75543728D01*
X115603337Y-75546612D01*
X115587792Y-75565554D01*
X115576241Y-75587165D01*
X115569128Y-75610614D01*
X115566726Y-75635000D01*
X115569128Y-75659386D01*
X115576241Y-75682835D01*
X115587792Y-75704446D01*
X115603337Y-75723388D01*
X115606221Y-75726272D01*
X115606224Y-75726274D01*
X115703726Y-75823776D01*
X115730117Y-75863274D01*
X115780333Y-75938427D01*
X115833100Y-76065818D01*
X115860000Y-76201055D01*
X115860000Y-76338945D01*
X115833100Y-76474182D01*
X115780333Y-76601573D01*
X115780332Y-76601574D01*
X115703726Y-76716224D01*
X115606224Y-76813726D01*
X115567083Y-76839879D01*
X115491573Y-76890333D01*
X115364182Y-76943100D01*
X115228945Y-76970000D01*
X115091055Y-76970000D01*
X114955818Y-76943100D01*
X114828427Y-76890333D01*
X114752917Y-76839879D01*
X114713776Y-76813726D01*
X114616274Y-76716224D01*
X114616272Y-76716221D01*
X114613388Y-76713337D01*
X114594446Y-76697792D01*
X114572835Y-76686241D01*
X114549386Y-76679128D01*
X114525000Y-76676726D01*
X114500614Y-76679128D01*
X114477165Y-76686241D01*
X114455554Y-76697792D01*
X114436612Y-76713337D01*
X114433728Y-76716221D01*
X114433726Y-76716224D01*
X114336224Y-76813726D01*
X114297083Y-76839879D01*
X114221573Y-76890333D01*
X114094182Y-76943100D01*
X113958945Y-76970000D01*
X113821055Y-76970000D01*
X113685818Y-76943100D01*
X113558427Y-76890333D01*
X113482917Y-76839879D01*
X113443776Y-76813726D01*
X113346274Y-76716224D01*
X113346272Y-76716221D01*
X113343388Y-76713337D01*
X113324446Y-76697792D01*
X113302835Y-76686241D01*
X113279386Y-76679128D01*
X113255000Y-76676726D01*
X113230614Y-76679128D01*
X113207165Y-76686241D01*
X113185554Y-76697792D01*
X113166612Y-76713337D01*
X113163728Y-76716221D01*
X113163726Y-76716224D01*
X113066224Y-76813726D01*
X113027083Y-76839879D01*
X112951573Y-76890333D01*
X112824182Y-76943100D01*
X112688945Y-76970000D01*
X112551055Y-76970000D01*
X112415818Y-76943100D01*
X112288427Y-76890333D01*
X112212917Y-76839879D01*
X112173776Y-76813726D01*
X112076274Y-76716224D01*
X112076272Y-76716221D01*
X112073388Y-76713337D01*
X112054446Y-76697792D01*
X112032835Y-76686241D01*
X112009386Y-76679128D01*
X111985000Y-76676726D01*
X111960614Y-76679128D01*
X111937165Y-76686241D01*
X111915554Y-76697792D01*
X111896612Y-76713337D01*
X111893728Y-76716221D01*
X111893726Y-76716224D01*
X111796224Y-76813726D01*
X111757083Y-76839879D01*
X111681573Y-76890333D01*
X111554182Y-76943100D01*
X111418945Y-76970000D01*
X111281055Y-76970000D01*
X111145818Y-76943100D01*
X111018427Y-76890333D01*
X110942917Y-76839879D01*
X110903776Y-76813726D01*
X110806274Y-76716224D01*
X110806272Y-76716221D01*
X110803388Y-76713337D01*
X110784446Y-76697792D01*
X110762835Y-76686241D01*
X110739386Y-76679128D01*
X110715000Y-76676726D01*
X110690614Y-76679128D01*
X110667165Y-76686241D01*
X110645554Y-76697792D01*
X110626612Y-76713337D01*
X110623728Y-76716221D01*
X110623726Y-76716224D01*
X110526224Y-76813726D01*
X110487083Y-76839879D01*
X110411573Y-76890333D01*
X110284182Y-76943100D01*
X110148945Y-76970000D01*
X110011055Y-76970000D01*
X109875818Y-76943100D01*
X109748427Y-76890333D01*
X109672917Y-76839879D01*
X109633776Y-76813726D01*
X109536274Y-76716224D01*
X109536272Y-76716221D01*
X109533388Y-76713337D01*
X109514446Y-76697792D01*
X109492835Y-76686241D01*
X109469386Y-76679128D01*
X109445000Y-76676726D01*
X109420614Y-76679128D01*
X109397165Y-76686241D01*
X109375554Y-76697792D01*
X109356612Y-76713337D01*
X109353728Y-76716221D01*
X109353726Y-76716224D01*
X109256224Y-76813726D01*
X109217083Y-76839879D01*
X109141573Y-76890333D01*
X109014182Y-76943100D01*
X108878945Y-76970000D01*
X108741055Y-76970000D01*
X108605818Y-76943100D01*
X108478427Y-76890333D01*
X108402917Y-76839879D01*
X108363776Y-76813726D01*
X108266274Y-76716224D01*
X108266272Y-76716221D01*
X108263388Y-76713337D01*
X108244446Y-76697792D01*
X108222835Y-76686241D01*
X108199386Y-76679128D01*
X108175000Y-76676726D01*
X108150614Y-76679128D01*
X108127165Y-76686241D01*
X108105554Y-76697792D01*
X108086612Y-76713337D01*
X108083728Y-76716221D01*
X108083726Y-76716224D01*
X107986224Y-76813726D01*
X107947083Y-76839879D01*
X107871573Y-76890333D01*
X107744182Y-76943100D01*
X107608945Y-76970000D01*
X107471055Y-76970000D01*
X107335818Y-76943100D01*
X107208427Y-76890333D01*
X107132917Y-76839879D01*
X107093776Y-76813726D01*
X106996274Y-76716224D01*
X106996272Y-76716221D01*
X106993388Y-76713337D01*
X106974446Y-76697792D01*
X106952835Y-76686241D01*
X106929386Y-76679128D01*
X106905000Y-76676726D01*
X106880614Y-76679128D01*
X106857165Y-76686241D01*
X106835554Y-76697792D01*
X106816612Y-76713337D01*
X106813728Y-76716221D01*
X106813726Y-76716224D01*
X106716224Y-76813726D01*
X106677083Y-76839879D01*
X106601573Y-76890333D01*
X106474182Y-76943100D01*
X106338945Y-76970000D01*
X106201055Y-76970000D01*
X106065818Y-76943100D01*
X105938427Y-76890333D01*
X105862917Y-76839879D01*
X105823776Y-76813726D01*
X105726274Y-76716224D01*
X105726272Y-76716221D01*
X105723388Y-76713337D01*
X105704446Y-76697792D01*
X105682835Y-76686241D01*
X105659386Y-76679128D01*
X105635000Y-76676726D01*
X105610614Y-76679128D01*
X105587165Y-76686241D01*
X105565554Y-76697792D01*
X105546612Y-76713337D01*
X105543728Y-76716221D01*
X105543726Y-76716224D01*
X105446224Y-76813726D01*
X105407083Y-76839879D01*
X105331573Y-76890333D01*
X105204182Y-76943100D01*
X105068945Y-76970000D01*
X104931055Y-76970000D01*
X104795818Y-76943100D01*
X104668427Y-76890333D01*
X104624445Y-76860945D01*
X104602835Y-76849394D01*
X104579386Y-76842281D01*
X104555000Y-76839879D01*
X104530613Y-76842281D01*
X104507164Y-76849394D01*
X104485554Y-76860945D01*
X104466612Y-76876490D01*
X104451066Y-76895432D01*
X104439515Y-76917042D01*
X104432402Y-76940491D01*
X104430000Y-76964878D01*
X104430000Y-76970000D01*
X103030000Y-76970000D01*
X103030000Y-75635000D01*
X105406726Y-75635000D01*
X105409128Y-75659386D01*
X105416241Y-75682835D01*
X105427792Y-75704446D01*
X105443337Y-75723388D01*
X105446221Y-75726272D01*
X105446224Y-75726274D01*
X105543726Y-75823776D01*
X105543727Y-75823778D01*
X105546612Y-75826663D01*
X105565554Y-75842208D01*
X105587165Y-75853759D01*
X105610614Y-75860872D01*
X105635000Y-75863274D01*
X105659386Y-75860872D01*
X105682835Y-75853759D01*
X105704446Y-75842208D01*
X105723388Y-75826663D01*
X105726273Y-75823778D01*
X105726274Y-75823776D01*
X105823776Y-75726274D01*
X105823779Y-75726272D01*
X105826663Y-75723388D01*
X105842208Y-75704446D01*
X105853759Y-75682835D01*
X105860872Y-75659386D01*
X105863274Y-75635000D01*
X106676726Y-75635000D01*
X106679128Y-75659386D01*
X106686241Y-75682835D01*
X106697792Y-75704446D01*
X106713337Y-75723388D01*
X106716221Y-75726272D01*
X106716224Y-75726274D01*
X106813726Y-75823776D01*
X106813727Y-75823778D01*
X106816612Y-75826663D01*
X106835554Y-75842208D01*
X106857165Y-75853759D01*
X106880614Y-75860872D01*
X106905000Y-75863274D01*
X106929386Y-75860872D01*
X106952835Y-75853759D01*
X106974446Y-75842208D01*
X106993388Y-75826663D01*
X106996273Y-75823778D01*
X106996274Y-75823776D01*
X107093776Y-75726274D01*
X107093779Y-75726272D01*
X107096663Y-75723388D01*
X107112208Y-75704446D01*
X107123759Y-75682835D01*
X107130872Y-75659386D01*
X107133274Y-75635000D01*
X107946726Y-75635000D01*
X107949128Y-75659386D01*
X107956241Y-75682835D01*
X107967792Y-75704446D01*
X107983337Y-75723388D01*
X107986221Y-75726272D01*
X107986224Y-75726274D01*
X108083726Y-75823776D01*
X108083727Y-75823778D01*
X108086612Y-75826663D01*
X108105554Y-75842208D01*
X108127165Y-75853759D01*
X108150614Y-75860872D01*
X108175000Y-75863274D01*
X108199386Y-75860872D01*
X108222835Y-75853759D01*
X108244446Y-75842208D01*
X108263388Y-75826663D01*
X108266273Y-75823778D01*
X108266274Y-75823776D01*
X108363776Y-75726274D01*
X108363779Y-75726272D01*
X108366663Y-75723388D01*
X108382208Y-75704446D01*
X108393759Y-75682835D01*
X108400872Y-75659386D01*
X108403274Y-75635000D01*
X109216726Y-75635000D01*
X109219128Y-75659386D01*
X109226241Y-75682835D01*
X109237792Y-75704446D01*
X109253337Y-75723388D01*
X109256221Y-75726272D01*
X109256224Y-75726274D01*
X109353726Y-75823776D01*
X109353727Y-75823778D01*
X109356612Y-75826663D01*
X109375554Y-75842208D01*
X109397165Y-75853759D01*
X109420614Y-75860872D01*
X109445000Y-75863274D01*
X109469386Y-75860872D01*
X109492835Y-75853759D01*
X109514446Y-75842208D01*
X109533388Y-75826663D01*
X109536273Y-75823778D01*
X109536274Y-75823776D01*
X109633776Y-75726274D01*
X109633779Y-75726272D01*
X109636663Y-75723388D01*
X109652208Y-75704446D01*
X109663759Y-75682835D01*
X109670872Y-75659386D01*
X109673274Y-75635000D01*
X110486726Y-75635000D01*
X110489128Y-75659386D01*
X110496241Y-75682835D01*
X110507792Y-75704446D01*
X110523337Y-75723388D01*
X110526221Y-75726272D01*
X110526224Y-75726274D01*
X110623726Y-75823776D01*
X110623727Y-75823778D01*
X110626612Y-75826663D01*
X110645554Y-75842208D01*
X110667165Y-75853759D01*
X110690614Y-75860872D01*
X110715000Y-75863274D01*
X110739386Y-75860872D01*
X110762835Y-75853759D01*
X110784446Y-75842208D01*
X110803388Y-75826663D01*
X110806273Y-75823778D01*
X110806274Y-75823776D01*
X110903776Y-75726274D01*
X110903779Y-75726272D01*
X110906663Y-75723388D01*
X110922208Y-75704446D01*
X110933759Y-75682835D01*
X110940872Y-75659386D01*
X110943274Y-75635000D01*
X111756726Y-75635000D01*
X111759128Y-75659386D01*
X111766241Y-75682835D01*
X111777792Y-75704446D01*
X111793337Y-75723388D01*
X111796221Y-75726272D01*
X111796224Y-75726274D01*
X111893726Y-75823776D01*
X111893727Y-75823778D01*
X111896612Y-75826663D01*
X111915554Y-75842208D01*
X111937165Y-75853759D01*
X111960614Y-75860872D01*
X111985000Y-75863274D01*
X112009386Y-75860872D01*
X112032835Y-75853759D01*
X112054446Y-75842208D01*
X112073388Y-75826663D01*
X112076273Y-75823778D01*
X112076274Y-75823776D01*
X112173776Y-75726274D01*
X112173779Y-75726272D01*
X112176663Y-75723388D01*
X112192208Y-75704446D01*
X112203759Y-75682835D01*
X112210872Y-75659386D01*
X112213274Y-75635000D01*
X113026726Y-75635000D01*
X113029128Y-75659386D01*
X113036241Y-75682835D01*
X113047792Y-75704446D01*
X113063337Y-75723388D01*
X113066221Y-75726272D01*
X113066224Y-75726274D01*
X113163726Y-75823776D01*
X113163727Y-75823778D01*
X113166612Y-75826663D01*
X113185554Y-75842208D01*
X113207165Y-75853759D01*
X113230614Y-75860872D01*
X113255000Y-75863274D01*
X113279386Y-75860872D01*
X113302835Y-75853759D01*
X113324446Y-75842208D01*
X113343388Y-75826663D01*
X113346273Y-75823778D01*
X113346274Y-75823776D01*
X113443776Y-75726274D01*
X113443779Y-75726272D01*
X113446663Y-75723388D01*
X113462208Y-75704446D01*
X113473759Y-75682835D01*
X113480872Y-75659386D01*
X113483274Y-75635000D01*
X114296726Y-75635000D01*
X114299128Y-75659386D01*
X114306241Y-75682835D01*
X114317792Y-75704446D01*
X114333337Y-75723388D01*
X114336221Y-75726272D01*
X114336224Y-75726274D01*
X114433726Y-75823776D01*
X114433727Y-75823778D01*
X114436612Y-75826663D01*
X114455554Y-75842208D01*
X114477165Y-75853759D01*
X114500614Y-75860872D01*
X114525000Y-75863274D01*
X114549386Y-75860872D01*
X114572835Y-75853759D01*
X114594446Y-75842208D01*
X114613388Y-75826663D01*
X114616273Y-75823778D01*
X114616274Y-75823776D01*
X114713776Y-75726274D01*
X114713779Y-75726272D01*
X114716663Y-75723388D01*
X114732208Y-75704446D01*
X114743759Y-75682835D01*
X114750872Y-75659386D01*
X114753274Y-75635000D01*
X114750872Y-75610614D01*
X114743759Y-75587165D01*
X114732208Y-75565554D01*
X114716663Y-75546612D01*
X114713779Y-75543728D01*
X114713776Y-75543726D01*
X114616274Y-75446224D01*
X114616272Y-75446221D01*
X114613388Y-75443337D01*
X114594446Y-75427792D01*
X114572835Y-75416241D01*
X114549386Y-75409128D01*
X114525000Y-75406726D01*
X114500614Y-75409128D01*
X114477165Y-75416241D01*
X114455554Y-75427792D01*
X114436612Y-75443337D01*
X114433728Y-75446221D01*
X114433726Y-75446224D01*
X114336224Y-75543726D01*
X114336221Y-75543728D01*
X114333337Y-75546612D01*
X114317792Y-75565554D01*
X114306241Y-75587165D01*
X114299128Y-75610614D01*
X114296726Y-75635000D01*
X113483274Y-75635000D01*
X113480872Y-75610614D01*
X113473759Y-75587165D01*
X113462208Y-75565554D01*
X113446663Y-75546612D01*
X113443779Y-75543728D01*
X113443776Y-75543726D01*
X113346274Y-75446224D01*
X113346272Y-75446221D01*
X113343388Y-75443337D01*
X113324446Y-75427792D01*
X113302835Y-75416241D01*
X113279386Y-75409128D01*
X113255000Y-75406726D01*
X113230614Y-75409128D01*
X113207165Y-75416241D01*
X113185554Y-75427792D01*
X113166612Y-75443337D01*
X113163728Y-75446221D01*
X113163726Y-75446224D01*
X113066224Y-75543726D01*
X113066221Y-75543728D01*
X113063337Y-75546612D01*
X113047792Y-75565554D01*
X113036241Y-75587165D01*
X113029128Y-75610614D01*
X113026726Y-75635000D01*
X112213274Y-75635000D01*
X112210872Y-75610614D01*
X112203759Y-75587165D01*
X112192208Y-75565554D01*
X112176663Y-75546612D01*
X112173779Y-75543728D01*
X112173776Y-75543726D01*
X112076274Y-75446224D01*
X112076272Y-75446221D01*
X112073388Y-75443337D01*
X112054446Y-75427792D01*
X112032835Y-75416241D01*
X112009386Y-75409128D01*
X111985000Y-75406726D01*
X111960614Y-75409128D01*
X111937165Y-75416241D01*
X111915554Y-75427792D01*
X111896612Y-75443337D01*
X111893728Y-75446221D01*
X111893726Y-75446224D01*
X111796224Y-75543726D01*
X111796221Y-75543728D01*
X111793337Y-75546612D01*
X111777792Y-75565554D01*
X111766241Y-75587165D01*
X111759128Y-75610614D01*
X111756726Y-75635000D01*
X110943274Y-75635000D01*
X110940872Y-75610614D01*
X110933759Y-75587165D01*
X110922208Y-75565554D01*
X110906663Y-75546612D01*
X110903779Y-75543728D01*
X110903776Y-75543726D01*
X110806274Y-75446224D01*
X110806272Y-75446221D01*
X110803388Y-75443337D01*
X110784446Y-75427792D01*
X110762835Y-75416241D01*
X110739386Y-75409128D01*
X110715000Y-75406726D01*
X110690614Y-75409128D01*
X110667165Y-75416241D01*
X110645554Y-75427792D01*
X110626612Y-75443337D01*
X110623728Y-75446221D01*
X110623726Y-75446224D01*
X110526224Y-75543726D01*
X110526221Y-75543728D01*
X110523337Y-75546612D01*
X110507792Y-75565554D01*
X110496241Y-75587165D01*
X110489128Y-75610614D01*
X110486726Y-75635000D01*
X109673274Y-75635000D01*
X109670872Y-75610614D01*
X109663759Y-75587165D01*
X109652208Y-75565554D01*
X109636663Y-75546612D01*
X109633779Y-75543728D01*
X109633776Y-75543726D01*
X109536274Y-75446224D01*
X109536272Y-75446221D01*
X109533388Y-75443337D01*
X109514446Y-75427792D01*
X109492835Y-75416241D01*
X109469386Y-75409128D01*
X109445000Y-75406726D01*
X109420614Y-75409128D01*
X109397165Y-75416241D01*
X109375554Y-75427792D01*
X109356612Y-75443337D01*
X109353728Y-75446221D01*
X109353726Y-75446224D01*
X109256224Y-75543726D01*
X109256221Y-75543728D01*
X109253337Y-75546612D01*
X109237792Y-75565554D01*
X109226241Y-75587165D01*
X109219128Y-75610614D01*
X109216726Y-75635000D01*
X108403274Y-75635000D01*
X108400872Y-75610614D01*
X108393759Y-75587165D01*
X108382208Y-75565554D01*
X108366663Y-75546612D01*
X108363779Y-75543728D01*
X108363776Y-75543726D01*
X108266274Y-75446224D01*
X108266272Y-75446221D01*
X108263388Y-75443337D01*
X108244446Y-75427792D01*
X108222835Y-75416241D01*
X108199386Y-75409128D01*
X108175000Y-75406726D01*
X108150614Y-75409128D01*
X108127165Y-75416241D01*
X108105554Y-75427792D01*
X108086612Y-75443337D01*
X108083728Y-75446221D01*
X108083726Y-75446224D01*
X107986224Y-75543726D01*
X107986221Y-75543728D01*
X107983337Y-75546612D01*
X107967792Y-75565554D01*
X107956241Y-75587165D01*
X107949128Y-75610614D01*
X107946726Y-75635000D01*
X107133274Y-75635000D01*
X107130872Y-75610614D01*
X107123759Y-75587165D01*
X107112208Y-75565554D01*
X107096663Y-75546612D01*
X107093779Y-75543728D01*
X107093776Y-75543726D01*
X106996274Y-75446224D01*
X106996272Y-75446221D01*
X106993388Y-75443337D01*
X106974446Y-75427792D01*
X106952835Y-75416241D01*
X106929386Y-75409128D01*
X106905000Y-75406726D01*
X106880614Y-75409128D01*
X106857165Y-75416241D01*
X106835554Y-75427792D01*
X106816612Y-75443337D01*
X106813728Y-75446221D01*
X106813726Y-75446224D01*
X106716224Y-75543726D01*
X106716221Y-75543728D01*
X106713337Y-75546612D01*
X106697792Y-75565554D01*
X106686241Y-75587165D01*
X106679128Y-75610614D01*
X106676726Y-75635000D01*
X105863274Y-75635000D01*
X105860872Y-75610614D01*
X105853759Y-75587165D01*
X105842208Y-75565554D01*
X105826663Y-75546612D01*
X105823779Y-75543728D01*
X105823776Y-75543726D01*
X105726274Y-75446224D01*
X105726272Y-75446221D01*
X105723388Y-75443337D01*
X105704446Y-75427792D01*
X105682835Y-75416241D01*
X105659386Y-75409128D01*
X105635000Y-75406726D01*
X105610614Y-75409128D01*
X105587165Y-75416241D01*
X105565554Y-75427792D01*
X105546612Y-75443337D01*
X105543728Y-75446221D01*
X105543726Y-75446224D01*
X105446224Y-75543726D01*
X105446221Y-75543728D01*
X105443337Y-75546612D01*
X105427792Y-75565554D01*
X105416241Y-75587165D01*
X105409128Y-75610614D01*
X105406726Y-75635000D01*
X103030000Y-75635000D01*
X103030000Y-75570000D01*
X103035122Y-75570000D01*
X103059508Y-75567598D01*
X103082957Y-75560485D01*
X103104568Y-75548934D01*
X103123510Y-75533389D01*
X103139055Y-75514447D01*
X103150606Y-75492836D01*
X103157719Y-75469387D01*
X103160121Y-75445001D01*
X103157719Y-75420615D01*
X103150606Y-75397166D01*
X103139055Y-75375555D01*
X103109667Y-75331573D01*
X103056900Y-75204182D01*
X103030000Y-75068945D01*
X103030000Y-74931055D01*
X103056900Y-74795818D01*
X103109667Y-74668427D01*
X103159883Y-74593274D01*
X103186274Y-74553776D01*
X103283776Y-74456274D01*
X103398426Y-74379668D01*
X103398427Y-74379667D01*
X103525818Y-74326900D01*
X103661055Y-74300000D01*
X103798945Y-74300000D01*
X103934182Y-74326900D01*
G37*
G36*
X55908687Y-68735027D02*
G01*
X56086274Y-68770350D01*
X56277362Y-68849502D01*
X56449336Y-68964411D01*
X56595589Y-69110664D01*
X56710498Y-69282638D01*
X56789650Y-69473726D01*
X56830000Y-69676584D01*
X56830000Y-69883416D01*
X56789650Y-70086274D01*
X56710498Y-70277362D01*
X56595589Y-70449336D01*
X56449336Y-70595589D01*
X56277362Y-70710498D01*
X56086274Y-70789650D01*
X55908687Y-70824973D01*
X55883417Y-70830000D01*
X55676583Y-70830000D01*
X55651313Y-70824973D01*
X55473726Y-70789650D01*
X55282638Y-70710498D01*
X55110664Y-70595589D01*
X54964411Y-70449336D01*
X54849502Y-70277362D01*
X54770350Y-70086274D01*
X54730000Y-69883416D01*
X54730000Y-69676584D01*
X54770350Y-69473726D01*
X54849502Y-69282638D01*
X54964411Y-69110664D01*
X55110664Y-68964411D01*
X55282638Y-68849502D01*
X55473726Y-68770350D01*
X55651313Y-68735027D01*
X55676583Y-68730000D01*
X55883417Y-68730000D01*
X55908687Y-68735027D01*
G37*
G36*
X58448687Y-68735027D02*
G01*
X58626274Y-68770350D01*
X58817362Y-68849502D01*
X58989336Y-68964411D01*
X59135589Y-69110664D01*
X59250498Y-69282638D01*
X59329650Y-69473726D01*
X59370000Y-69676584D01*
X59370000Y-69883416D01*
X59329650Y-70086274D01*
X59250498Y-70277362D01*
X59135589Y-70449336D01*
X58989336Y-70595589D01*
X58817362Y-70710498D01*
X58626274Y-70789650D01*
X58448687Y-70824973D01*
X58423417Y-70830000D01*
X58216583Y-70830000D01*
X58191313Y-70824973D01*
X58013726Y-70789650D01*
X57822638Y-70710498D01*
X57650664Y-70595589D01*
X57504411Y-70449336D01*
X57389502Y-70277362D01*
X57310350Y-70086274D01*
X57270000Y-69883416D01*
X57270000Y-69676584D01*
X57310350Y-69473726D01*
X57389502Y-69282638D01*
X57504411Y-69110664D01*
X57650664Y-68964411D01*
X57822638Y-68849502D01*
X58013726Y-68770350D01*
X58191313Y-68735027D01*
X58216583Y-68730000D01*
X58423417Y-68730000D01*
X58448687Y-68735027D01*
G37*
G36*
X53368687Y-68735027D02*
G01*
X53546274Y-68770350D01*
X53737362Y-68849502D01*
X53909336Y-68964411D01*
X54055589Y-69110664D01*
X54170498Y-69282638D01*
X54249650Y-69473726D01*
X54290000Y-69676584D01*
X54290000Y-69883416D01*
X54249650Y-70086274D01*
X54170498Y-70277362D01*
X54055589Y-70449336D01*
X53909336Y-70595589D01*
X53737362Y-70710498D01*
X53546274Y-70789650D01*
X53368687Y-70824973D01*
X53343417Y-70830000D01*
X53136583Y-70830000D01*
X53111313Y-70824973D01*
X52933726Y-70789650D01*
X52742638Y-70710498D01*
X52570664Y-70595589D01*
X52424411Y-70449336D01*
X52309502Y-70277362D01*
X52230350Y-70086274D01*
X52190000Y-69883416D01*
X52190000Y-69676584D01*
X52230350Y-69473726D01*
X52309502Y-69282638D01*
X52424411Y-69110664D01*
X52570664Y-68964411D01*
X52742638Y-68849502D01*
X52933726Y-68770350D01*
X53111313Y-68735027D01*
X53136583Y-68730000D01*
X53343417Y-68730000D01*
X53368687Y-68735027D01*
G37*
G36*
X50828687Y-68735027D02*
G01*
X51006274Y-68770350D01*
X51197362Y-68849502D01*
X51369336Y-68964411D01*
X51515589Y-69110664D01*
X51630498Y-69282638D01*
X51709650Y-69473726D01*
X51750000Y-69676584D01*
X51750000Y-69883416D01*
X51709650Y-70086274D01*
X51630498Y-70277362D01*
X51515589Y-70449336D01*
X51369336Y-70595589D01*
X51197362Y-70710498D01*
X51006274Y-70789650D01*
X50828687Y-70824973D01*
X50803417Y-70830000D01*
X50596583Y-70830000D01*
X50571313Y-70824973D01*
X50393726Y-70789650D01*
X50202638Y-70710498D01*
X50030664Y-70595589D01*
X49884411Y-70449336D01*
X49769502Y-70277362D01*
X49690350Y-70086274D01*
X49650000Y-69883416D01*
X49650000Y-69676584D01*
X49690350Y-69473726D01*
X49769502Y-69282638D01*
X49884411Y-69110664D01*
X50030664Y-68964411D01*
X50202638Y-68849502D01*
X50393726Y-68770350D01*
X50571313Y-68735027D01*
X50596583Y-68730000D01*
X50803417Y-68730000D01*
X50828687Y-68735027D01*
G37*
G36*
X48288687Y-68735027D02*
G01*
X48466274Y-68770350D01*
X48657362Y-68849502D01*
X48829336Y-68964411D01*
X48975589Y-69110664D01*
X49090498Y-69282638D01*
X49169650Y-69473726D01*
X49210000Y-69676584D01*
X49210000Y-69883416D01*
X49169650Y-70086274D01*
X49090498Y-70277362D01*
X48975589Y-70449336D01*
X48829336Y-70595589D01*
X48657362Y-70710498D01*
X48466274Y-70789650D01*
X48288687Y-70824973D01*
X48263417Y-70830000D01*
X48056583Y-70830000D01*
X48031313Y-70824973D01*
X47853726Y-70789650D01*
X47662638Y-70710498D01*
X47490664Y-70595589D01*
X47344411Y-70449336D01*
X47229502Y-70277362D01*
X47150350Y-70086274D01*
X47110000Y-69883416D01*
X47110000Y-69676584D01*
X47150350Y-69473726D01*
X47229502Y-69282638D01*
X47344411Y-69110664D01*
X47490664Y-68964411D01*
X47662638Y-68849502D01*
X47853726Y-68770350D01*
X48031313Y-68735027D01*
X48056583Y-68730000D01*
X48263417Y-68730000D01*
X48288687Y-68735027D01*
G37*
G36*
X46670000Y-70830000D02*
G01*
X44570000Y-70830000D01*
X44570000Y-68730000D01*
X46670000Y-68730000D01*
X46670000Y-70830000D01*
G37*
G36*
X42237560Y-64003759D02*
G01*
X42584077Y-64147291D01*
X42728930Y-64207291D01*
X43171150Y-64502773D01*
X43547227Y-64878850D01*
X43842709Y-65321070D01*
X43842710Y-65321072D01*
X44046241Y-65812440D01*
X44150000Y-66334072D01*
X44150000Y-66865928D01*
X44046241Y-67387560D01*
X43867563Y-67818928D01*
X43842709Y-67878930D01*
X43547227Y-68321150D01*
X43171150Y-68697227D01*
X42728930Y-68992709D01*
X42728929Y-68992710D01*
X42728928Y-68992710D01*
X42237560Y-69196241D01*
X41715928Y-69300000D01*
X41184072Y-69300000D01*
X40662440Y-69196241D01*
X40171072Y-68992710D01*
X40171071Y-68992710D01*
X40171070Y-68992709D01*
X39728850Y-68697227D01*
X39352773Y-68321150D01*
X39057291Y-67878930D01*
X39032437Y-67818928D01*
X38853759Y-67387560D01*
X38750000Y-66865928D01*
X38750000Y-66334072D01*
X38853759Y-65812440D01*
X39057290Y-65321072D01*
X39057291Y-65321070D01*
X39352773Y-64878850D01*
X39728850Y-64502773D01*
X40171070Y-64207291D01*
X40315923Y-64147291D01*
X40662440Y-64003759D01*
X41184072Y-63900000D01*
X41715928Y-63900000D01*
X42237560Y-64003759D01*
G37*
G36*
X175547560Y-63943759D02*
G01*
X176038928Y-64147290D01*
X176038930Y-64147291D01*
X176481150Y-64442773D01*
X176857227Y-64818850D01*
X176897318Y-64878851D01*
X177152710Y-65261072D01*
X177356241Y-65752440D01*
X177460000Y-66274072D01*
X177460000Y-66805928D01*
X177356241Y-67327560D01*
X177152710Y-67818928D01*
X177152709Y-67818930D01*
X176857227Y-68261150D01*
X176481150Y-68637227D01*
X176038930Y-68932709D01*
X176038929Y-68932710D01*
X176038928Y-68932710D01*
X175547560Y-69136241D01*
X175025928Y-69240000D01*
X174494072Y-69240000D01*
X173972440Y-69136241D01*
X173481072Y-68932710D01*
X173481071Y-68932710D01*
X173481070Y-68932709D01*
X173038850Y-68637227D01*
X172662773Y-68261150D01*
X172367291Y-67818930D01*
X172367290Y-67818928D01*
X172163759Y-67327560D01*
X172060000Y-66805928D01*
X172060000Y-66274072D01*
X172163759Y-65752440D01*
X172367290Y-65261072D01*
X172622682Y-64878851D01*
X172662773Y-64818850D01*
X173038850Y-64442773D01*
X173481070Y-64147291D01*
X173481072Y-64147290D01*
X173972440Y-63943759D01*
X174494072Y-63840000D01*
X175025928Y-63840000D01*
X175547560Y-63943759D01*
G37*
G36*
X50575336Y-60138254D02*
G01*
X50667105Y-60156508D01*
X50839994Y-60228121D01*
X50995590Y-60332087D01*
X51127913Y-60464410D01*
X51231879Y-60620006D01*
X51303492Y-60792895D01*
X51340000Y-60976433D01*
X51340000Y-61163567D01*
X51303492Y-61347105D01*
X51231879Y-61519994D01*
X51127913Y-61675590D01*
X50995590Y-61807913D01*
X50839994Y-61911879D01*
X50667105Y-61983492D01*
X50575336Y-62001746D01*
X50483568Y-62020000D01*
X50296432Y-62020000D01*
X50204664Y-62001746D01*
X50112895Y-61983492D01*
X49940006Y-61911879D01*
X49784410Y-61807913D01*
X49652087Y-61675590D01*
X49548121Y-61519994D01*
X49476508Y-61347105D01*
X49440000Y-61163567D01*
X49440000Y-60976433D01*
X49476508Y-60792895D01*
X49548121Y-60620006D01*
X49652087Y-60464410D01*
X49784410Y-60332087D01*
X49940006Y-60228121D01*
X50112895Y-60156508D01*
X50204664Y-60138254D01*
X50296432Y-60120000D01*
X50483568Y-60120000D01*
X50575336Y-60138254D01*
G37*
G36*
X55655336Y-60138254D02*
G01*
X55747105Y-60156508D01*
X55919994Y-60228121D01*
X56075590Y-60332087D01*
X56207913Y-60464410D01*
X56311879Y-60620006D01*
X56383492Y-60792895D01*
X56420000Y-60976433D01*
X56420000Y-61163567D01*
X56383492Y-61347105D01*
X56311879Y-61519994D01*
X56207913Y-61675590D01*
X56075590Y-61807913D01*
X55919994Y-61911879D01*
X55747105Y-61983492D01*
X55655336Y-62001746D01*
X55563568Y-62020000D01*
X55376432Y-62020000D01*
X55284664Y-62001746D01*
X55192895Y-61983492D01*
X55020006Y-61911879D01*
X54864410Y-61807913D01*
X54732087Y-61675590D01*
X54628121Y-61519994D01*
X54556508Y-61347105D01*
X54520000Y-61163567D01*
X54520000Y-60976433D01*
X54556508Y-60792895D01*
X54628121Y-60620006D01*
X54732087Y-60464410D01*
X54864410Y-60332087D01*
X55020006Y-60228121D01*
X55192895Y-60156508D01*
X55284664Y-60138254D01*
X55376432Y-60120000D01*
X55563568Y-60120000D01*
X55655336Y-60138254D01*
G37*
G36*
X48035336Y-60138254D02*
G01*
X48127105Y-60156508D01*
X48299994Y-60228121D01*
X48455590Y-60332087D01*
X48587913Y-60464410D01*
X48691879Y-60620006D01*
X48763492Y-60792895D01*
X48800000Y-60976433D01*
X48800000Y-61163567D01*
X48763492Y-61347105D01*
X48691879Y-61519994D01*
X48587913Y-61675590D01*
X48455590Y-61807913D01*
X48299994Y-61911879D01*
X48127105Y-61983492D01*
X48035336Y-62001746D01*
X47943568Y-62020000D01*
X47756432Y-62020000D01*
X47664664Y-62001746D01*
X47572895Y-61983492D01*
X47400006Y-61911879D01*
X47244410Y-61807913D01*
X47112087Y-61675590D01*
X47008121Y-61519994D01*
X46936508Y-61347105D01*
X46900000Y-61163567D01*
X46900000Y-60976433D01*
X46936508Y-60792895D01*
X47008121Y-60620006D01*
X47112087Y-60464410D01*
X47244410Y-60332087D01*
X47400006Y-60228121D01*
X47572895Y-60156508D01*
X47664664Y-60138254D01*
X47756432Y-60120000D01*
X47943568Y-60120000D01*
X48035336Y-60138254D01*
G37*
G36*
X53115336Y-60138254D02*
G01*
X53207105Y-60156508D01*
X53379994Y-60228121D01*
X53535590Y-60332087D01*
X53667913Y-60464410D01*
X53771879Y-60620006D01*
X53843492Y-60792895D01*
X53880000Y-60976433D01*
X53880000Y-61163567D01*
X53843492Y-61347105D01*
X53771879Y-61519994D01*
X53667913Y-61675590D01*
X53535590Y-61807913D01*
X53379994Y-61911879D01*
X53207105Y-61983492D01*
X53115336Y-62001746D01*
X53023568Y-62020000D01*
X52836432Y-62020000D01*
X52744664Y-62001746D01*
X52652895Y-61983492D01*
X52480006Y-61911879D01*
X52324410Y-61807913D01*
X52192087Y-61675590D01*
X52088121Y-61519994D01*
X52016508Y-61347105D01*
X51980000Y-61163567D01*
X51980000Y-60976433D01*
X52016508Y-60792895D01*
X52088121Y-60620006D01*
X52192087Y-60464410D01*
X52324410Y-60332087D01*
X52480006Y-60228121D01*
X52652895Y-60156508D01*
X52744664Y-60138254D01*
X52836432Y-60120000D01*
X53023568Y-60120000D01*
X53115336Y-60138254D01*
G37*
G36*
X51774219Y-57586097D02*
G01*
X51927105Y-57616508D01*
X52099994Y-57688121D01*
X52255590Y-57792087D01*
X52387913Y-57924410D01*
X52491879Y-58080006D01*
X52563492Y-58252895D01*
X52600000Y-58436433D01*
X52600000Y-58623567D01*
X52563492Y-58807105D01*
X52491879Y-58979994D01*
X52387913Y-59135590D01*
X52255590Y-59267913D01*
X52099994Y-59371879D01*
X51927105Y-59443492D01*
X51864992Y-59455847D01*
X51743568Y-59480000D01*
X51556432Y-59480000D01*
X51435008Y-59455847D01*
X51372895Y-59443492D01*
X51200006Y-59371879D01*
X51044410Y-59267913D01*
X50912087Y-59135590D01*
X50808121Y-58979994D01*
X50736508Y-58807105D01*
X50700000Y-58623567D01*
X50700000Y-58436433D01*
X50736508Y-58252895D01*
X50808121Y-58080006D01*
X50912087Y-57924410D01*
X51044410Y-57792087D01*
X51200006Y-57688121D01*
X51372895Y-57616508D01*
X51525781Y-57586097D01*
X51556432Y-57580000D01*
X51743568Y-57580000D01*
X51774219Y-57586097D01*
G37*
G36*
X49234219Y-57586097D02*
G01*
X49387105Y-57616508D01*
X49559994Y-57688121D01*
X49715590Y-57792087D01*
X49847913Y-57924410D01*
X49951879Y-58080006D01*
X50023492Y-58252895D01*
X50060000Y-58436433D01*
X50060000Y-58623567D01*
X50023492Y-58807105D01*
X49951879Y-58979994D01*
X49847913Y-59135590D01*
X49715590Y-59267913D01*
X49559994Y-59371879D01*
X49387105Y-59443492D01*
X49324992Y-59455847D01*
X49203568Y-59480000D01*
X49016432Y-59480000D01*
X48895008Y-59455847D01*
X48832895Y-59443492D01*
X48660006Y-59371879D01*
X48504410Y-59267913D01*
X48372087Y-59135590D01*
X48268121Y-58979994D01*
X48196508Y-58807105D01*
X48160000Y-58623567D01*
X48160000Y-58436433D01*
X48196508Y-58252895D01*
X48268121Y-58080006D01*
X48372087Y-57924410D01*
X48504410Y-57792087D01*
X48660006Y-57688121D01*
X48832895Y-57616508D01*
X48985781Y-57586097D01*
X49016432Y-57580000D01*
X49203568Y-57580000D01*
X49234219Y-57586097D01*
G37*
G36*
X57491491Y-57585090D02*
G01*
X57535288Y-57598376D01*
X57575644Y-57619947D01*
X57611021Y-57648979D01*
X57640053Y-57684356D01*
X57661624Y-57724712D01*
X57674910Y-57768509D01*
X57680000Y-57820190D01*
X57680000Y-59239810D01*
X57674910Y-59291491D01*
X57661624Y-59335288D01*
X57640053Y-59375644D01*
X57611021Y-59411021D01*
X57575644Y-59440053D01*
X57535288Y-59461624D01*
X57491491Y-59474910D01*
X57439810Y-59480000D01*
X56020190Y-59480000D01*
X55968509Y-59474910D01*
X55924712Y-59461624D01*
X55884356Y-59440053D01*
X55848979Y-59411021D01*
X55819947Y-59375644D01*
X55798376Y-59335288D01*
X55785090Y-59291491D01*
X55780000Y-59239810D01*
X55780000Y-57820190D01*
X55785090Y-57768509D01*
X55798376Y-57724712D01*
X55819947Y-57684356D01*
X55848979Y-57648979D01*
X55884356Y-57619947D01*
X55924712Y-57598376D01*
X55968509Y-57585090D01*
X56020190Y-57580000D01*
X57439810Y-57580000D01*
X57491491Y-57585090D01*
G37*
G36*
X54314219Y-57586097D02*
G01*
X54467105Y-57616508D01*
X54639994Y-57688121D01*
X54795590Y-57792087D01*
X54927913Y-57924410D01*
X55031879Y-58080006D01*
X55103492Y-58252895D01*
X55140000Y-58436433D01*
X55140000Y-58623567D01*
X55103492Y-58807105D01*
X55031879Y-58979994D01*
X54927913Y-59135590D01*
X54795590Y-59267913D01*
X54639994Y-59371879D01*
X54467105Y-59443492D01*
X54404992Y-59455847D01*
X54283568Y-59480000D01*
X54096432Y-59480000D01*
X53975008Y-59455847D01*
X53912895Y-59443492D01*
X53740006Y-59371879D01*
X53584410Y-59267913D01*
X53452087Y-59135590D01*
X53348121Y-58979994D01*
X53276508Y-58807105D01*
X53240000Y-58623567D01*
X53240000Y-58436433D01*
X53276508Y-58252895D01*
X53348121Y-58080006D01*
X53452087Y-57924410D01*
X53584410Y-57792087D01*
X53740006Y-57688121D01*
X53912895Y-57616508D01*
X54065781Y-57586097D01*
X54096432Y-57580000D01*
X54283568Y-57580000D01*
X54314219Y-57586097D01*
G37*
G36*
X44967948Y-53825722D02*
G01*
X45231831Y-53935026D01*
X45231833Y-53935027D01*
X45469321Y-54093711D01*
X45671289Y-54295679D01*
X45829973Y-54533167D01*
X45829974Y-54533169D01*
X45939278Y-54797052D01*
X45995000Y-55077186D01*
X45995000Y-55362814D01*
X45939278Y-55642948D01*
X45829974Y-55906831D01*
X45829973Y-55906833D01*
X45671289Y-56144321D01*
X45469321Y-56346289D01*
X45231833Y-56504973D01*
X45231832Y-56504974D01*
X45231831Y-56504974D01*
X44967948Y-56614278D01*
X44687814Y-56670000D01*
X44402186Y-56670000D01*
X44122052Y-56614278D01*
X43858169Y-56504974D01*
X43858168Y-56504974D01*
X43858167Y-56504973D01*
X43620679Y-56346289D01*
X43418711Y-56144321D01*
X43260027Y-55906833D01*
X43260026Y-55906831D01*
X43150722Y-55642948D01*
X43095000Y-55362814D01*
X43095000Y-55077186D01*
X43150722Y-54797052D01*
X43260026Y-54533169D01*
X43260027Y-54533167D01*
X43418711Y-54295679D01*
X43620679Y-54093711D01*
X43858167Y-53935027D01*
X43858169Y-53935026D01*
X44122052Y-53825722D01*
X44402186Y-53770000D01*
X44687814Y-53770000D01*
X44967948Y-53825722D01*
G37*
G36*
X60457948Y-53825722D02*
G01*
X60721831Y-53935026D01*
X60721833Y-53935027D01*
X60959321Y-54093711D01*
X61161289Y-54295679D01*
X61319973Y-54533167D01*
X61319974Y-54533169D01*
X61429278Y-54797052D01*
X61485000Y-55077186D01*
X61485000Y-55362814D01*
X61429278Y-55642948D01*
X61319974Y-55906831D01*
X61319973Y-55906833D01*
X61161289Y-56144321D01*
X60959321Y-56346289D01*
X60721833Y-56504973D01*
X60721832Y-56504974D01*
X60721831Y-56504974D01*
X60457948Y-56614278D01*
X60177814Y-56670000D01*
X59892186Y-56670000D01*
X59612052Y-56614278D01*
X59348169Y-56504974D01*
X59348168Y-56504974D01*
X59348167Y-56504973D01*
X59110679Y-56346289D01*
X58908711Y-56144321D01*
X58750027Y-55906833D01*
X58750026Y-55906831D01*
X58640722Y-55642948D01*
X58585000Y-55362814D01*
X58585000Y-55077186D01*
X58640722Y-54797052D01*
X58750026Y-54533169D01*
X58750027Y-54533167D01*
X58908711Y-54295679D01*
X59110679Y-54093711D01*
X59348167Y-53935027D01*
X59348169Y-53935026D01*
X59612052Y-53825722D01*
X59892186Y-53770000D01*
X60177814Y-53770000D01*
X60457948Y-53825722D01*
G37*
G36*
X58361040Y-50380067D02*
G01*
X58537333Y-50415134D01*
X58674904Y-50472118D01*
X58869460Y-50552705D01*
X59168369Y-50752430D01*
X59422570Y-51006631D01*
X59622295Y-51305540D01*
X59759866Y-51637668D01*
X59830000Y-51990252D01*
X59830000Y-52349748D01*
X59759866Y-52702332D01*
X59622295Y-53034460D01*
X59422570Y-53333369D01*
X59168369Y-53587570D01*
X58869460Y-53787295D01*
X58674904Y-53867882D01*
X58537333Y-53924866D01*
X58486255Y-53935026D01*
X58184748Y-53995000D01*
X57825252Y-53995000D01*
X57523745Y-53935026D01*
X57472667Y-53924866D01*
X57335096Y-53867882D01*
X57140540Y-53787295D01*
X56841631Y-53587570D01*
X56587430Y-53333369D01*
X56387705Y-53034460D01*
X56250134Y-52702332D01*
X56180000Y-52349748D01*
X56180000Y-51990252D01*
X56250134Y-51637668D01*
X56387705Y-51305540D01*
X56587430Y-51006631D01*
X56841631Y-50752430D01*
X57140540Y-50552705D01*
X57335096Y-50472118D01*
X57472667Y-50415134D01*
X57648960Y-50380067D01*
X57825252Y-50345000D01*
X58184748Y-50345000D01*
X58361040Y-50380067D01*
G37*
G36*
X46931040Y-50380067D02*
G01*
X47107333Y-50415134D01*
X47244904Y-50472118D01*
X47439460Y-50552705D01*
X47738369Y-50752430D01*
X47992570Y-51006631D01*
X48192295Y-51305540D01*
X48329866Y-51637668D01*
X48400000Y-51990252D01*
X48400000Y-52349748D01*
X48329866Y-52702332D01*
X48192295Y-53034460D01*
X47992570Y-53333369D01*
X47738369Y-53587570D01*
X47439460Y-53787295D01*
X47244904Y-53867882D01*
X47107333Y-53924866D01*
X47056255Y-53935026D01*
X46754748Y-53995000D01*
X46395252Y-53995000D01*
X46093745Y-53935026D01*
X46042667Y-53924866D01*
X45905096Y-53867882D01*
X45710540Y-53787295D01*
X45411631Y-53587570D01*
X45157430Y-53333369D01*
X44957705Y-53034460D01*
X44820134Y-52702332D01*
X44750000Y-52349748D01*
X44750000Y-51990252D01*
X44820134Y-51637668D01*
X44957705Y-51305540D01*
X45157430Y-51006631D01*
X45411631Y-50752430D01*
X45710540Y-50552705D01*
X45905096Y-50472118D01*
X46042667Y-50415134D01*
X46218960Y-50380067D01*
X46395252Y-50345000D01*
X46754748Y-50345000D01*
X46931040Y-50380067D01*
G37*
G36*
X114722000Y-50002000D02*
G01*
X112798000Y-50002000D01*
X112798000Y-48078000D01*
X114722000Y-48078000D01*
X114722000Y-50002000D01*
G37*
G36*
X106420604Y-48114968D02*
G01*
X106474969Y-48137487D01*
X106595678Y-48187486D01*
X106603580Y-48192766D01*
X106753237Y-48292763D01*
X106887237Y-48426763D01*
X106959104Y-48534321D01*
X106992514Y-48584322D01*
X107028772Y-48671858D01*
X107065032Y-48759396D01*
X107102000Y-48945250D01*
X107102000Y-49134750D01*
X107065032Y-49320604D01*
X107028772Y-49408142D01*
X106992514Y-49495678D01*
X106992513Y-49495679D01*
X106887237Y-49653237D01*
X106753237Y-49787237D01*
X106621879Y-49875007D01*
X106595678Y-49892514D01*
X106541314Y-49915032D01*
X106420604Y-49965032D01*
X106234750Y-50002000D01*
X106045250Y-50002000D01*
X105859396Y-49965032D01*
X105738686Y-49915032D01*
X105684322Y-49892514D01*
X105658121Y-49875007D01*
X105526763Y-49787237D01*
X105392763Y-49653237D01*
X105287487Y-49495679D01*
X105287486Y-49495678D01*
X105251228Y-49408142D01*
X105214968Y-49320604D01*
X105178000Y-49134750D01*
X105178000Y-48945250D01*
X105214968Y-48759396D01*
X105251228Y-48671858D01*
X105287486Y-48584322D01*
X105320896Y-48534321D01*
X105392763Y-48426763D01*
X105526763Y-48292763D01*
X105676420Y-48192766D01*
X105684322Y-48187486D01*
X105805031Y-48137487D01*
X105859396Y-48114968D01*
X106045250Y-48078000D01*
X106234750Y-48078000D01*
X106420604Y-48114968D01*
G37*
G36*
X102610604Y-48114968D02*
G01*
X102664969Y-48137487D01*
X102785678Y-48187486D01*
X102793580Y-48192766D01*
X102943237Y-48292763D01*
X103077237Y-48426763D01*
X103149104Y-48534321D01*
X103182514Y-48584322D01*
X103218772Y-48671858D01*
X103255032Y-48759396D01*
X103292000Y-48945250D01*
X103292000Y-49134750D01*
X103255032Y-49320604D01*
X103218772Y-49408142D01*
X103182514Y-49495678D01*
X103182513Y-49495679D01*
X103077237Y-49653237D01*
X102943237Y-49787237D01*
X102811879Y-49875007D01*
X102785678Y-49892514D01*
X102731314Y-49915032D01*
X102610604Y-49965032D01*
X102424750Y-50002000D01*
X102235250Y-50002000D01*
X102049396Y-49965032D01*
X101928686Y-49915032D01*
X101874322Y-49892514D01*
X101848121Y-49875007D01*
X101716763Y-49787237D01*
X101582763Y-49653237D01*
X101477487Y-49495679D01*
X101477486Y-49495678D01*
X101441228Y-49408142D01*
X101404968Y-49320604D01*
X101368000Y-49134750D01*
X101368000Y-48945250D01*
X101404968Y-48759396D01*
X101441228Y-48671858D01*
X101477486Y-48584322D01*
X101510896Y-48534321D01*
X101582763Y-48426763D01*
X101716763Y-48292763D01*
X101866420Y-48192766D01*
X101874322Y-48187486D01*
X101995031Y-48137487D01*
X102049396Y-48114968D01*
X102235250Y-48078000D01*
X102424750Y-48078000D01*
X102610604Y-48114968D01*
G37*
G36*
X110230604Y-48114968D02*
G01*
X110284969Y-48137487D01*
X110405678Y-48187486D01*
X110413580Y-48192766D01*
X110563237Y-48292763D01*
X110697237Y-48426763D01*
X110769104Y-48534321D01*
X110802514Y-48584322D01*
X110838772Y-48671858D01*
X110875032Y-48759396D01*
X110912000Y-48945250D01*
X110912000Y-49134750D01*
X110875032Y-49320604D01*
X110838772Y-49408142D01*
X110802514Y-49495678D01*
X110802513Y-49495679D01*
X110697237Y-49653237D01*
X110563237Y-49787237D01*
X110431879Y-49875007D01*
X110405678Y-49892514D01*
X110351314Y-49915032D01*
X110230604Y-49965032D01*
X110044750Y-50002000D01*
X109855250Y-50002000D01*
X109669396Y-49965032D01*
X109548686Y-49915032D01*
X109494322Y-49892514D01*
X109468121Y-49875007D01*
X109336763Y-49787237D01*
X109202763Y-49653237D01*
X109097487Y-49495679D01*
X109097486Y-49495678D01*
X109061228Y-49408142D01*
X109024968Y-49320604D01*
X108988000Y-49134750D01*
X108988000Y-48945250D01*
X109024968Y-48759396D01*
X109061228Y-48671858D01*
X109097486Y-48584322D01*
X109130896Y-48534321D01*
X109202763Y-48426763D01*
X109336763Y-48292763D01*
X109486420Y-48192766D01*
X109494322Y-48187486D01*
X109615031Y-48137487D01*
X109669396Y-48114968D01*
X109855250Y-48078000D01*
X110044750Y-48078000D01*
X110230604Y-48114968D01*
G37*
G36*
X88550604Y-48084968D02*
G01*
X88615572Y-48111879D01*
X88725678Y-48157486D01*
X88725679Y-48157487D01*
X88883237Y-48262763D01*
X89017237Y-48396763D01*
X89082423Y-48494322D01*
X89122514Y-48554322D01*
X89134940Y-48584321D01*
X89195032Y-48729396D01*
X89232000Y-48915250D01*
X89232000Y-49104750D01*
X89195032Y-49290604D01*
X89182605Y-49320604D01*
X89122514Y-49465678D01*
X89122513Y-49465679D01*
X89017237Y-49623237D01*
X88883237Y-49757237D01*
X88755611Y-49842513D01*
X88725678Y-49862514D01*
X88653253Y-49892513D01*
X88550604Y-49935032D01*
X88364750Y-49972000D01*
X88175250Y-49972000D01*
X87989396Y-49935032D01*
X87886747Y-49892513D01*
X87814322Y-49862514D01*
X87784389Y-49842513D01*
X87656763Y-49757237D01*
X87522763Y-49623237D01*
X87417487Y-49465679D01*
X87417486Y-49465678D01*
X87357395Y-49320604D01*
X87344968Y-49290604D01*
X87308000Y-49104750D01*
X87308000Y-48915250D01*
X87344968Y-48729396D01*
X87405060Y-48584321D01*
X87417486Y-48554322D01*
X87457577Y-48494322D01*
X87522763Y-48396763D01*
X87656763Y-48262763D01*
X87814321Y-48157487D01*
X87814322Y-48157486D01*
X87924428Y-48111879D01*
X87989396Y-48084968D01*
X88175250Y-48048000D01*
X88364750Y-48048000D01*
X88550604Y-48084968D01*
G37*
G36*
X84740604Y-48084968D02*
G01*
X84805572Y-48111879D01*
X84915678Y-48157486D01*
X84915679Y-48157487D01*
X85073237Y-48262763D01*
X85207237Y-48396763D01*
X85272423Y-48494322D01*
X85312514Y-48554322D01*
X85324940Y-48584321D01*
X85385032Y-48729396D01*
X85422000Y-48915250D01*
X85422000Y-49104750D01*
X85385032Y-49290604D01*
X85372605Y-49320604D01*
X85312514Y-49465678D01*
X85312513Y-49465679D01*
X85207237Y-49623237D01*
X85073237Y-49757237D01*
X84945611Y-49842513D01*
X84915678Y-49862514D01*
X84843253Y-49892513D01*
X84740604Y-49935032D01*
X84554750Y-49972000D01*
X84365250Y-49972000D01*
X84179396Y-49935032D01*
X84076747Y-49892513D01*
X84004322Y-49862514D01*
X83974389Y-49842513D01*
X83846763Y-49757237D01*
X83712763Y-49623237D01*
X83607487Y-49465679D01*
X83607486Y-49465678D01*
X83547395Y-49320604D01*
X83534968Y-49290604D01*
X83498000Y-49104750D01*
X83498000Y-48915250D01*
X83534968Y-48729396D01*
X83595060Y-48584321D01*
X83607486Y-48554322D01*
X83647577Y-48494322D01*
X83712763Y-48396763D01*
X83846763Y-48262763D01*
X84004321Y-48157487D01*
X84004322Y-48157486D01*
X84114428Y-48111879D01*
X84179396Y-48084968D01*
X84365250Y-48048000D01*
X84554750Y-48048000D01*
X84740604Y-48084968D01*
G37*
G36*
X96852000Y-49972000D02*
G01*
X94928000Y-49972000D01*
X94928000Y-48048000D01*
X96852000Y-48048000D01*
X96852000Y-49972000D01*
G37*
G36*
X92360604Y-48084968D02*
G01*
X92425572Y-48111879D01*
X92535678Y-48157486D01*
X92535679Y-48157487D01*
X92693237Y-48262763D01*
X92827237Y-48396763D01*
X92892423Y-48494322D01*
X92932514Y-48554322D01*
X92944940Y-48584321D01*
X93005032Y-48729396D01*
X93042000Y-48915250D01*
X93042000Y-49104750D01*
X93005032Y-49290604D01*
X92992605Y-49320604D01*
X92932514Y-49465678D01*
X92932513Y-49465679D01*
X92827237Y-49623237D01*
X92693237Y-49757237D01*
X92565611Y-49842513D01*
X92535678Y-49862514D01*
X92463253Y-49892513D01*
X92360604Y-49935032D01*
X92174750Y-49972000D01*
X91985250Y-49972000D01*
X91799396Y-49935032D01*
X91696747Y-49892513D01*
X91624322Y-49862514D01*
X91594389Y-49842513D01*
X91466763Y-49757237D01*
X91332763Y-49623237D01*
X91227487Y-49465679D01*
X91227486Y-49465678D01*
X91167395Y-49320604D01*
X91154968Y-49290604D01*
X91118000Y-49104750D01*
X91118000Y-48915250D01*
X91154968Y-48729396D01*
X91215060Y-48584321D01*
X91227486Y-48554322D01*
X91267577Y-48494322D01*
X91332763Y-48396763D01*
X91466763Y-48262763D01*
X91624321Y-48157487D01*
X91624322Y-48157486D01*
X91734428Y-48111879D01*
X91799396Y-48084968D01*
X91985250Y-48048000D01*
X92174750Y-48048000D01*
X92360604Y-48084968D01*
G37*
G36*
X71080604Y-48064968D02*
G01*
X71134969Y-48087487D01*
X71255678Y-48137486D01*
X71255679Y-48137487D01*
X71413237Y-48242763D01*
X71547237Y-48376763D01*
X71619104Y-48484321D01*
X71652514Y-48534322D01*
X71688772Y-48621858D01*
X71725032Y-48709396D01*
X71762000Y-48895250D01*
X71762000Y-49084750D01*
X71725032Y-49270604D01*
X71688772Y-49358142D01*
X71652514Y-49445678D01*
X71652513Y-49445679D01*
X71547237Y-49603237D01*
X71413237Y-49737237D01*
X71315542Y-49802514D01*
X71255678Y-49842514D01*
X71201314Y-49865032D01*
X71080604Y-49915032D01*
X70894750Y-49952000D01*
X70705250Y-49952000D01*
X70519396Y-49915032D01*
X70398686Y-49865032D01*
X70344322Y-49842514D01*
X70284458Y-49802514D01*
X70186763Y-49737237D01*
X70052763Y-49603237D01*
X69947487Y-49445679D01*
X69947486Y-49445678D01*
X69911228Y-49358142D01*
X69874968Y-49270604D01*
X69838000Y-49084750D01*
X69838000Y-48895250D01*
X69874968Y-48709396D01*
X69947486Y-48534322D01*
X69980896Y-48484321D01*
X70052763Y-48376763D01*
X70186763Y-48242763D01*
X70344321Y-48137487D01*
X70344322Y-48137486D01*
X70465031Y-48087487D01*
X70519396Y-48064968D01*
X70705250Y-48028000D01*
X70894750Y-48028000D01*
X71080604Y-48064968D01*
G37*
G36*
X79382000Y-49952000D02*
G01*
X77458000Y-49952000D01*
X77458000Y-48028000D01*
X79382000Y-48028000D01*
X79382000Y-49952000D01*
G37*
G36*
X74890604Y-48064968D02*
G01*
X74944969Y-48087487D01*
X75065678Y-48137486D01*
X75065679Y-48137487D01*
X75223237Y-48242763D01*
X75357237Y-48376763D01*
X75429104Y-48484321D01*
X75462514Y-48534322D01*
X75498772Y-48621858D01*
X75535032Y-48709396D01*
X75572000Y-48895250D01*
X75572000Y-49084750D01*
X75535032Y-49270604D01*
X75498772Y-49358142D01*
X75462514Y-49445678D01*
X75462513Y-49445679D01*
X75357237Y-49603237D01*
X75223237Y-49737237D01*
X75125542Y-49802514D01*
X75065678Y-49842514D01*
X75011314Y-49865032D01*
X74890604Y-49915032D01*
X74704750Y-49952000D01*
X74515250Y-49952000D01*
X74329396Y-49915032D01*
X74208686Y-49865032D01*
X74154322Y-49842514D01*
X74094458Y-49802514D01*
X73996763Y-49737237D01*
X73862763Y-49603237D01*
X73757487Y-49445679D01*
X73757486Y-49445678D01*
X73721228Y-49358142D01*
X73684968Y-49270604D01*
X73648000Y-49084750D01*
X73648000Y-48895250D01*
X73684968Y-48709396D01*
X73757486Y-48534322D01*
X73790896Y-48484321D01*
X73862763Y-48376763D01*
X73996763Y-48242763D01*
X74154321Y-48137487D01*
X74154322Y-48137486D01*
X74275031Y-48087487D01*
X74329396Y-48064968D01*
X74515250Y-48028000D01*
X74704750Y-48028000D01*
X74890604Y-48064968D01*
G37*
G36*
X67270604Y-48064968D02*
G01*
X67324969Y-48087487D01*
X67445678Y-48137486D01*
X67445679Y-48137487D01*
X67603237Y-48242763D01*
X67737237Y-48376763D01*
X67809104Y-48484321D01*
X67842514Y-48534322D01*
X67878772Y-48621858D01*
X67915032Y-48709396D01*
X67952000Y-48895250D01*
X67952000Y-49084750D01*
X67915032Y-49270604D01*
X67878772Y-49358142D01*
X67842514Y-49445678D01*
X67842513Y-49445679D01*
X67737237Y-49603237D01*
X67603237Y-49737237D01*
X67505542Y-49802514D01*
X67445678Y-49842514D01*
X67391314Y-49865032D01*
X67270604Y-49915032D01*
X67084750Y-49952000D01*
X66895250Y-49952000D01*
X66709396Y-49915032D01*
X66588686Y-49865032D01*
X66534322Y-49842514D01*
X66474458Y-49802514D01*
X66376763Y-49737237D01*
X66242763Y-49603237D01*
X66137487Y-49445679D01*
X66137486Y-49445678D01*
X66101228Y-49358142D01*
X66064968Y-49270604D01*
X66028000Y-49084750D01*
X66028000Y-48895250D01*
X66064968Y-48709396D01*
X66137486Y-48534322D01*
X66170896Y-48484321D01*
X66242763Y-48376763D01*
X66376763Y-48242763D01*
X66534321Y-48137487D01*
X66534322Y-48137486D01*
X66655031Y-48087487D01*
X66709396Y-48064968D01*
X66895250Y-48028000D01*
X67084750Y-48028000D01*
X67270604Y-48064968D01*
G37*
G36*
X160820604Y-48024968D02*
G01*
X160995678Y-48097486D01*
X160995679Y-48097487D01*
X161153237Y-48202763D01*
X161287237Y-48336763D01*
X161375007Y-48468121D01*
X161392514Y-48494322D01*
X161465032Y-48669396D01*
X161502000Y-48855250D01*
X161502000Y-49044750D01*
X161465032Y-49230604D01*
X161392514Y-49405678D01*
X161392513Y-49405679D01*
X161287237Y-49563237D01*
X161153237Y-49697237D01*
X161021879Y-49785007D01*
X160995678Y-49802514D01*
X160820604Y-49875032D01*
X160634750Y-49912000D01*
X160445250Y-49912000D01*
X160259396Y-49875032D01*
X160171858Y-49838772D01*
X160084322Y-49802514D01*
X160058121Y-49785007D01*
X159926763Y-49697237D01*
X159792763Y-49563237D01*
X159687487Y-49405679D01*
X159687486Y-49405678D01*
X159614968Y-49230604D01*
X159578000Y-49044750D01*
X159578000Y-48855250D01*
X159614968Y-48669396D01*
X159687486Y-48494322D01*
X159704993Y-48468121D01*
X159792763Y-48336763D01*
X159926763Y-48202763D01*
X160084321Y-48097487D01*
X160084322Y-48097486D01*
X160259396Y-48024968D01*
X160445250Y-47988000D01*
X160634750Y-47988000D01*
X160820604Y-48024968D01*
G37*
G36*
X157010604Y-48024968D02*
G01*
X157185678Y-48097486D01*
X157185679Y-48097487D01*
X157343237Y-48202763D01*
X157477237Y-48336763D01*
X157565007Y-48468121D01*
X157582514Y-48494322D01*
X157655032Y-48669396D01*
X157692000Y-48855250D01*
X157692000Y-49044750D01*
X157655032Y-49230604D01*
X157582514Y-49405678D01*
X157582513Y-49405679D01*
X157477237Y-49563237D01*
X157343237Y-49697237D01*
X157211879Y-49785007D01*
X157185678Y-49802514D01*
X157010604Y-49875032D01*
X156824750Y-49912000D01*
X156635250Y-49912000D01*
X156449396Y-49875032D01*
X156361858Y-49838772D01*
X156274322Y-49802514D01*
X156248121Y-49785007D01*
X156116763Y-49697237D01*
X155982763Y-49563237D01*
X155877487Y-49405679D01*
X155877486Y-49405678D01*
X155804968Y-49230604D01*
X155768000Y-49044750D01*
X155768000Y-48855250D01*
X155804968Y-48669396D01*
X155877486Y-48494322D01*
X155894993Y-48468121D01*
X155982763Y-48336763D01*
X156116763Y-48202763D01*
X156274321Y-48097487D01*
X156274322Y-48097486D01*
X156449396Y-48024968D01*
X156635250Y-47988000D01*
X156824750Y-47988000D01*
X157010604Y-48024968D01*
G37*
G36*
X164630604Y-48024968D02*
G01*
X164805678Y-48097486D01*
X164805679Y-48097487D01*
X164963237Y-48202763D01*
X165097237Y-48336763D01*
X165185007Y-48468121D01*
X165202514Y-48494322D01*
X165275032Y-48669396D01*
X165312000Y-48855250D01*
X165312000Y-49044750D01*
X165275032Y-49230604D01*
X165202514Y-49405678D01*
X165202513Y-49405679D01*
X165097237Y-49563237D01*
X164963237Y-49697237D01*
X164831879Y-49785007D01*
X164805678Y-49802514D01*
X164630604Y-49875032D01*
X164444750Y-49912000D01*
X164255250Y-49912000D01*
X164069396Y-49875032D01*
X163981858Y-49838772D01*
X163894322Y-49802514D01*
X163868121Y-49785007D01*
X163736763Y-49697237D01*
X163602763Y-49563237D01*
X163497487Y-49405679D01*
X163497486Y-49405678D01*
X163424968Y-49230604D01*
X163388000Y-49044750D01*
X163388000Y-48855250D01*
X163424968Y-48669396D01*
X163497486Y-48494322D01*
X163514993Y-48468121D01*
X163602763Y-48336763D01*
X163736763Y-48202763D01*
X163894321Y-48097487D01*
X163894322Y-48097486D01*
X164069396Y-48024968D01*
X164255250Y-47988000D01*
X164444750Y-47988000D01*
X164630604Y-48024968D01*
G37*
G36*
X169122000Y-49912000D02*
G01*
X167198000Y-49912000D01*
X167198000Y-47988000D01*
X169122000Y-47988000D01*
X169122000Y-49912000D01*
G37*
G36*
X122940604Y-48014968D02*
G01*
X123020350Y-48048000D01*
X123115678Y-48087486D01*
X123115679Y-48087487D01*
X123273237Y-48192763D01*
X123407237Y-48326763D01*
X123474053Y-48426761D01*
X123512514Y-48484322D01*
X123541508Y-48554321D01*
X123585032Y-48659396D01*
X123622000Y-48845250D01*
X123622000Y-49034750D01*
X123585032Y-49220604D01*
X123556037Y-49290604D01*
X123512514Y-49395678D01*
X123512513Y-49395679D01*
X123407237Y-49553237D01*
X123273237Y-49687237D01*
X123141879Y-49775007D01*
X123115678Y-49792514D01*
X123028142Y-49828772D01*
X122940604Y-49865032D01*
X122754750Y-49902000D01*
X122565250Y-49902000D01*
X122379396Y-49865032D01*
X122204322Y-49792514D01*
X122178121Y-49775007D01*
X122046763Y-49687237D01*
X121912763Y-49553237D01*
X121807487Y-49395679D01*
X121807486Y-49395678D01*
X121763963Y-49290604D01*
X121734968Y-49220604D01*
X121698000Y-49034750D01*
X121698000Y-48845250D01*
X121734968Y-48659396D01*
X121778492Y-48554321D01*
X121807486Y-48484322D01*
X121845947Y-48426761D01*
X121912763Y-48326763D01*
X122046763Y-48192763D01*
X122204321Y-48087487D01*
X122204322Y-48087486D01*
X122299650Y-48048000D01*
X122379396Y-48014968D01*
X122565250Y-47978000D01*
X122754750Y-47978000D01*
X122940604Y-48014968D01*
G37*
G36*
X131242000Y-49902000D02*
G01*
X129318000Y-49902000D01*
X129318000Y-47978000D01*
X131242000Y-47978000D01*
X131242000Y-49902000D01*
G37*
G36*
X126750604Y-48014968D02*
G01*
X126830350Y-48048000D01*
X126925678Y-48087486D01*
X126925679Y-48087487D01*
X127083237Y-48192763D01*
X127217237Y-48326763D01*
X127284053Y-48426761D01*
X127322514Y-48484322D01*
X127351508Y-48554321D01*
X127395032Y-48659396D01*
X127432000Y-48845250D01*
X127432000Y-49034750D01*
X127395032Y-49220604D01*
X127366037Y-49290604D01*
X127322514Y-49395678D01*
X127322513Y-49395679D01*
X127217237Y-49553237D01*
X127083237Y-49687237D01*
X126951879Y-49775007D01*
X126925678Y-49792514D01*
X126838142Y-49828772D01*
X126750604Y-49865032D01*
X126564750Y-49902000D01*
X126375250Y-49902000D01*
X126189396Y-49865032D01*
X126014322Y-49792514D01*
X125988121Y-49775007D01*
X125856763Y-49687237D01*
X125722763Y-49553237D01*
X125617487Y-49395679D01*
X125617486Y-49395678D01*
X125573963Y-49290604D01*
X125544968Y-49220604D01*
X125508000Y-49034750D01*
X125508000Y-48845250D01*
X125544968Y-48659396D01*
X125588492Y-48554321D01*
X125617486Y-48484322D01*
X125655947Y-48426761D01*
X125722763Y-48326763D01*
X125856763Y-48192763D01*
X126014321Y-48087487D01*
X126014322Y-48087486D01*
X126109650Y-48048000D01*
X126189396Y-48014968D01*
X126375250Y-47978000D01*
X126564750Y-47978000D01*
X126750604Y-48014968D01*
G37*
G36*
X119130604Y-48014968D02*
G01*
X119210350Y-48048000D01*
X119305678Y-48087486D01*
X119305679Y-48087487D01*
X119463237Y-48192763D01*
X119597237Y-48326763D01*
X119664053Y-48426761D01*
X119702514Y-48484322D01*
X119731508Y-48554321D01*
X119775032Y-48659396D01*
X119812000Y-48845250D01*
X119812000Y-49034750D01*
X119775032Y-49220604D01*
X119746037Y-49290604D01*
X119702514Y-49395678D01*
X119702513Y-49395679D01*
X119597237Y-49553237D01*
X119463237Y-49687237D01*
X119331879Y-49775007D01*
X119305678Y-49792514D01*
X119218142Y-49828772D01*
X119130604Y-49865032D01*
X118944750Y-49902000D01*
X118755250Y-49902000D01*
X118569396Y-49865032D01*
X118394322Y-49792514D01*
X118368121Y-49775007D01*
X118236763Y-49687237D01*
X118102763Y-49553237D01*
X117997487Y-49395679D01*
X117997486Y-49395678D01*
X117953963Y-49290604D01*
X117924968Y-49220604D01*
X117888000Y-49034750D01*
X117888000Y-48845250D01*
X117924968Y-48659396D01*
X117968492Y-48554321D01*
X117997486Y-48484322D01*
X118035947Y-48426761D01*
X118102763Y-48326763D01*
X118236763Y-48192763D01*
X118394321Y-48087487D01*
X118394322Y-48087486D01*
X118489650Y-48048000D01*
X118569396Y-48014968D01*
X118755250Y-47978000D01*
X118944750Y-47978000D01*
X119130604Y-48014968D01*
G37*
G36*
X59100336Y-46338254D02*
G01*
X59192105Y-46356508D01*
X59364994Y-46428121D01*
X59520590Y-46532087D01*
X59652913Y-46664410D01*
X59756879Y-46820006D01*
X59828492Y-46992895D01*
X59865000Y-47176433D01*
X59865000Y-47363567D01*
X59828492Y-47547105D01*
X59756879Y-47719994D01*
X59652913Y-47875590D01*
X59520590Y-48007913D01*
X59364994Y-48111879D01*
X59192105Y-48183492D01*
X59145481Y-48192766D01*
X59008568Y-48220000D01*
X58821432Y-48220000D01*
X58684519Y-48192766D01*
X58637895Y-48183492D01*
X58465006Y-48111879D01*
X58309410Y-48007913D01*
X58177087Y-47875590D01*
X58073121Y-47719994D01*
X58001508Y-47547105D01*
X57965000Y-47363567D01*
X57965000Y-47176433D01*
X58001508Y-46992895D01*
X58073121Y-46820006D01*
X58177087Y-46664410D01*
X58309410Y-46532087D01*
X58465006Y-46428121D01*
X58637895Y-46356508D01*
X58729664Y-46338254D01*
X58821432Y-46320000D01*
X59008568Y-46320000D01*
X59100336Y-46338254D01*
G37*
G36*
X56560336Y-46338254D02*
G01*
X56652105Y-46356508D01*
X56824994Y-46428121D01*
X56980590Y-46532087D01*
X57112913Y-46664410D01*
X57216879Y-46820006D01*
X57288492Y-46992895D01*
X57325000Y-47176433D01*
X57325000Y-47363567D01*
X57288492Y-47547105D01*
X57216879Y-47719994D01*
X57112913Y-47875590D01*
X56980590Y-48007913D01*
X56824994Y-48111879D01*
X56652105Y-48183492D01*
X56605481Y-48192766D01*
X56468568Y-48220000D01*
X56281432Y-48220000D01*
X56144519Y-48192766D01*
X56097895Y-48183492D01*
X55925006Y-48111879D01*
X55769410Y-48007913D01*
X55637087Y-47875590D01*
X55533121Y-47719994D01*
X55461508Y-47547105D01*
X55425000Y-47363567D01*
X55425000Y-47176433D01*
X55461508Y-46992895D01*
X55533121Y-46820006D01*
X55637087Y-46664410D01*
X55769410Y-46532087D01*
X55925006Y-46428121D01*
X56097895Y-46356508D01*
X56189664Y-46338254D01*
X56281432Y-46320000D01*
X56468568Y-46320000D01*
X56560336Y-46338254D01*
G37*
G36*
X48390336Y-46338254D02*
G01*
X48482105Y-46356508D01*
X48654994Y-46428121D01*
X48810590Y-46532087D01*
X48942913Y-46664410D01*
X49046879Y-46820006D01*
X49118492Y-46992895D01*
X49155000Y-47176433D01*
X49155000Y-47363567D01*
X49118492Y-47547105D01*
X49046879Y-47719994D01*
X48942913Y-47875590D01*
X48810590Y-48007913D01*
X48654994Y-48111879D01*
X48482105Y-48183492D01*
X48435481Y-48192766D01*
X48298568Y-48220000D01*
X48111432Y-48220000D01*
X47974519Y-48192766D01*
X47927895Y-48183492D01*
X47755006Y-48111879D01*
X47599410Y-48007913D01*
X47467087Y-47875590D01*
X47363121Y-47719994D01*
X47291508Y-47547105D01*
X47255000Y-47363567D01*
X47255000Y-47176433D01*
X47291508Y-46992895D01*
X47363121Y-46820006D01*
X47467087Y-46664410D01*
X47599410Y-46532087D01*
X47755006Y-46428121D01*
X47927895Y-46356508D01*
X48019664Y-46338254D01*
X48111432Y-46320000D01*
X48298568Y-46320000D01*
X48390336Y-46338254D01*
G37*
G36*
X45850336Y-46338254D02*
G01*
X45942105Y-46356508D01*
X46114994Y-46428121D01*
X46270590Y-46532087D01*
X46402913Y-46664410D01*
X46506879Y-46820006D01*
X46578492Y-46992895D01*
X46615000Y-47176433D01*
X46615000Y-47363567D01*
X46578492Y-47547105D01*
X46506879Y-47719994D01*
X46402913Y-47875590D01*
X46270590Y-48007913D01*
X46114994Y-48111879D01*
X45942105Y-48183492D01*
X45895481Y-48192766D01*
X45758568Y-48220000D01*
X45571432Y-48220000D01*
X45434519Y-48192766D01*
X45387895Y-48183492D01*
X45215006Y-48111879D01*
X45059410Y-48007913D01*
X44927087Y-47875590D01*
X44823121Y-47719994D01*
X44751508Y-47547105D01*
X44715000Y-47363567D01*
X44715000Y-47176433D01*
X44751508Y-46992895D01*
X44823121Y-46820006D01*
X44927087Y-46664410D01*
X45059410Y-46532087D01*
X45215006Y-46428121D01*
X45387895Y-46356508D01*
X45479664Y-46338254D01*
X45571432Y-46320000D01*
X45758568Y-46320000D01*
X45850336Y-46338254D01*
G37*
M02*
